%TF.GenerationSoftware,KiCad,Pcbnew,9.0.0*%
%TF.CreationDate,2025-04-15T14:49:33-07:00*%
%TF.ProjectId,LEDBoardBasic,4c454442-6f61-4726-9442-617369632e6b,rev?*%
%TF.SameCoordinates,Original*%
%TF.FileFunction,Legend,Top*%
%TF.FilePolarity,Positive*%
%FSLAX46Y46*%
G04 Gerber Fmt 4.6, Leading zero omitted, Abs format (unit mm)*
G04 Created by KiCad (PCBNEW 9.0.0) date 2025-04-15 14:49:33*
%MOMM*%
%LPD*%
G01*
G04 APERTURE LIST*
%ADD10C,0.187500*%
%ADD11C,0.120000*%
G04 APERTURE END LIST*
D10*
X131122890Y-102154566D02*
X131837176Y-102154566D01*
X130980033Y-102583137D02*
X131480033Y-101083137D01*
X131480033Y-101083137D02*
X131980033Y-102583137D01*
X132480032Y-101583137D02*
X132480032Y-102583137D01*
X132480032Y-101725994D02*
X132551461Y-101654566D01*
X132551461Y-101654566D02*
X132694318Y-101583137D01*
X132694318Y-101583137D02*
X132908604Y-101583137D01*
X132908604Y-101583137D02*
X133051461Y-101654566D01*
X133051461Y-101654566D02*
X133122890Y-101797423D01*
X133122890Y-101797423D02*
X133122890Y-102583137D01*
X134051461Y-102583137D02*
X133908604Y-102511709D01*
X133908604Y-102511709D02*
X133837175Y-102440280D01*
X133837175Y-102440280D02*
X133765747Y-102297423D01*
X133765747Y-102297423D02*
X133765747Y-101868851D01*
X133765747Y-101868851D02*
X133837175Y-101725994D01*
X133837175Y-101725994D02*
X133908604Y-101654566D01*
X133908604Y-101654566D02*
X134051461Y-101583137D01*
X134051461Y-101583137D02*
X134265747Y-101583137D01*
X134265747Y-101583137D02*
X134408604Y-101654566D01*
X134408604Y-101654566D02*
X134480033Y-101725994D01*
X134480033Y-101725994D02*
X134551461Y-101868851D01*
X134551461Y-101868851D02*
X134551461Y-102297423D01*
X134551461Y-102297423D02*
X134480033Y-102440280D01*
X134480033Y-102440280D02*
X134408604Y-102511709D01*
X134408604Y-102511709D02*
X134265747Y-102583137D01*
X134265747Y-102583137D02*
X134051461Y-102583137D01*
X135837176Y-102583137D02*
X135837176Y-101083137D01*
X135837176Y-102511709D02*
X135694318Y-102583137D01*
X135694318Y-102583137D02*
X135408604Y-102583137D01*
X135408604Y-102583137D02*
X135265747Y-102511709D01*
X135265747Y-102511709D02*
X135194318Y-102440280D01*
X135194318Y-102440280D02*
X135122890Y-102297423D01*
X135122890Y-102297423D02*
X135122890Y-101868851D01*
X135122890Y-101868851D02*
X135194318Y-101725994D01*
X135194318Y-101725994D02*
X135265747Y-101654566D01*
X135265747Y-101654566D02*
X135408604Y-101583137D01*
X135408604Y-101583137D02*
X135694318Y-101583137D01*
X135694318Y-101583137D02*
X135837176Y-101654566D01*
X137122890Y-102511709D02*
X136980033Y-102583137D01*
X136980033Y-102583137D02*
X136694319Y-102583137D01*
X136694319Y-102583137D02*
X136551461Y-102511709D01*
X136551461Y-102511709D02*
X136480033Y-102368851D01*
X136480033Y-102368851D02*
X136480033Y-101797423D01*
X136480033Y-101797423D02*
X136551461Y-101654566D01*
X136551461Y-101654566D02*
X136694319Y-101583137D01*
X136694319Y-101583137D02*
X136980033Y-101583137D01*
X136980033Y-101583137D02*
X137122890Y-101654566D01*
X137122890Y-101654566D02*
X137194319Y-101797423D01*
X137194319Y-101797423D02*
X137194319Y-101940280D01*
X137194319Y-101940280D02*
X136480033Y-102083137D01*
X131264061Y-92331080D02*
X131192633Y-92402509D01*
X131192633Y-92402509D02*
X130978347Y-92473937D01*
X130978347Y-92473937D02*
X130835490Y-92473937D01*
X130835490Y-92473937D02*
X130621204Y-92402509D01*
X130621204Y-92402509D02*
X130478347Y-92259651D01*
X130478347Y-92259651D02*
X130406918Y-92116794D01*
X130406918Y-92116794D02*
X130335490Y-91831080D01*
X130335490Y-91831080D02*
X130335490Y-91616794D01*
X130335490Y-91616794D02*
X130406918Y-91331080D01*
X130406918Y-91331080D02*
X130478347Y-91188223D01*
X130478347Y-91188223D02*
X130621204Y-91045366D01*
X130621204Y-91045366D02*
X130835490Y-90973937D01*
X130835490Y-90973937D02*
X130978347Y-90973937D01*
X130978347Y-90973937D02*
X131192633Y-91045366D01*
X131192633Y-91045366D02*
X131264061Y-91116794D01*
X132549776Y-92473937D02*
X132549776Y-91688223D01*
X132549776Y-91688223D02*
X132478347Y-91545366D01*
X132478347Y-91545366D02*
X132335490Y-91473937D01*
X132335490Y-91473937D02*
X132049776Y-91473937D01*
X132049776Y-91473937D02*
X131906918Y-91545366D01*
X132549776Y-92402509D02*
X132406918Y-92473937D01*
X132406918Y-92473937D02*
X132049776Y-92473937D01*
X132049776Y-92473937D02*
X131906918Y-92402509D01*
X131906918Y-92402509D02*
X131835490Y-92259651D01*
X131835490Y-92259651D02*
X131835490Y-92116794D01*
X131835490Y-92116794D02*
X131906918Y-91973937D01*
X131906918Y-91973937D02*
X132049776Y-91902509D01*
X132049776Y-91902509D02*
X132406918Y-91902509D01*
X132406918Y-91902509D02*
X132549776Y-91831080D01*
X133049776Y-91473937D02*
X133621204Y-91473937D01*
X133264061Y-90973937D02*
X133264061Y-92259651D01*
X133264061Y-92259651D02*
X133335490Y-92402509D01*
X133335490Y-92402509D02*
X133478347Y-92473937D01*
X133478347Y-92473937D02*
X133621204Y-92473937D01*
X134121204Y-92473937D02*
X134121204Y-90973937D01*
X134764062Y-92473937D02*
X134764062Y-91688223D01*
X134764062Y-91688223D02*
X134692633Y-91545366D01*
X134692633Y-91545366D02*
X134549776Y-91473937D01*
X134549776Y-91473937D02*
X134335490Y-91473937D01*
X134335490Y-91473937D02*
X134192633Y-91545366D01*
X134192633Y-91545366D02*
X134121204Y-91616794D01*
X135692633Y-92473937D02*
X135549776Y-92402509D01*
X135549776Y-92402509D02*
X135478347Y-92331080D01*
X135478347Y-92331080D02*
X135406919Y-92188223D01*
X135406919Y-92188223D02*
X135406919Y-91759651D01*
X135406919Y-91759651D02*
X135478347Y-91616794D01*
X135478347Y-91616794D02*
X135549776Y-91545366D01*
X135549776Y-91545366D02*
X135692633Y-91473937D01*
X135692633Y-91473937D02*
X135906919Y-91473937D01*
X135906919Y-91473937D02*
X136049776Y-91545366D01*
X136049776Y-91545366D02*
X136121205Y-91616794D01*
X136121205Y-91616794D02*
X136192633Y-91759651D01*
X136192633Y-91759651D02*
X136192633Y-92188223D01*
X136192633Y-92188223D02*
X136121205Y-92331080D01*
X136121205Y-92331080D02*
X136049776Y-92402509D01*
X136049776Y-92402509D02*
X135906919Y-92473937D01*
X135906919Y-92473937D02*
X135692633Y-92473937D01*
X137478348Y-92473937D02*
X137478348Y-90973937D01*
X137478348Y-92402509D02*
X137335490Y-92473937D01*
X137335490Y-92473937D02*
X137049776Y-92473937D01*
X137049776Y-92473937D02*
X136906919Y-92402509D01*
X136906919Y-92402509D02*
X136835490Y-92331080D01*
X136835490Y-92331080D02*
X136764062Y-92188223D01*
X136764062Y-92188223D02*
X136764062Y-91759651D01*
X136764062Y-91759651D02*
X136835490Y-91616794D01*
X136835490Y-91616794D02*
X136906919Y-91545366D01*
X136906919Y-91545366D02*
X137049776Y-91473937D01*
X137049776Y-91473937D02*
X137335490Y-91473937D01*
X137335490Y-91473937D02*
X137478348Y-91545366D01*
X138764062Y-92402509D02*
X138621205Y-92473937D01*
X138621205Y-92473937D02*
X138335491Y-92473937D01*
X138335491Y-92473937D02*
X138192633Y-92402509D01*
X138192633Y-92402509D02*
X138121205Y-92259651D01*
X138121205Y-92259651D02*
X138121205Y-91688223D01*
X138121205Y-91688223D02*
X138192633Y-91545366D01*
X138192633Y-91545366D02*
X138335491Y-91473937D01*
X138335491Y-91473937D02*
X138621205Y-91473937D01*
X138621205Y-91473937D02*
X138764062Y-91545366D01*
X138764062Y-91545366D02*
X138835491Y-91688223D01*
X138835491Y-91688223D02*
X138835491Y-91831080D01*
X138835491Y-91831080D02*
X138121205Y-91973937D01*
D11*
%TO.C,D3*%
X132476880Y-95022599D02*
X133676880Y-95022599D01*
X132476880Y-97022599D02*
X133676880Y-97022599D01*
X133676880Y-95022599D02*
X133676880Y-95422599D01*
X133676880Y-97022599D02*
X133676880Y-96622599D01*
%TO.C,D2*%
X133937480Y-95027679D02*
X133937480Y-95427679D01*
X133937480Y-97027679D02*
X133937480Y-96627679D01*
X135137480Y-95027679D02*
X133937480Y-95027679D01*
X135137480Y-97027679D02*
X133937480Y-97027679D01*
%TO.C,D1*%
X133945100Y-97282760D02*
X133945100Y-97682760D01*
X133945100Y-99282760D02*
X133945100Y-98882760D01*
X135145100Y-97282760D02*
X133945100Y-97282760D01*
X135145100Y-99282760D02*
X133945100Y-99282760D01*
%TO.C,D4*%
X132469300Y-97280659D02*
X133669300Y-97280659D01*
X132469300Y-99280659D02*
X133669300Y-99280659D01*
X133669300Y-97280659D02*
X133669300Y-97680659D01*
X133669300Y-99280659D02*
X133669300Y-98880659D01*
%TD*%
M02*
