%TF.GenerationSoftware,KiCad,Pcbnew,9.0.0*%
%TF.CreationDate,2025-04-15T14:49:33-07:00*%
%TF.ProjectId,LEDBoardBasic,4c454442-6f61-4726-9442-617369632e6b,rev?*%
%TF.SameCoordinates,Original*%
%TF.FileFunction,Copper,L2,Bot*%
%TF.FilePolarity,Positive*%
%FSLAX46Y46*%
G04 Gerber Fmt 4.6, Leading zero omitted, Abs format (unit mm)*
G04 Created by KiCad (PCBNEW 9.0.0) date 2025-04-15 14:49:33*
%MOMM*%
%LPD*%
G01*
G04 APERTURE LIST*
%TA.AperFunction,WasherPad*%
%ADD10C,1.574800*%
%TD*%
%TA.AperFunction,WasherPad*%
%ADD11C,2.413000*%
%TD*%
%TA.AperFunction,ViaPad*%
%ADD12C,0.400000*%
%TD*%
G04 APERTURE END LIST*
D10*
%TO.P,H3,*%
%TO.N,*%
X128250021Y-102611359D03*
%TD*%
%TO.P,H4,*%
%TO.N,*%
X140442021Y-91816359D03*
%TD*%
D11*
%TO.P,H1,*%
%TO.N,*%
X128250021Y-91816359D03*
%TD*%
%TO.P,H2,*%
%TO.N,*%
X140442021Y-102611359D03*
%TD*%
D12*
%TO.N,Net-(D1-K)*%
X135400000Y-94400000D03*
X136400000Y-92800000D03*
X134400000Y-93200000D03*
X132200000Y-93600000D03*
X134400000Y-94800000D03*
X136400000Y-93600000D03*
X133200000Y-95600000D03*
X133200000Y-93200000D03*
X132200000Y-94400000D03*
X134400000Y-98800000D03*
X131200000Y-94400000D03*
X133200000Y-98800000D03*
X135400000Y-92800000D03*
X134400000Y-96400000D03*
X134400000Y-97800000D03*
X133200000Y-97800000D03*
X132200000Y-92800000D03*
X136400000Y-94400000D03*
X133200000Y-94000000D03*
X133200000Y-94800000D03*
X133200000Y-96400000D03*
X133800000Y-97200000D03*
X133800000Y-98400000D03*
X134400000Y-95600000D03*
X134400000Y-94000000D03*
X135400000Y-93600000D03*
X131200000Y-93600000D03*
X133800000Y-96000000D03*
X131200000Y-92800000D03*
%TD*%
%TA.AperFunction,Conductor*%
%TO.N,Net-(D1-K)*%
G36*
X152584560Y-89796544D02*
G01*
X152630315Y-89849348D01*
X152641521Y-89900859D01*
X152641521Y-104272859D01*
X152621836Y-104339898D01*
X152569032Y-104385653D01*
X152517521Y-104396859D01*
X141215440Y-104396859D01*
X141148401Y-104377174D01*
X141102646Y-104324370D01*
X141092702Y-104255212D01*
X141121727Y-104191656D01*
X141167988Y-104158298D01*
X141198619Y-104145610D01*
X141198620Y-104145608D01*
X141198628Y-104145606D01*
X141392414Y-104033723D01*
X141569939Y-103897504D01*
X141728166Y-103739277D01*
X141864385Y-103561752D01*
X141976268Y-103367966D01*
X142061899Y-103161234D01*
X142119814Y-102945093D01*
X142149021Y-102723242D01*
X142149021Y-102499476D01*
X142119814Y-102277625D01*
X142061899Y-102061484D01*
X141976268Y-101854752D01*
X141864385Y-101660966D01*
X141748431Y-101509851D01*
X141728167Y-101483442D01*
X141728161Y-101483435D01*
X141569944Y-101325218D01*
X141569937Y-101325212D01*
X141392422Y-101189001D01*
X141392420Y-101189000D01*
X141392414Y-101188995D01*
X141198628Y-101077112D01*
X141198624Y-101077110D01*
X140991900Y-100991482D01*
X140775751Y-100933565D01*
X140553914Y-100904360D01*
X140553909Y-100904359D01*
X140553904Y-100904359D01*
X140330138Y-100904359D01*
X140330132Y-100904359D01*
X140330127Y-100904360D01*
X140108290Y-100933565D01*
X139892141Y-100991482D01*
X139685417Y-101077110D01*
X139685413Y-101077112D01*
X139491628Y-101188995D01*
X139491619Y-101189001D01*
X139314104Y-101325212D01*
X139314097Y-101325218D01*
X139155880Y-101483435D01*
X139155874Y-101483442D01*
X139019663Y-101660957D01*
X139019657Y-101660966D01*
X138907774Y-101854751D01*
X138907772Y-101854755D01*
X138822144Y-102061479D01*
X138764227Y-102277628D01*
X138735022Y-102499465D01*
X138735021Y-102499482D01*
X138735021Y-102723235D01*
X138735022Y-102723252D01*
X138764227Y-102945089D01*
X138822144Y-103161238D01*
X138873975Y-103286368D01*
X138907774Y-103367966D01*
X139019657Y-103561752D01*
X139019662Y-103561758D01*
X139019663Y-103561760D01*
X139155874Y-103739275D01*
X139155880Y-103739282D01*
X139314097Y-103897499D01*
X139314103Y-103897504D01*
X139491628Y-104033723D01*
X139685414Y-104145606D01*
X139685417Y-104145607D01*
X139685422Y-104145610D01*
X139716054Y-104158298D01*
X139770458Y-104202138D01*
X139792523Y-104268432D01*
X139775244Y-104336132D01*
X139724107Y-104383743D01*
X139668602Y-104396859D01*
X126588521Y-104396859D01*
X126521482Y-104377174D01*
X126475727Y-104324370D01*
X126464521Y-104272859D01*
X126464521Y-102509999D01*
X126962121Y-102509999D01*
X126962121Y-102712718D01*
X126993833Y-102912939D01*
X127056479Y-103105743D01*
X127148513Y-103286368D01*
X127267660Y-103450363D01*
X127411016Y-103593719D01*
X127564477Y-103705213D01*
X127575015Y-103712869D01*
X127755639Y-103804902D01*
X127948437Y-103867546D01*
X128148661Y-103899259D01*
X128148662Y-103899259D01*
X128351380Y-103899259D01*
X128351381Y-103899259D01*
X128551605Y-103867546D01*
X128744403Y-103804902D01*
X128925027Y-103712869D01*
X129017106Y-103645969D01*
X129089025Y-103593719D01*
X129089027Y-103593716D01*
X129089031Y-103593714D01*
X129232376Y-103450369D01*
X129232378Y-103450365D01*
X129232381Y-103450363D01*
X129292248Y-103367962D01*
X129351531Y-103286365D01*
X129443564Y-103105741D01*
X129506208Y-102912943D01*
X129537921Y-102712719D01*
X129537921Y-102509999D01*
X129506208Y-102309775D01*
X129443564Y-102116977D01*
X129351531Y-101936353D01*
X129343875Y-101925815D01*
X129232381Y-101772354D01*
X129089025Y-101628998D01*
X128925030Y-101509851D01*
X128925029Y-101509850D01*
X128925027Y-101509849D01*
X128744403Y-101417816D01*
X128551605Y-101355172D01*
X128551603Y-101355171D01*
X128551601Y-101355171D01*
X128411803Y-101333029D01*
X128351381Y-101323459D01*
X128148661Y-101323459D01*
X128102245Y-101330810D01*
X127948440Y-101355171D01*
X127755636Y-101417817D01*
X127575011Y-101509851D01*
X127411016Y-101628998D01*
X127267660Y-101772354D01*
X127148513Y-101936349D01*
X127056479Y-102116974D01*
X126993833Y-102309778D01*
X126962121Y-102509999D01*
X126464521Y-102509999D01*
X126464521Y-92589778D01*
X126484206Y-92522739D01*
X126537010Y-92476984D01*
X126606168Y-92467040D01*
X126669724Y-92496065D01*
X126703082Y-92542326D01*
X126715769Y-92572957D01*
X126715772Y-92572962D01*
X126715774Y-92572966D01*
X126827657Y-92766752D01*
X126827662Y-92766758D01*
X126827663Y-92766760D01*
X126963874Y-92944275D01*
X126963880Y-92944282D01*
X127122097Y-93102499D01*
X127122103Y-93102504D01*
X127299628Y-93238723D01*
X127493414Y-93350606D01*
X127700146Y-93436237D01*
X127916287Y-93494152D01*
X128138138Y-93523359D01*
X128138145Y-93523359D01*
X128361897Y-93523359D01*
X128361904Y-93523359D01*
X128583755Y-93494152D01*
X128799896Y-93436237D01*
X129006628Y-93350606D01*
X129200414Y-93238723D01*
X129377939Y-93102504D01*
X129536166Y-92944277D01*
X129672385Y-92766752D01*
X129784268Y-92572966D01*
X129869899Y-92366234D01*
X129927814Y-92150093D01*
X129957021Y-91928242D01*
X129957021Y-91714999D01*
X139154121Y-91714999D01*
X139154121Y-91917719D01*
X139185834Y-92117943D01*
X139248478Y-92310741D01*
X139333183Y-92476984D01*
X139340513Y-92491368D01*
X139459660Y-92655363D01*
X139603016Y-92798719D01*
X139756477Y-92910213D01*
X139767015Y-92917869D01*
X139947639Y-93009902D01*
X140140437Y-93072546D01*
X140340661Y-93104259D01*
X140340662Y-93104259D01*
X140543380Y-93104259D01*
X140543381Y-93104259D01*
X140743605Y-93072546D01*
X140936403Y-93009902D01*
X141117027Y-92917869D01*
X141209106Y-92850969D01*
X141281025Y-92798719D01*
X141281027Y-92798716D01*
X141281031Y-92798714D01*
X141424376Y-92655369D01*
X141424378Y-92655365D01*
X141424381Y-92655363D01*
X141506506Y-92542326D01*
X141543531Y-92491365D01*
X141635564Y-92310741D01*
X141698208Y-92117943D01*
X141729921Y-91917719D01*
X141729921Y-91714999D01*
X141698208Y-91514775D01*
X141635564Y-91321977D01*
X141543531Y-91141353D01*
X141535875Y-91130815D01*
X141424381Y-90977354D01*
X141281025Y-90833998D01*
X141117030Y-90714851D01*
X141117029Y-90714850D01*
X141117027Y-90714849D01*
X140936403Y-90622816D01*
X140743605Y-90560172D01*
X140743603Y-90560171D01*
X140743601Y-90560171D01*
X140603803Y-90538029D01*
X140543381Y-90528459D01*
X140340661Y-90528459D01*
X140294245Y-90535810D01*
X140140440Y-90560171D01*
X139947636Y-90622817D01*
X139767011Y-90714851D01*
X139603016Y-90833998D01*
X139459660Y-90977354D01*
X139340513Y-91141349D01*
X139248479Y-91321974D01*
X139185833Y-91514778D01*
X139155789Y-91704465D01*
X139154121Y-91714999D01*
X129957021Y-91714999D01*
X129957021Y-91704476D01*
X129927814Y-91482625D01*
X129869899Y-91266484D01*
X129784268Y-91059752D01*
X129672385Y-90865966D01*
X129556431Y-90714851D01*
X129536167Y-90688442D01*
X129536161Y-90688435D01*
X129377944Y-90530218D01*
X129377937Y-90530212D01*
X129200422Y-90394001D01*
X129200420Y-90394000D01*
X129200414Y-90393995D01*
X129006628Y-90282112D01*
X129006624Y-90282110D01*
X128799900Y-90196482D01*
X128583751Y-90138565D01*
X128361914Y-90109360D01*
X128361909Y-90109359D01*
X128361904Y-90109359D01*
X128138138Y-90109359D01*
X128138132Y-90109359D01*
X128138127Y-90109360D01*
X127916290Y-90138565D01*
X127700141Y-90196482D01*
X127493417Y-90282110D01*
X127493413Y-90282112D01*
X127299628Y-90393995D01*
X127299619Y-90394001D01*
X127122104Y-90530212D01*
X127122097Y-90530218D01*
X126963880Y-90688435D01*
X126963874Y-90688442D01*
X126827663Y-90865957D01*
X126827657Y-90865966D01*
X126715774Y-91059751D01*
X126715771Y-91059756D01*
X126703082Y-91090392D01*
X126659241Y-91144796D01*
X126592946Y-91166860D01*
X126525247Y-91149580D01*
X126477637Y-91098443D01*
X126464521Y-91042939D01*
X126464521Y-89900859D01*
X126484206Y-89833820D01*
X126537010Y-89788065D01*
X126588521Y-89776859D01*
X152517521Y-89776859D01*
X152584560Y-89796544D01*
G37*
%TD.AperFunction*%
%TD*%
M02*
