%TF.GenerationSoftware,KiCad,Pcbnew,9.0.0*%
%TF.CreationDate,2025-04-15T14:49:33-07:00*%
%TF.ProjectId,LEDBoardBasic,4c454442-6f61-4726-9442-617369632e6b,rev?*%
%TF.SameCoordinates,Original*%
%TF.FileFunction,Copper,L1,Top*%
%TF.FilePolarity,Positive*%
%FSLAX46Y46*%
G04 Gerber Fmt 4.6, Leading zero omitted, Abs format (unit mm)*
G04 Created by KiCad (PCBNEW 9.0.0) date 2025-04-15 14:49:33*
%MOMM*%
%LPD*%
G01*
G04 APERTURE LIST*
%TA.AperFunction,SMDPad,CuDef*%
%ADD10R,0.650000X1.600000*%
%TD*%
%TA.AperFunction,SMDPad,CuDef*%
%ADD11R,2.641600X0.838200*%
%TD*%
%TA.AperFunction,SMDPad,CuDef*%
%ADD12R,3.556000X0.838200*%
%TD*%
%TA.AperFunction,WasherPad*%
%ADD13C,1.574800*%
%TD*%
%TA.AperFunction,WasherPad*%
%ADD14C,2.413000*%
%TD*%
%TA.AperFunction,ViaPad*%
%ADD15C,0.400000*%
%TD*%
G04 APERTURE END LIST*
D10*
%TO.P,D3,1,K*%
%TO.N,Net-(D1-K)*%
X133151880Y-96022599D03*
%TO.P,D3,2,A*%
%TO.N,Net-(D3-A)*%
X132201880Y-96022599D03*
%TD*%
D11*
%TO.P,J1,1_1,1_1*%
%TO.N,Net-(D3-A)*%
X147032221Y-103788159D03*
D12*
%TO.P,J1,1_2,1_2*%
X150932221Y-103788159D03*
D11*
%TO.P,J1,2_1,2_1*%
X147032221Y-102288160D03*
D12*
%TO.P,J1,2_2,2_2*%
X150932221Y-102288160D03*
D11*
%TO.P,J1,3_1,3_1*%
%TO.N,Net-(D1-A)*%
X147032221Y-100788160D03*
D12*
%TO.P,J1,3_2,3_2*%
X150932221Y-100788160D03*
D11*
%TO.P,J1,4_1,4_1*%
X147032221Y-99288161D03*
D12*
%TO.P,J1,4_2,4_2*%
X150932221Y-99288161D03*
D11*
%TO.P,J1,5_1,5_1*%
X147032221Y-97788161D03*
D12*
%TO.P,J1,5_2,5_2*%
X150932221Y-97788161D03*
D11*
%TO.P,J1,6_1,6_1*%
%TO.N,Net-(D1-K)*%
X147032221Y-96288162D03*
D12*
%TO.P,J1,6_2,6_2*%
X150932221Y-96288162D03*
D11*
%TO.P,J1,7_1,7_1*%
X147032221Y-94788159D03*
D12*
%TO.P,J1,7_2,7_2*%
X150932221Y-94788159D03*
D11*
%TO.P,J1,8_1,8_1*%
X147032221Y-93288160D03*
D12*
%TO.P,J1,8_2,8_2*%
X150932221Y-93288160D03*
D11*
%TO.P,J1,9_1,9_1*%
X147032221Y-91788160D03*
D12*
%TO.P,J1,9_2,9_2*%
X150932221Y-91788160D03*
D11*
%TO.P,J1,10_1,10_1*%
X147032221Y-90288161D03*
D12*
%TO.P,J1,10_2,10_2*%
X150932221Y-90288161D03*
%TD*%
D13*
%TO.P,H3,*%
%TO.N,*%
X128250021Y-102611359D03*
%TD*%
%TO.P,H4,*%
%TO.N,*%
X140442021Y-91816359D03*
%TD*%
D10*
%TO.P,D2,1,K*%
%TO.N,Net-(D1-K)*%
X134462480Y-96027679D03*
%TO.P,D2,2,A*%
%TO.N,Net-(D1-A)*%
X135412480Y-96027679D03*
%TD*%
D14*
%TO.P,H1,*%
%TO.N,*%
X128250021Y-91816359D03*
%TD*%
D10*
%TO.P,D1,1,K*%
%TO.N,Net-(D1-K)*%
X134470100Y-98282760D03*
%TO.P,D1,2,A*%
%TO.N,Net-(D1-A)*%
X135420100Y-98282760D03*
%TD*%
%TO.P,D4,1,K*%
%TO.N,Net-(D1-K)*%
X133144300Y-98280659D03*
%TO.P,D4,2,A*%
%TO.N,Net-(D3-A)*%
X132194300Y-98280659D03*
%TD*%
D14*
%TO.P,H2,*%
%TO.N,*%
X140442021Y-102611359D03*
%TD*%
D15*
%TO.N,Net-(D1-K)*%
X135400000Y-94400000D03*
X136400000Y-92800000D03*
X134400000Y-93200000D03*
X132200000Y-93600000D03*
X134400000Y-94800000D03*
X136400000Y-93600000D03*
X133200000Y-95600000D03*
X133200000Y-93200000D03*
X132200000Y-94400000D03*
X134400000Y-98800000D03*
X131200000Y-94400000D03*
X133200000Y-98800000D03*
X135400000Y-92800000D03*
X134400000Y-96400000D03*
X134400000Y-97800000D03*
X133200000Y-97800000D03*
X132200000Y-92800000D03*
X136400000Y-94400000D03*
X133200000Y-94000000D03*
X133200000Y-94800000D03*
X133200000Y-96400000D03*
X133800000Y-97200000D03*
X133800000Y-98400000D03*
X134400000Y-95600000D03*
X134400000Y-94000000D03*
X135400000Y-93600000D03*
X131200000Y-93600000D03*
X133800000Y-96000000D03*
X131200000Y-92800000D03*
%TD*%
%TA.AperFunction,Conductor*%
%TO.N,Net-(D1-A)*%
G36*
X136090676Y-95341480D02*
G01*
X136756177Y-95341480D01*
X136779850Y-95343980D01*
X141454481Y-96342800D01*
X141454622Y-96342830D01*
X141455564Y-96343037D01*
X141455687Y-96343065D01*
X141455688Y-96343065D01*
X141455715Y-96343071D01*
X145312917Y-97190972D01*
X145415082Y-97202126D01*
X145474021Y-97226654D01*
X145510345Y-97279154D01*
X145513908Y-97336856D01*
X145511421Y-97349357D01*
X145511421Y-97369061D01*
X148565536Y-97369061D01*
X148593993Y-97353521D01*
X148634204Y-97352084D01*
X148677021Y-97358240D01*
X148677023Y-97358240D01*
X148830229Y-97358240D01*
X148869766Y-97355411D01*
X148884234Y-97354377D01*
X148946616Y-97367946D01*
X148948105Y-97369061D01*
X150818921Y-97369061D01*
X150880176Y-97387047D01*
X150921982Y-97435294D01*
X150932221Y-97482361D01*
X150932221Y-97788161D01*
X151238021Y-97788161D01*
X151299276Y-97806147D01*
X151341082Y-97854394D01*
X151351321Y-97901461D01*
X151351321Y-98407261D01*
X152528221Y-98407261D01*
X152536157Y-98409591D01*
X152544345Y-98408414D01*
X152566307Y-98418444D01*
X152589476Y-98425247D01*
X152594893Y-98431499D01*
X152602417Y-98434935D01*
X152615470Y-98455246D01*
X152631282Y-98473494D01*
X152633372Y-98483101D01*
X152636932Y-98488641D01*
X152641521Y-98520561D01*
X152641521Y-98555761D01*
X152623535Y-98617016D01*
X152575288Y-98658822D01*
X152528221Y-98669061D01*
X151351321Y-98669061D01*
X151351321Y-99907261D01*
X152528221Y-99907261D01*
X152536157Y-99909591D01*
X152544345Y-99908414D01*
X152566307Y-99918444D01*
X152589476Y-99925247D01*
X152594893Y-99931499D01*
X152602417Y-99934935D01*
X152615470Y-99955246D01*
X152631282Y-99973494D01*
X152633372Y-99983101D01*
X152636932Y-99988641D01*
X152641521Y-100020561D01*
X152641521Y-100055760D01*
X152623535Y-100117015D01*
X152575288Y-100158821D01*
X152528221Y-100169060D01*
X151351321Y-100169060D01*
X151351321Y-100674860D01*
X151333335Y-100736115D01*
X151285088Y-100777921D01*
X151238021Y-100788160D01*
X150932221Y-100788160D01*
X150932221Y-101093960D01*
X150914235Y-101155215D01*
X150865988Y-101197021D01*
X150818921Y-101207260D01*
X148954221Y-101207260D01*
X148954221Y-101226963D01*
X148962674Y-101269456D01*
X148960958Y-101288629D01*
X148963698Y-101307683D01*
X148958170Y-101319787D01*
X148956984Y-101333042D01*
X148945173Y-101348245D01*
X148937177Y-101365755D01*
X148925982Y-101372949D01*
X148917819Y-101383458D01*
X148899665Y-101389862D01*
X148883471Y-101400270D01*
X148861010Y-101403498D01*
X148857615Y-101404697D01*
X148851551Y-101404859D01*
X148655691Y-101404859D01*
X148594436Y-101386873D01*
X148552630Y-101338626D01*
X148543544Y-101275435D01*
X148544568Y-101269456D01*
X148553020Y-101226963D01*
X148553021Y-101226953D01*
X148553021Y-101207260D01*
X145511421Y-101207260D01*
X145511421Y-101226963D01*
X145519874Y-101269456D01*
X145514184Y-101333042D01*
X145475019Y-101383458D01*
X145414815Y-101404697D01*
X145408751Y-101404859D01*
X144695861Y-101404859D01*
X144634606Y-101386873D01*
X144628352Y-101382550D01*
X144605715Y-101365755D01*
X143235789Y-100349358D01*
X145511421Y-100349358D01*
X145511421Y-100369060D01*
X146613121Y-100369060D01*
X147451321Y-100369060D01*
X148553021Y-100369060D01*
X148553021Y-100349366D01*
X148553020Y-100349358D01*
X148954221Y-100349358D01*
X148954221Y-100369060D01*
X150513121Y-100369060D01*
X150513121Y-100169060D01*
X149134519Y-100169060D01*
X149076186Y-100180663D01*
X149076184Y-100180664D01*
X149010029Y-100224868D01*
X148965825Y-100291023D01*
X148965824Y-100291025D01*
X148954221Y-100349358D01*
X148553020Y-100349358D01*
X148541417Y-100291025D01*
X148541416Y-100291023D01*
X148497212Y-100224868D01*
X148431057Y-100180664D01*
X148431055Y-100180663D01*
X148372722Y-100169060D01*
X147451321Y-100169060D01*
X147451321Y-100369060D01*
X146613121Y-100369060D01*
X146613121Y-100169060D01*
X145691719Y-100169060D01*
X145633386Y-100180663D01*
X145633384Y-100180664D01*
X145567229Y-100224868D01*
X145523025Y-100291023D01*
X145523024Y-100291025D01*
X145511421Y-100349358D01*
X143235789Y-100349358D01*
X142475533Y-99785297D01*
X142429741Y-99751322D01*
X142429739Y-99751320D01*
X142396909Y-99726962D01*
X145511421Y-99726962D01*
X145523024Y-99785295D01*
X145523025Y-99785297D01*
X145567229Y-99851452D01*
X145633384Y-99895656D01*
X145633386Y-99895657D01*
X145691719Y-99907260D01*
X145691727Y-99907261D01*
X146613121Y-99907261D01*
X147451321Y-99907261D01*
X148372715Y-99907261D01*
X148372722Y-99907260D01*
X148431055Y-99895657D01*
X148431057Y-99895656D01*
X148497212Y-99851452D01*
X148541416Y-99785297D01*
X148541417Y-99785295D01*
X148553020Y-99726962D01*
X148954221Y-99726962D01*
X148965824Y-99785295D01*
X148965825Y-99785297D01*
X149010029Y-99851452D01*
X149076184Y-99895656D01*
X149076186Y-99895657D01*
X149134519Y-99907260D01*
X149134527Y-99907261D01*
X150513121Y-99907261D01*
X150513121Y-99707261D01*
X148954221Y-99707261D01*
X148954221Y-99726962D01*
X148553020Y-99726962D01*
X148553021Y-99726954D01*
X148553021Y-99707261D01*
X147451321Y-99707261D01*
X147451321Y-99907261D01*
X146613121Y-99907261D01*
X146613121Y-99707261D01*
X145511421Y-99707261D01*
X145511421Y-99726962D01*
X142396909Y-99726962D01*
X141508823Y-99068059D01*
X141508821Y-99068059D01*
X136058400Y-99068059D01*
X136050463Y-99065728D01*
X136042276Y-99066906D01*
X136020313Y-99056875D01*
X135997145Y-99050073D01*
X135991727Y-99043820D01*
X135984204Y-99040385D01*
X135971150Y-99020073D01*
X135955339Y-99001826D01*
X135953248Y-98992218D01*
X135949689Y-98986679D01*
X135945100Y-98954759D01*
X135945100Y-98849359D01*
X145511421Y-98849359D01*
X145511421Y-98869061D01*
X146613121Y-98869061D01*
X147451321Y-98869061D01*
X148553021Y-98869061D01*
X148553021Y-98849367D01*
X148553020Y-98849359D01*
X148954221Y-98849359D01*
X148954221Y-98869061D01*
X150513121Y-98869061D01*
X150513121Y-98669061D01*
X149134519Y-98669061D01*
X149076186Y-98680664D01*
X149076184Y-98680665D01*
X149010029Y-98724869D01*
X148965825Y-98791024D01*
X148965824Y-98791026D01*
X148954221Y-98849359D01*
X148553020Y-98849359D01*
X148541417Y-98791026D01*
X148541416Y-98791024D01*
X148497212Y-98724869D01*
X148431057Y-98680665D01*
X148431055Y-98680664D01*
X148372722Y-98669061D01*
X147451321Y-98669061D01*
X147451321Y-98869061D01*
X146613121Y-98869061D01*
X146613121Y-98669061D01*
X145691719Y-98669061D01*
X145633386Y-98680664D01*
X145633384Y-98680665D01*
X145567229Y-98724869D01*
X145523025Y-98791024D01*
X145523024Y-98791026D01*
X145511421Y-98849359D01*
X135945100Y-98849359D01*
X135945100Y-98607760D01*
X135533400Y-98607760D01*
X135472145Y-98589774D01*
X135430339Y-98541527D01*
X135420100Y-98494460D01*
X135420100Y-98282760D01*
X135408899Y-98282760D01*
X135400962Y-98280429D01*
X135392775Y-98281607D01*
X135370812Y-98271576D01*
X135347644Y-98264774D01*
X135342226Y-98258521D01*
X135334703Y-98255086D01*
X135321649Y-98234774D01*
X135314880Y-98226962D01*
X145511421Y-98226962D01*
X145523024Y-98285295D01*
X145523025Y-98285297D01*
X145567229Y-98351452D01*
X145633384Y-98395656D01*
X145633386Y-98395657D01*
X145691719Y-98407260D01*
X145691727Y-98407261D01*
X146613121Y-98407261D01*
X147451321Y-98407261D01*
X148372715Y-98407261D01*
X148372722Y-98407260D01*
X148431055Y-98395657D01*
X148431057Y-98395656D01*
X148497212Y-98351452D01*
X148541416Y-98285297D01*
X148541417Y-98285295D01*
X148553020Y-98226962D01*
X148954221Y-98226962D01*
X148965824Y-98285295D01*
X148965825Y-98285297D01*
X149010029Y-98351452D01*
X149076184Y-98395656D01*
X149076186Y-98395657D01*
X149134519Y-98407260D01*
X149134527Y-98407261D01*
X150513121Y-98407261D01*
X150513121Y-98207261D01*
X148954221Y-98207261D01*
X148954221Y-98226962D01*
X148553020Y-98226962D01*
X148553021Y-98226954D01*
X148553021Y-98207261D01*
X147451321Y-98207261D01*
X147451321Y-98407261D01*
X146613121Y-98407261D01*
X146613121Y-98207261D01*
X145511421Y-98207261D01*
X145511421Y-98226962D01*
X135314880Y-98226962D01*
X135305838Y-98216527D01*
X135303747Y-98206919D01*
X135300188Y-98201380D01*
X135295599Y-98169460D01*
X135295599Y-97957760D01*
X135745100Y-97957760D01*
X135945100Y-97957760D01*
X135945100Y-97463066D01*
X135945099Y-97463058D01*
X135933496Y-97404725D01*
X135933495Y-97404723D01*
X135889291Y-97338568D01*
X135823136Y-97294364D01*
X135823134Y-97294363D01*
X135764801Y-97282760D01*
X135745100Y-97282760D01*
X135745100Y-97957760D01*
X135295599Y-97957760D01*
X135295599Y-97434891D01*
X135295599Y-97434888D01*
X135289191Y-97375277D01*
X135289190Y-97375275D01*
X135289190Y-97375272D01*
X135289189Y-97375270D01*
X135254508Y-97282287D01*
X135238896Y-97240429D01*
X135216797Y-97210908D01*
X135212649Y-97203057D01*
X135207990Y-97180130D01*
X135199816Y-97158215D01*
X135201740Y-97149369D01*
X135199937Y-97140495D01*
X135208413Y-97118688D01*
X135213385Y-97095833D01*
X135222129Y-97082228D01*
X135231276Y-97070010D01*
X135247064Y-97027679D01*
X135737480Y-97027679D01*
X135757174Y-97027679D01*
X135757181Y-97027678D01*
X135815514Y-97016075D01*
X135815516Y-97016074D01*
X135881671Y-96971870D01*
X135925875Y-96905715D01*
X135925876Y-96905713D01*
X135937479Y-96847380D01*
X135937480Y-96847372D01*
X135937480Y-96352679D01*
X135737480Y-96352679D01*
X135737480Y-97027679D01*
X135247064Y-97027679D01*
X135281571Y-96935162D01*
X135287980Y-96875552D01*
X135287979Y-96140977D01*
X135305965Y-96079724D01*
X135354212Y-96037918D01*
X135401279Y-96027679D01*
X135412480Y-96027679D01*
X135412480Y-95815979D01*
X135430466Y-95754724D01*
X135478713Y-95712918D01*
X135525780Y-95702679D01*
X135937480Y-95702679D01*
X135937480Y-95450209D01*
X135955466Y-95388954D01*
X136003713Y-95347148D01*
X136066903Y-95338062D01*
X136090676Y-95341480D01*
G37*
%TD.AperFunction*%
%TD*%
%TA.AperFunction,Conductor*%
%TO.N,Net-(D1-K)*%
G36*
X145454460Y-89796544D02*
G01*
X145500215Y-89849348D01*
X145507890Y-89884630D01*
X145511421Y-89888161D01*
X148553021Y-89888161D01*
X148554746Y-89886435D01*
X148554283Y-89883212D01*
X148565261Y-89859171D01*
X148572706Y-89833820D01*
X148579546Y-89827892D01*
X148583308Y-89819656D01*
X148605542Y-89805366D01*
X148625510Y-89788065D01*
X148636024Y-89785777D01*
X148642086Y-89781882D01*
X148677021Y-89776859D01*
X148830221Y-89776859D01*
X148897260Y-89796544D01*
X148943015Y-89849348D01*
X148950690Y-89884630D01*
X148954221Y-89888161D01*
X150808221Y-89888161D01*
X150875260Y-89907846D01*
X150921015Y-89960650D01*
X150932221Y-90012161D01*
X150932221Y-90288161D01*
X151208221Y-90288161D01*
X151275260Y-90307846D01*
X151321015Y-90360650D01*
X151332221Y-90412161D01*
X151332221Y-90907261D01*
X152517521Y-90907261D01*
X152526206Y-90909811D01*
X152535168Y-90908523D01*
X152559208Y-90919501D01*
X152584560Y-90926946D01*
X152590487Y-90933786D01*
X152598724Y-90937548D01*
X152613013Y-90959782D01*
X152630315Y-90979750D01*
X152632602Y-90990264D01*
X152636498Y-90996326D01*
X152641521Y-91031261D01*
X152641521Y-91045060D01*
X152621836Y-91112099D01*
X152569032Y-91157854D01*
X152517521Y-91169060D01*
X151332221Y-91169060D01*
X151332221Y-92407260D01*
X152517521Y-92407260D01*
X152526206Y-92409810D01*
X152535168Y-92408522D01*
X152559208Y-92419500D01*
X152584560Y-92426945D01*
X152590487Y-92433785D01*
X152598724Y-92437547D01*
X152613013Y-92459781D01*
X152630315Y-92479749D01*
X152632602Y-92490263D01*
X152636498Y-92496325D01*
X152641521Y-92531260D01*
X152641521Y-92545060D01*
X152621836Y-92612099D01*
X152569032Y-92657854D01*
X152517521Y-92669060D01*
X151332221Y-92669060D01*
X151332221Y-93907260D01*
X152517521Y-93907260D01*
X152526206Y-93909810D01*
X152535168Y-93908522D01*
X152559208Y-93919500D01*
X152584560Y-93926945D01*
X152590487Y-93933785D01*
X152598724Y-93937547D01*
X152613013Y-93959781D01*
X152630315Y-93979749D01*
X152632602Y-93990263D01*
X152636498Y-93996325D01*
X152641521Y-94031260D01*
X152641521Y-94045059D01*
X152621836Y-94112098D01*
X152569032Y-94157853D01*
X152517521Y-94169059D01*
X151332221Y-94169059D01*
X151332221Y-95407259D01*
X152517521Y-95407259D01*
X152526206Y-95409809D01*
X152535168Y-95408521D01*
X152559208Y-95419499D01*
X152584560Y-95426944D01*
X152590487Y-95433784D01*
X152598724Y-95437546D01*
X152613013Y-95459780D01*
X152630315Y-95479748D01*
X152632602Y-95490262D01*
X152636498Y-95496324D01*
X152641521Y-95531259D01*
X152641521Y-95545062D01*
X152621836Y-95612101D01*
X152569032Y-95657856D01*
X152517521Y-95669062D01*
X151332221Y-95669062D01*
X151332221Y-96164162D01*
X151312536Y-96231201D01*
X151259732Y-96276956D01*
X151208221Y-96288162D01*
X150932221Y-96288162D01*
X150932221Y-96564162D01*
X150912536Y-96631201D01*
X150859732Y-96676956D01*
X150808221Y-96688162D01*
X148954221Y-96688162D01*
X148954221Y-96728740D01*
X148951670Y-96737425D01*
X148952959Y-96746387D01*
X148941980Y-96770427D01*
X148934536Y-96795779D01*
X148927695Y-96801706D01*
X148923934Y-96809943D01*
X148901699Y-96824232D01*
X148881732Y-96841534D01*
X148871217Y-96843821D01*
X148865156Y-96847717D01*
X148830221Y-96852740D01*
X148677021Y-96852740D01*
X148609982Y-96833055D01*
X148564227Y-96780251D01*
X148553021Y-96728740D01*
X148553021Y-96688162D01*
X145491193Y-96688162D01*
X145474421Y-96697319D01*
X145421446Y-96697260D01*
X142087488Y-95964380D01*
X141564244Y-95849359D01*
X145511421Y-95849359D01*
X145511421Y-95888162D01*
X146632221Y-95888162D01*
X147432221Y-95888162D01*
X148553021Y-95888162D01*
X148553021Y-95849363D01*
X148553020Y-95849359D01*
X148954221Y-95849359D01*
X148954221Y-95888162D01*
X150532221Y-95888162D01*
X150532221Y-95669062D01*
X149134518Y-95669062D01*
X149076187Y-95680664D01*
X149076186Y-95680665D01*
X149010029Y-95724870D01*
X148965824Y-95791027D01*
X148965823Y-95791028D01*
X148954221Y-95849359D01*
X148553020Y-95849359D01*
X148541418Y-95791028D01*
X148541417Y-95791027D01*
X148497212Y-95724870D01*
X148431055Y-95680665D01*
X148431054Y-95680664D01*
X148372723Y-95669062D01*
X147432221Y-95669062D01*
X147432221Y-95888162D01*
X146632221Y-95888162D01*
X146632221Y-95669062D01*
X145691718Y-95669062D01*
X145633387Y-95680664D01*
X145633386Y-95680665D01*
X145567229Y-95724870D01*
X145523024Y-95791027D01*
X145523023Y-95791028D01*
X145511421Y-95849359D01*
X141564244Y-95849359D01*
X138873650Y-95257905D01*
X138732882Y-95226961D01*
X145511421Y-95226961D01*
X145523023Y-95285292D01*
X145523024Y-95285293D01*
X145567229Y-95351450D01*
X145633386Y-95395655D01*
X145633387Y-95395656D01*
X145691718Y-95407258D01*
X145691722Y-95407259D01*
X146632221Y-95407259D01*
X147432221Y-95407259D01*
X148372720Y-95407259D01*
X148372723Y-95407258D01*
X148431054Y-95395656D01*
X148431055Y-95395655D01*
X148497212Y-95351450D01*
X148541417Y-95285293D01*
X148541418Y-95285292D01*
X148553020Y-95226961D01*
X148954221Y-95226961D01*
X148965823Y-95285292D01*
X148965824Y-95285293D01*
X149010029Y-95351450D01*
X149076186Y-95395655D01*
X149076187Y-95395656D01*
X149134518Y-95407258D01*
X149134522Y-95407259D01*
X150532221Y-95407259D01*
X150532221Y-95188159D01*
X148954221Y-95188159D01*
X148954221Y-95226961D01*
X148553020Y-95226961D01*
X148553021Y-95226958D01*
X148553021Y-95188159D01*
X147432221Y-95188159D01*
X147432221Y-95407259D01*
X146632221Y-95407259D01*
X146632221Y-95188159D01*
X145511421Y-95188159D01*
X145511421Y-95226961D01*
X138732882Y-95226961D01*
X136954264Y-94835980D01*
X136954260Y-94835980D01*
X136090676Y-94835980D01*
X136023637Y-94816295D01*
X136016366Y-94811247D01*
X135979814Y-94783885D01*
X135979808Y-94783881D01*
X135844966Y-94733589D01*
X135844965Y-94733588D01*
X135844963Y-94733588D01*
X135785353Y-94727179D01*
X135785343Y-94727179D01*
X135039609Y-94727179D01*
X135039603Y-94727180D01*
X134979996Y-94733587D01*
X134845151Y-94783881D01*
X134845144Y-94783885D01*
X134729935Y-94870131D01*
X134729932Y-94870134D01*
X134643686Y-94985343D01*
X134643682Y-94985350D01*
X134593388Y-95120196D01*
X134587526Y-95174726D01*
X134586980Y-95179806D01*
X134586980Y-95964380D01*
X134586981Y-96027679D01*
X134586981Y-96875555D01*
X134593388Y-96935162D01*
X134643682Y-97070007D01*
X134643685Y-97070013D01*
X134655653Y-97086000D01*
X134680069Y-97151465D01*
X134665216Y-97219737D01*
X134655657Y-97234613D01*
X134651306Y-97240425D01*
X134651302Y-97240432D01*
X134601008Y-97375277D01*
X134594601Y-97434876D01*
X134594600Y-97434887D01*
X134594600Y-98158761D01*
X134574917Y-98225799D01*
X134522113Y-98271554D01*
X134470601Y-98282760D01*
X134470100Y-98282760D01*
X134470100Y-98483760D01*
X134450415Y-98550799D01*
X134397611Y-98596554D01*
X134346100Y-98607760D01*
X133945100Y-98607760D01*
X133945100Y-99065540D01*
X133942549Y-99074225D01*
X133943838Y-99083187D01*
X133932859Y-99107227D01*
X133925415Y-99132579D01*
X133918574Y-99138506D01*
X133914813Y-99146743D01*
X133892578Y-99161032D01*
X133872611Y-99178334D01*
X133862096Y-99180621D01*
X133856035Y-99184517D01*
X133821100Y-99189540D01*
X133793300Y-99189540D01*
X133726261Y-99169855D01*
X133680506Y-99117051D01*
X133669300Y-99065540D01*
X133669300Y-98605659D01*
X133268300Y-98605659D01*
X133201261Y-98585974D01*
X133155506Y-98533170D01*
X133144300Y-98481659D01*
X133144300Y-98280659D01*
X133143799Y-98280659D01*
X133076760Y-98260974D01*
X133031005Y-98208170D01*
X133019799Y-98156659D01*
X133019799Y-97955659D01*
X133469300Y-97955659D01*
X133669300Y-97955659D01*
X133669300Y-97463057D01*
X133945100Y-97463057D01*
X133945100Y-97957760D01*
X134145100Y-97957760D01*
X134145100Y-97282760D01*
X134125397Y-97282760D01*
X134067066Y-97294362D01*
X134067065Y-97294363D01*
X134000908Y-97338568D01*
X133956703Y-97404725D01*
X133956702Y-97404726D01*
X133945100Y-97463057D01*
X133669300Y-97463057D01*
X133669300Y-97460960D01*
X133669299Y-97460956D01*
X133657697Y-97402625D01*
X133657696Y-97402624D01*
X133613491Y-97336467D01*
X133547334Y-97292262D01*
X133547333Y-97292261D01*
X133489002Y-97280659D01*
X133469300Y-97280659D01*
X133469300Y-97955659D01*
X133019799Y-97955659D01*
X133019799Y-97432788D01*
X133019798Y-97432782D01*
X133016782Y-97404726D01*
X133013391Y-97373176D01*
X132999699Y-97336467D01*
X132977935Y-97278113D01*
X132977934Y-97278111D01*
X132963096Y-97238328D01*
X132950483Y-97221479D01*
X132945296Y-97210778D01*
X132941414Y-97187580D01*
X132933194Y-97165542D01*
X132935756Y-97153759D01*
X132933767Y-97141866D01*
X132943045Y-97120250D01*
X132948044Y-97097268D01*
X132957605Y-97082390D01*
X132970676Y-97064930D01*
X132986464Y-97022599D01*
X133476880Y-97022599D01*
X133496579Y-97022599D01*
X133496582Y-97022598D01*
X133554913Y-97010996D01*
X133554914Y-97010995D01*
X133621071Y-96966790D01*
X133665276Y-96900633D01*
X133665277Y-96900632D01*
X133675869Y-96847381D01*
X133937480Y-96847381D01*
X133949082Y-96905712D01*
X133949083Y-96905713D01*
X133993288Y-96971870D01*
X134059445Y-97016075D01*
X134059446Y-97016076D01*
X134117777Y-97027678D01*
X134117781Y-97027679D01*
X134137480Y-97027679D01*
X134137480Y-96352679D01*
X133937480Y-96352679D01*
X133937480Y-96847381D01*
X133675869Y-96847381D01*
X133676879Y-96842301D01*
X133676880Y-96842298D01*
X133676880Y-96347599D01*
X133476880Y-96347599D01*
X133476880Y-97022599D01*
X132986464Y-97022599D01*
X133020971Y-96930082D01*
X133027380Y-96870472D01*
X133027379Y-95697599D01*
X133476880Y-95697599D01*
X133676880Y-95697599D01*
X133676880Y-95207976D01*
X133937480Y-95207976D01*
X133937480Y-95702679D01*
X134137480Y-95702679D01*
X134137480Y-95027679D01*
X134117777Y-95027679D01*
X134059446Y-95039281D01*
X134059445Y-95039282D01*
X133993288Y-95083487D01*
X133949083Y-95149644D01*
X133949082Y-95149645D01*
X133937480Y-95207976D01*
X133676880Y-95207976D01*
X133676880Y-95202900D01*
X133676879Y-95202896D01*
X133665277Y-95144565D01*
X133665276Y-95144564D01*
X133621071Y-95078407D01*
X133554914Y-95034202D01*
X133554913Y-95034201D01*
X133496582Y-95022599D01*
X133476880Y-95022599D01*
X133476880Y-95697599D01*
X133027379Y-95697599D01*
X133027379Y-95174727D01*
X133020971Y-95115116D01*
X133007279Y-95078407D01*
X132983470Y-95014570D01*
X132983469Y-95014568D01*
X132970678Y-94980272D01*
X132970673Y-94980263D01*
X132884427Y-94865054D01*
X132884424Y-94865051D01*
X132769215Y-94778805D01*
X132769208Y-94778801D01*
X132634366Y-94728509D01*
X132634365Y-94728508D01*
X132634363Y-94728508D01*
X132574753Y-94722099D01*
X132574743Y-94722099D01*
X131829009Y-94722099D01*
X131829003Y-94722100D01*
X131769396Y-94728507D01*
X131634551Y-94778801D01*
X131634549Y-94778802D01*
X131589416Y-94812588D01*
X131523951Y-94837004D01*
X131515250Y-94837320D01*
X126588664Y-94843006D01*
X126521602Y-94823399D01*
X126475786Y-94770648D01*
X126464521Y-94719006D01*
X126464521Y-94349356D01*
X145511421Y-94349356D01*
X145511421Y-94388159D01*
X146632221Y-94388159D01*
X147432221Y-94388159D01*
X148553021Y-94388159D01*
X148553021Y-94349360D01*
X148553020Y-94349356D01*
X148954221Y-94349356D01*
X148954221Y-94388159D01*
X150532221Y-94388159D01*
X150532221Y-94169059D01*
X149134518Y-94169059D01*
X149076187Y-94180661D01*
X149076186Y-94180662D01*
X149010029Y-94224867D01*
X148965824Y-94291024D01*
X148965823Y-94291025D01*
X148954221Y-94349356D01*
X148553020Y-94349356D01*
X148541418Y-94291025D01*
X148541417Y-94291024D01*
X148497212Y-94224867D01*
X148431055Y-94180662D01*
X148431054Y-94180661D01*
X148372723Y-94169059D01*
X147432221Y-94169059D01*
X147432221Y-94388159D01*
X146632221Y-94388159D01*
X146632221Y-94169059D01*
X145691718Y-94169059D01*
X145633387Y-94180661D01*
X145633386Y-94180662D01*
X145567229Y-94224867D01*
X145523024Y-94291024D01*
X145523023Y-94291025D01*
X145511421Y-94349356D01*
X126464521Y-94349356D01*
X126464521Y-93726962D01*
X145511421Y-93726962D01*
X145523023Y-93785293D01*
X145523024Y-93785294D01*
X145567229Y-93851451D01*
X145633386Y-93895656D01*
X145633387Y-93895657D01*
X145691718Y-93907259D01*
X145691722Y-93907260D01*
X146632221Y-93907260D01*
X147432221Y-93907260D01*
X148372720Y-93907260D01*
X148372723Y-93907259D01*
X148431054Y-93895657D01*
X148431055Y-93895656D01*
X148497212Y-93851451D01*
X148541417Y-93785294D01*
X148541418Y-93785293D01*
X148553020Y-93726962D01*
X148954221Y-93726962D01*
X148965823Y-93785293D01*
X148965824Y-93785294D01*
X149010029Y-93851451D01*
X149076186Y-93895656D01*
X149076187Y-93895657D01*
X149134518Y-93907259D01*
X149134522Y-93907260D01*
X150532221Y-93907260D01*
X150532221Y-93688160D01*
X148954221Y-93688160D01*
X148954221Y-93726962D01*
X148553020Y-93726962D01*
X148553021Y-93726959D01*
X148553021Y-93688160D01*
X147432221Y-93688160D01*
X147432221Y-93907260D01*
X146632221Y-93907260D01*
X146632221Y-93688160D01*
X145511421Y-93688160D01*
X145511421Y-93726962D01*
X126464521Y-93726962D01*
X126464521Y-92589778D01*
X126484206Y-92522739D01*
X126537010Y-92476984D01*
X126606168Y-92467040D01*
X126669724Y-92496065D01*
X126703082Y-92542326D01*
X126715769Y-92572957D01*
X126715772Y-92572962D01*
X126715774Y-92572966D01*
X126827657Y-92766752D01*
X126827662Y-92766758D01*
X126827663Y-92766760D01*
X126963874Y-92944275D01*
X126963880Y-92944282D01*
X127122097Y-93102499D01*
X127122103Y-93102504D01*
X127299628Y-93238723D01*
X127493414Y-93350606D01*
X127700146Y-93436237D01*
X127916287Y-93494152D01*
X128138138Y-93523359D01*
X128138145Y-93523359D01*
X128361897Y-93523359D01*
X128361904Y-93523359D01*
X128424985Y-93515054D01*
X128434065Y-93513859D01*
X128457628Y-93510756D01*
X128583755Y-93494152D01*
X128799896Y-93436237D01*
X129006628Y-93350606D01*
X129200414Y-93238723D01*
X129377939Y-93102504D01*
X129536166Y-92944277D01*
X129672385Y-92766752D01*
X129784268Y-92572966D01*
X129869899Y-92366234D01*
X129927814Y-92150093D01*
X129957021Y-91928242D01*
X129957021Y-91714999D01*
X139154121Y-91714999D01*
X139154121Y-91917719D01*
X139185834Y-92117943D01*
X139248478Y-92310741D01*
X139334592Y-92479749D01*
X139340513Y-92491368D01*
X139459660Y-92655363D01*
X139603016Y-92798719D01*
X139756477Y-92910213D01*
X139767015Y-92917869D01*
X139947639Y-93009902D01*
X140140437Y-93072546D01*
X140340661Y-93104259D01*
X140340662Y-93104259D01*
X140543380Y-93104259D01*
X140543381Y-93104259D01*
X140743605Y-93072546D01*
X140936403Y-93009902D01*
X141117027Y-92917869D01*
X141211326Y-92849357D01*
X145511421Y-92849357D01*
X145511421Y-92888160D01*
X146632221Y-92888160D01*
X147432221Y-92888160D01*
X148553021Y-92888160D01*
X148553021Y-92849361D01*
X148553020Y-92849357D01*
X148954221Y-92849357D01*
X148954221Y-92888160D01*
X150532221Y-92888160D01*
X150532221Y-92669060D01*
X149134518Y-92669060D01*
X149076187Y-92680662D01*
X149076186Y-92680663D01*
X149010029Y-92724868D01*
X148965824Y-92791025D01*
X148965823Y-92791026D01*
X148954221Y-92849357D01*
X148553020Y-92849357D01*
X148541418Y-92791026D01*
X148541417Y-92791025D01*
X148497212Y-92724868D01*
X148431055Y-92680663D01*
X148431054Y-92680662D01*
X148372723Y-92669060D01*
X147432221Y-92669060D01*
X147432221Y-92888160D01*
X146632221Y-92888160D01*
X146632221Y-92669060D01*
X145691718Y-92669060D01*
X145633387Y-92680662D01*
X145633386Y-92680663D01*
X145567229Y-92724868D01*
X145523024Y-92791025D01*
X145523023Y-92791026D01*
X145511421Y-92849357D01*
X141211326Y-92849357D01*
X141281025Y-92798719D01*
X141281027Y-92798716D01*
X141281031Y-92798714D01*
X141424376Y-92655369D01*
X141424378Y-92655365D01*
X141424381Y-92655363D01*
X141484251Y-92572957D01*
X141543531Y-92491365D01*
X141635564Y-92310741D01*
X141662786Y-92226962D01*
X145511421Y-92226962D01*
X145523023Y-92285293D01*
X145523024Y-92285294D01*
X145567229Y-92351451D01*
X145633386Y-92395656D01*
X145633387Y-92395657D01*
X145691718Y-92407259D01*
X145691722Y-92407260D01*
X146632221Y-92407260D01*
X147432221Y-92407260D01*
X148372720Y-92407260D01*
X148372723Y-92407259D01*
X148431054Y-92395657D01*
X148431055Y-92395656D01*
X148497212Y-92351451D01*
X148541417Y-92285294D01*
X148541418Y-92285293D01*
X148553020Y-92226962D01*
X148954221Y-92226962D01*
X148965823Y-92285293D01*
X148965824Y-92285294D01*
X149010029Y-92351451D01*
X149076186Y-92395656D01*
X149076187Y-92395657D01*
X149134518Y-92407259D01*
X149134522Y-92407260D01*
X150532221Y-92407260D01*
X150532221Y-92188160D01*
X148954221Y-92188160D01*
X148954221Y-92226962D01*
X148553020Y-92226962D01*
X148553021Y-92226959D01*
X148553021Y-92188160D01*
X147432221Y-92188160D01*
X147432221Y-92407260D01*
X146632221Y-92407260D01*
X146632221Y-92188160D01*
X145511421Y-92188160D01*
X145511421Y-92226962D01*
X141662786Y-92226962D01*
X141698208Y-92117943D01*
X141729921Y-91917719D01*
X141729921Y-91714999D01*
X141698208Y-91514775D01*
X141644460Y-91349357D01*
X145511421Y-91349357D01*
X145511421Y-91388160D01*
X146632221Y-91388160D01*
X147432221Y-91388160D01*
X148553021Y-91388160D01*
X148553021Y-91349361D01*
X148553020Y-91349357D01*
X148954221Y-91349357D01*
X148954221Y-91388160D01*
X150532221Y-91388160D01*
X150532221Y-91169060D01*
X149134518Y-91169060D01*
X149076187Y-91180662D01*
X149076186Y-91180663D01*
X149010029Y-91224868D01*
X148965824Y-91291025D01*
X148965823Y-91291026D01*
X148954221Y-91349357D01*
X148553020Y-91349357D01*
X148541418Y-91291026D01*
X148541417Y-91291025D01*
X148497212Y-91224868D01*
X148431055Y-91180663D01*
X148431054Y-91180662D01*
X148372723Y-91169060D01*
X147432221Y-91169060D01*
X147432221Y-91388160D01*
X146632221Y-91388160D01*
X146632221Y-91169060D01*
X145691718Y-91169060D01*
X145633387Y-91180662D01*
X145633386Y-91180663D01*
X145567229Y-91224868D01*
X145523024Y-91291025D01*
X145523023Y-91291026D01*
X145511421Y-91349357D01*
X141644460Y-91349357D01*
X141635564Y-91321977D01*
X141543531Y-91141353D01*
X141522277Y-91112099D01*
X141424381Y-90977354D01*
X141281029Y-90834002D01*
X141281024Y-90833998D01*
X141147678Y-90737117D01*
X141133702Y-90726963D01*
X145511421Y-90726963D01*
X145523023Y-90785294D01*
X145523024Y-90785295D01*
X145567229Y-90851452D01*
X145633386Y-90895657D01*
X145633387Y-90895658D01*
X145691718Y-90907260D01*
X145691722Y-90907261D01*
X146632221Y-90907261D01*
X147432221Y-90907261D01*
X148372720Y-90907261D01*
X148372723Y-90907260D01*
X148431054Y-90895658D01*
X148431055Y-90895657D01*
X148497212Y-90851452D01*
X148541417Y-90785295D01*
X148541418Y-90785294D01*
X148553020Y-90726963D01*
X148954221Y-90726963D01*
X148965823Y-90785294D01*
X148965824Y-90785295D01*
X149010029Y-90851452D01*
X149076186Y-90895657D01*
X149076187Y-90895658D01*
X149134518Y-90907260D01*
X149134522Y-90907261D01*
X150532221Y-90907261D01*
X150532221Y-90688161D01*
X148954221Y-90688161D01*
X148954221Y-90726963D01*
X148553020Y-90726963D01*
X148553021Y-90726960D01*
X148553021Y-90688161D01*
X147432221Y-90688161D01*
X147432221Y-90907261D01*
X146632221Y-90907261D01*
X146632221Y-90688161D01*
X145511421Y-90688161D01*
X145511421Y-90726963D01*
X141133702Y-90726963D01*
X141117029Y-90714850D01*
X140936405Y-90622817D01*
X140936404Y-90622816D01*
X140936403Y-90622816D01*
X140743605Y-90560172D01*
X140743603Y-90560171D01*
X140743601Y-90560171D01*
X140603803Y-90538029D01*
X140543381Y-90528459D01*
X140340661Y-90528459D01*
X140294245Y-90535810D01*
X140140440Y-90560171D01*
X139947636Y-90622817D01*
X139767011Y-90714851D01*
X139603016Y-90833998D01*
X139459660Y-90977354D01*
X139340513Y-91141349D01*
X139248479Y-91321974D01*
X139185833Y-91514778D01*
X139185833Y-91514780D01*
X139154121Y-91714999D01*
X129957021Y-91714999D01*
X129957021Y-91704476D01*
X129927814Y-91482625D01*
X129869899Y-91266484D01*
X129784268Y-91059752D01*
X129672385Y-90865966D01*
X129556430Y-90714850D01*
X129536167Y-90688442D01*
X129536161Y-90688435D01*
X129377944Y-90530218D01*
X129377937Y-90530212D01*
X129200422Y-90394001D01*
X129200420Y-90394000D01*
X129200414Y-90393995D01*
X129006628Y-90282112D01*
X129006624Y-90282110D01*
X128799900Y-90196482D01*
X128583751Y-90138565D01*
X128361914Y-90109360D01*
X128361909Y-90109359D01*
X128361904Y-90109359D01*
X128138138Y-90109359D01*
X128138132Y-90109359D01*
X128138127Y-90109360D01*
X127916290Y-90138565D01*
X127700141Y-90196482D01*
X127493417Y-90282110D01*
X127493413Y-90282112D01*
X127299628Y-90393995D01*
X127299619Y-90394001D01*
X127122104Y-90530212D01*
X127122097Y-90530218D01*
X126963880Y-90688435D01*
X126963874Y-90688442D01*
X126827663Y-90865957D01*
X126827657Y-90865966D01*
X126715774Y-91059751D01*
X126715771Y-91059756D01*
X126703082Y-91090392D01*
X126659241Y-91144796D01*
X126592946Y-91166860D01*
X126525247Y-91149580D01*
X126477637Y-91098443D01*
X126464521Y-91042939D01*
X126464521Y-89900859D01*
X126484206Y-89833820D01*
X126537010Y-89788065D01*
X126588521Y-89776859D01*
X145387421Y-89776859D01*
X145454460Y-89796544D01*
G37*
%TD.AperFunction*%
%TD*%
%TA.AperFunction,Conductor*%
%TO.N,Net-(D3-A)*%
G36*
X131614194Y-95357999D02*
G01*
X131662731Y-95408258D01*
X131676880Y-95465780D01*
X131676880Y-95697599D01*
X132077880Y-95697599D01*
X132144919Y-95717284D01*
X132190674Y-95770088D01*
X132201880Y-95821599D01*
X132201880Y-96022599D01*
X132202380Y-96022599D01*
X132269419Y-96042284D01*
X132315174Y-96095088D01*
X132326380Y-96146599D01*
X132326380Y-96870469D01*
X132326381Y-96870475D01*
X132332788Y-96930082D01*
X132383082Y-97064927D01*
X132383086Y-97064933D01*
X132388568Y-97072257D01*
X132412984Y-97137722D01*
X132398131Y-97205995D01*
X132388568Y-97220875D01*
X132375506Y-97238324D01*
X132375502Y-97238330D01*
X132325208Y-97373176D01*
X132318801Y-97432775D01*
X132318800Y-97432786D01*
X132318800Y-97955659D01*
X132318801Y-98280659D01*
X132318801Y-99128535D01*
X132325208Y-99188142D01*
X132375502Y-99322987D01*
X132375503Y-99322988D01*
X132375504Y-99322990D01*
X132461754Y-99438205D01*
X132467528Y-99442527D01*
X132509401Y-99498459D01*
X132517221Y-99541796D01*
X132517221Y-99576059D01*
X132723159Y-99576644D01*
X132736027Y-99577352D01*
X132771427Y-99581159D01*
X133395445Y-99581158D01*
X133446958Y-99592364D01*
X133452963Y-99595106D01*
X133452964Y-99595107D01*
X133583841Y-99654878D01*
X133650880Y-99674563D01*
X133650884Y-99674564D01*
X133793300Y-99695040D01*
X133793303Y-99695040D01*
X133821100Y-99695040D01*
X133893042Y-99689895D01*
X133927977Y-99684872D01*
X133998498Y-99669527D01*
X134025780Y-99657064D01*
X134082610Y-99638150D01*
X134120516Y-99613788D01*
X134129370Y-99609744D01*
X134129386Y-99609733D01*
X134129477Y-99609684D01*
X134139941Y-99602957D01*
X134206977Y-99583259D01*
X134842973Y-99583259D01*
X134846292Y-99583081D01*
X134846296Y-99583164D01*
X134855159Y-99582700D01*
X135043803Y-99583236D01*
X135044633Y-99583260D01*
X135047223Y-99583259D01*
X135047227Y-99583260D01*
X135051984Y-99583259D01*
X141338297Y-99601118D01*
X141405279Y-99620992D01*
X141411827Y-99625532D01*
X141498575Y-99689894D01*
X142072060Y-100115382D01*
X142072061Y-100115383D01*
X142095706Y-100132926D01*
X142095706Y-100132927D01*
X142128536Y-100157285D01*
X142128538Y-100157286D01*
X142934588Y-100755324D01*
X144327141Y-101788509D01*
X144340923Y-101798380D01*
X144347169Y-101802698D01*
X144361313Y-101812127D01*
X144361317Y-101812129D01*
X144492185Y-101871895D01*
X144492189Y-101871896D01*
X144492191Y-101871897D01*
X144553446Y-101889883D01*
X144695861Y-101910359D01*
X144695864Y-101910359D01*
X145408750Y-101910359D01*
X145408751Y-101910359D01*
X145422251Y-101910179D01*
X145428315Y-101910017D01*
X145441873Y-101909472D01*
X145582989Y-101881402D01*
X145591807Y-101878290D01*
X145597954Y-101876123D01*
X145639206Y-101869060D01*
X148424532Y-101869060D01*
X148459464Y-101874082D01*
X148513276Y-101889883D01*
X148655691Y-101910359D01*
X148655694Y-101910359D01*
X148851550Y-101910359D01*
X148851551Y-101910359D01*
X148865051Y-101910179D01*
X148871115Y-101910017D01*
X148874785Y-101909868D01*
X148881279Y-101909607D01*
X148881279Y-101909606D01*
X148884845Y-101909463D01*
X148932364Y-101899993D01*
X148932920Y-101903857D01*
X148955381Y-101900629D01*
X149025903Y-101885289D01*
X149049512Y-101874505D01*
X149063085Y-101871674D01*
X149072814Y-101872453D01*
X149088412Y-101869060D01*
X150808221Y-101869060D01*
X150875260Y-101888745D01*
X150921015Y-101941549D01*
X150932221Y-101993060D01*
X150932221Y-102288160D01*
X151227321Y-102288160D01*
X151294360Y-102307845D01*
X151340115Y-102360649D01*
X151351321Y-102412160D01*
X151351321Y-102907260D01*
X152517521Y-102907260D01*
X152526206Y-102909810D01*
X152535168Y-102908522D01*
X152559208Y-102919500D01*
X152584560Y-102926945D01*
X152590487Y-102933785D01*
X152598724Y-102937547D01*
X152613013Y-102959781D01*
X152630315Y-102979749D01*
X152632602Y-102990263D01*
X152636498Y-102996325D01*
X152641521Y-103031260D01*
X152641521Y-103045059D01*
X152621836Y-103112098D01*
X152569032Y-103157853D01*
X152517521Y-103169059D01*
X151351321Y-103169059D01*
X151351321Y-103664159D01*
X151331636Y-103731198D01*
X151278832Y-103776953D01*
X151227321Y-103788159D01*
X150932221Y-103788159D01*
X150932221Y-104083259D01*
X150912536Y-104150298D01*
X150859732Y-104196053D01*
X150808221Y-104207259D01*
X148954221Y-104207259D01*
X148954221Y-104226961D01*
X148958539Y-104248668D01*
X148956661Y-104269651D01*
X148959660Y-104290506D01*
X148953610Y-104303753D01*
X148952312Y-104318260D01*
X148939386Y-104334897D01*
X148930635Y-104354062D01*
X148918382Y-104361936D01*
X148909448Y-104373437D01*
X148889580Y-104380445D01*
X148871857Y-104391836D01*
X148847273Y-104395370D01*
X148843559Y-104396681D01*
X148836922Y-104396859D01*
X148670320Y-104396859D01*
X148603281Y-104377174D01*
X148557526Y-104324370D01*
X148547582Y-104255212D01*
X148548703Y-104248668D01*
X148553020Y-104226961D01*
X148553021Y-104226958D01*
X148553021Y-104207259D01*
X145511421Y-104207259D01*
X145511421Y-104226961D01*
X145515739Y-104248668D01*
X145509512Y-104318260D01*
X145466648Y-104373437D01*
X145400759Y-104396681D01*
X145394122Y-104396859D01*
X141215440Y-104396859D01*
X141148401Y-104377174D01*
X141102646Y-104324370D01*
X141092702Y-104255212D01*
X141121727Y-104191656D01*
X141167988Y-104158298D01*
X141198619Y-104145610D01*
X141198620Y-104145608D01*
X141198628Y-104145606D01*
X141392414Y-104033723D01*
X141569939Y-103897504D01*
X141728166Y-103739277D01*
X141864385Y-103561752D01*
X141976268Y-103367966D01*
X141983976Y-103349356D01*
X145511421Y-103349356D01*
X145511421Y-103369059D01*
X146613121Y-103369059D01*
X147451321Y-103369059D01*
X148553021Y-103369059D01*
X148553021Y-103349360D01*
X148553020Y-103349356D01*
X148954221Y-103349356D01*
X148954221Y-103369059D01*
X150513121Y-103369059D01*
X150513121Y-103169059D01*
X149134518Y-103169059D01*
X149076187Y-103180661D01*
X149076186Y-103180662D01*
X149010029Y-103224867D01*
X148965824Y-103291024D01*
X148965823Y-103291025D01*
X148954221Y-103349356D01*
X148553020Y-103349356D01*
X148541418Y-103291025D01*
X148541417Y-103291024D01*
X148497212Y-103224867D01*
X148431055Y-103180662D01*
X148431054Y-103180661D01*
X148372723Y-103169059D01*
X147451321Y-103169059D01*
X147451321Y-103369059D01*
X146613121Y-103369059D01*
X146613121Y-103169059D01*
X145691718Y-103169059D01*
X145633387Y-103180661D01*
X145633386Y-103180662D01*
X145567229Y-103224867D01*
X145523024Y-103291024D01*
X145523023Y-103291025D01*
X145511421Y-103349356D01*
X141983976Y-103349356D01*
X141995885Y-103320604D01*
X142006154Y-103295816D01*
X142006154Y-103295814D01*
X142061896Y-103161241D01*
X142061897Y-103161238D01*
X142061899Y-103161234D01*
X142119814Y-102945093D01*
X142148531Y-102726962D01*
X145511421Y-102726962D01*
X145523023Y-102785293D01*
X145523024Y-102785294D01*
X145567229Y-102851451D01*
X145633386Y-102895656D01*
X145633387Y-102895657D01*
X145691718Y-102907259D01*
X145691722Y-102907260D01*
X146613121Y-102907260D01*
X147451321Y-102907260D01*
X148372720Y-102907260D01*
X148372723Y-102907259D01*
X148431054Y-102895657D01*
X148431055Y-102895656D01*
X148497212Y-102851451D01*
X148541417Y-102785294D01*
X148541418Y-102785293D01*
X148553020Y-102726962D01*
X148954221Y-102726962D01*
X148965823Y-102785293D01*
X148965824Y-102785294D01*
X149010029Y-102851451D01*
X149076186Y-102895656D01*
X149076187Y-102895657D01*
X149134518Y-102907259D01*
X149134522Y-102907260D01*
X150513121Y-102907260D01*
X150513121Y-102707260D01*
X148954221Y-102707260D01*
X148954221Y-102726962D01*
X148553020Y-102726962D01*
X148553021Y-102726959D01*
X148553021Y-102707260D01*
X147451321Y-102707260D01*
X147451321Y-102907260D01*
X146613121Y-102907260D01*
X146613121Y-102707260D01*
X145511421Y-102707260D01*
X145511421Y-102726962D01*
X142148531Y-102726962D01*
X142149021Y-102723242D01*
X142149021Y-102499476D01*
X142119814Y-102277625D01*
X142061899Y-102061484D01*
X141976268Y-101854752D01*
X141864385Y-101660966D01*
X141748431Y-101509851D01*
X141728167Y-101483442D01*
X141728161Y-101483435D01*
X141569944Y-101325218D01*
X141569937Y-101325212D01*
X141392422Y-101189001D01*
X141392420Y-101189000D01*
X141392414Y-101188995D01*
X141198628Y-101077112D01*
X141198624Y-101077110D01*
X140991900Y-100991482D01*
X140775751Y-100933565D01*
X140553914Y-100904360D01*
X140553909Y-100904359D01*
X140553904Y-100904359D01*
X140330138Y-100904359D01*
X140330132Y-100904359D01*
X140330127Y-100904360D01*
X140108290Y-100933565D01*
X139892141Y-100991482D01*
X139685417Y-101077110D01*
X139685413Y-101077112D01*
X139491628Y-101188995D01*
X139491619Y-101189001D01*
X139314104Y-101325212D01*
X139314097Y-101325218D01*
X139155880Y-101483435D01*
X139155874Y-101483442D01*
X139019663Y-101660957D01*
X139019657Y-101660966D01*
X138907774Y-101854751D01*
X138907772Y-101854755D01*
X138822144Y-102061479D01*
X138764227Y-102277628D01*
X138735022Y-102499465D01*
X138735021Y-102499482D01*
X138735021Y-102723235D01*
X138735022Y-102723252D01*
X138764227Y-102945089D01*
X138822144Y-103161238D01*
X138900067Y-103349360D01*
X138907774Y-103367966D01*
X139019657Y-103561752D01*
X139019662Y-103561758D01*
X139019663Y-103561760D01*
X139155874Y-103739275D01*
X139155880Y-103739282D01*
X139314097Y-103897499D01*
X139314103Y-103897504D01*
X139491628Y-104033723D01*
X139685414Y-104145606D01*
X139685417Y-104145607D01*
X139685422Y-104145610D01*
X139716054Y-104158298D01*
X139770458Y-104202138D01*
X139792523Y-104268432D01*
X139775244Y-104336132D01*
X139724107Y-104383743D01*
X139668602Y-104396859D01*
X126588521Y-104396859D01*
X126521482Y-104377174D01*
X126475727Y-104324370D01*
X126464521Y-104272859D01*
X126464521Y-102509999D01*
X126962121Y-102509999D01*
X126962121Y-102712719D01*
X126964377Y-102726962D01*
X126993337Y-102909810D01*
X126993834Y-102912943D01*
X127056478Y-103105741D01*
X127094652Y-103180662D01*
X127148513Y-103286368D01*
X127267660Y-103450363D01*
X127411016Y-103593719D01*
X127564477Y-103705213D01*
X127575015Y-103712869D01*
X127755639Y-103804902D01*
X127948437Y-103867546D01*
X128148661Y-103899259D01*
X128148662Y-103899259D01*
X128351380Y-103899259D01*
X128351381Y-103899259D01*
X128551605Y-103867546D01*
X128744403Y-103804902D01*
X128925027Y-103712869D01*
X129017106Y-103645969D01*
X129089025Y-103593719D01*
X129089027Y-103593716D01*
X129089031Y-103593714D01*
X129232376Y-103450369D01*
X129232378Y-103450365D01*
X129232381Y-103450363D01*
X129305763Y-103349360D01*
X129351531Y-103286365D01*
X129443564Y-103105741D01*
X129506208Y-102912943D01*
X129537921Y-102712719D01*
X129537921Y-102509999D01*
X129506208Y-102309775D01*
X129443564Y-102116977D01*
X129351531Y-101936353D01*
X129343875Y-101925815D01*
X129232381Y-101772354D01*
X129089025Y-101628998D01*
X128925030Y-101509851D01*
X128925029Y-101509850D01*
X128925027Y-101509849D01*
X128744403Y-101417816D01*
X128551605Y-101355172D01*
X128551603Y-101355171D01*
X128551601Y-101355171D01*
X128411803Y-101333029D01*
X128351381Y-101323459D01*
X128148661Y-101323459D01*
X128102245Y-101330810D01*
X127948440Y-101355171D01*
X127755636Y-101417817D01*
X127575011Y-101509851D01*
X127411016Y-101628998D01*
X127267660Y-101772354D01*
X127148513Y-101936349D01*
X127056479Y-102116974D01*
X126993833Y-102309778D01*
X126985776Y-102360649D01*
X126962121Y-102509999D01*
X126464521Y-102509999D01*
X126464521Y-99100361D01*
X131669300Y-99100361D01*
X131680902Y-99158692D01*
X131680903Y-99158693D01*
X131725108Y-99224850D01*
X131791265Y-99269055D01*
X131791266Y-99269056D01*
X131849597Y-99280658D01*
X131849601Y-99280659D01*
X131869300Y-99280659D01*
X131869300Y-98605659D01*
X131669300Y-98605659D01*
X131669300Y-99100361D01*
X126464521Y-99100361D01*
X126464521Y-97460956D01*
X131669300Y-97460956D01*
X131669300Y-97955659D01*
X131869300Y-97955659D01*
X131869300Y-97280659D01*
X131849597Y-97280659D01*
X131791266Y-97292261D01*
X131791265Y-97292262D01*
X131725108Y-97336467D01*
X131680903Y-97402624D01*
X131680902Y-97402625D01*
X131669300Y-97460956D01*
X126464521Y-97460956D01*
X126464521Y-96842301D01*
X131676880Y-96842301D01*
X131688482Y-96900632D01*
X131688483Y-96900633D01*
X131732688Y-96966790D01*
X131798845Y-97010995D01*
X131798846Y-97010996D01*
X131857177Y-97022598D01*
X131857181Y-97022599D01*
X131876880Y-97022599D01*
X131876880Y-96347599D01*
X131676880Y-96347599D01*
X131676880Y-96842301D01*
X126464521Y-96842301D01*
X126464521Y-95472506D01*
X126484206Y-95405467D01*
X126537010Y-95359712D01*
X126588378Y-95348506D01*
X126589240Y-95348505D01*
X126589247Y-95348506D01*
X131432237Y-95342916D01*
X131515848Y-95342820D01*
X131533600Y-95342487D01*
X131537946Y-95342329D01*
X131542297Y-95342171D01*
X131546190Y-95341961D01*
X131614194Y-95357999D01*
G37*
%TD.AperFunction*%
%TD*%
M02*
