%TF.GenerationSoftware,KiCad,Pcbnew,9.0.0*%
%TF.CreationDate,2025-04-02T12:45:21-07:00*%
%TF.ProjectId,LEDBoard,4c454442-6f61-4726-942e-6b696361645f,rev?*%
%TF.SameCoordinates,Original*%
%TF.FileFunction,Other,Comment*%
%FSLAX46Y46*%
G04 Gerber Fmt 4.6, Leading zero omitted, Abs format (unit mm)*
G04 Created by KiCad (PCBNEW 9.0.0) date 2025-04-02 12:45:21*
%MOMM*%
%LPD*%
G01*
G04 APERTURE LIST*
%ADD10C,0.150000*%
G04 APERTURE END LIST*
D10*
X91817419Y-109364139D02*
X91817419Y-108364139D01*
X92245990Y-109364139D02*
X92245990Y-108840329D01*
X92245990Y-108840329D02*
X92198371Y-108745091D01*
X92198371Y-108745091D02*
X92103133Y-108697472D01*
X92103133Y-108697472D02*
X91960276Y-108697472D01*
X91960276Y-108697472D02*
X91865038Y-108745091D01*
X91865038Y-108745091D02*
X91817419Y-108792710D01*
X92865038Y-109364139D02*
X92769800Y-109316520D01*
X92769800Y-109316520D02*
X92722181Y-109268900D01*
X92722181Y-109268900D02*
X92674562Y-109173662D01*
X92674562Y-109173662D02*
X92674562Y-108887948D01*
X92674562Y-108887948D02*
X92722181Y-108792710D01*
X92722181Y-108792710D02*
X92769800Y-108745091D01*
X92769800Y-108745091D02*
X92865038Y-108697472D01*
X92865038Y-108697472D02*
X93007895Y-108697472D01*
X93007895Y-108697472D02*
X93103133Y-108745091D01*
X93103133Y-108745091D02*
X93150752Y-108792710D01*
X93150752Y-108792710D02*
X93198371Y-108887948D01*
X93198371Y-108887948D02*
X93198371Y-109173662D01*
X93198371Y-109173662D02*
X93150752Y-109268900D01*
X93150752Y-109268900D02*
X93103133Y-109316520D01*
X93103133Y-109316520D02*
X93007895Y-109364139D01*
X93007895Y-109364139D02*
X92865038Y-109364139D01*
X93769800Y-109364139D02*
X93674562Y-109316520D01*
X93674562Y-109316520D02*
X93626943Y-109221281D01*
X93626943Y-109221281D02*
X93626943Y-108364139D01*
X94531705Y-109316520D02*
X94436467Y-109364139D01*
X94436467Y-109364139D02*
X94245991Y-109364139D01*
X94245991Y-109364139D02*
X94150753Y-109316520D01*
X94150753Y-109316520D02*
X94103134Y-109221281D01*
X94103134Y-109221281D02*
X94103134Y-108840329D01*
X94103134Y-108840329D02*
X94150753Y-108745091D01*
X94150753Y-108745091D02*
X94245991Y-108697472D01*
X94245991Y-108697472D02*
X94436467Y-108697472D01*
X94436467Y-108697472D02*
X94531705Y-108745091D01*
X94531705Y-108745091D02*
X94579324Y-108840329D01*
X94579324Y-108840329D02*
X94579324Y-108935567D01*
X94579324Y-108935567D02*
X94103134Y-109030805D01*
X95769801Y-109364139D02*
X95769801Y-108697472D01*
X95769801Y-108364139D02*
X95722182Y-108411758D01*
X95722182Y-108411758D02*
X95769801Y-108459377D01*
X95769801Y-108459377D02*
X95817420Y-108411758D01*
X95817420Y-108411758D02*
X95769801Y-108364139D01*
X95769801Y-108364139D02*
X95769801Y-108459377D01*
X96198372Y-109316520D02*
X96293610Y-109364139D01*
X96293610Y-109364139D02*
X96484086Y-109364139D01*
X96484086Y-109364139D02*
X96579324Y-109316520D01*
X96579324Y-109316520D02*
X96626943Y-109221281D01*
X96626943Y-109221281D02*
X96626943Y-109173662D01*
X96626943Y-109173662D02*
X96579324Y-109078424D01*
X96579324Y-109078424D02*
X96484086Y-109030805D01*
X96484086Y-109030805D02*
X96341229Y-109030805D01*
X96341229Y-109030805D02*
X96245991Y-108983186D01*
X96245991Y-108983186D02*
X96198372Y-108887948D01*
X96198372Y-108887948D02*
X96198372Y-108840329D01*
X96198372Y-108840329D02*
X96245991Y-108745091D01*
X96245991Y-108745091D02*
X96341229Y-108697472D01*
X96341229Y-108697472D02*
X96484086Y-108697472D01*
X96484086Y-108697472D02*
X96579324Y-108745091D01*
X98007896Y-108364139D02*
X98103134Y-108364139D01*
X98103134Y-108364139D02*
X98198372Y-108411758D01*
X98198372Y-108411758D02*
X98245991Y-108459377D01*
X98245991Y-108459377D02*
X98293610Y-108554615D01*
X98293610Y-108554615D02*
X98341229Y-108745091D01*
X98341229Y-108745091D02*
X98341229Y-108983186D01*
X98341229Y-108983186D02*
X98293610Y-109173662D01*
X98293610Y-109173662D02*
X98245991Y-109268900D01*
X98245991Y-109268900D02*
X98198372Y-109316520D01*
X98198372Y-109316520D02*
X98103134Y-109364139D01*
X98103134Y-109364139D02*
X98007896Y-109364139D01*
X98007896Y-109364139D02*
X97912658Y-109316520D01*
X97912658Y-109316520D02*
X97865039Y-109268900D01*
X97865039Y-109268900D02*
X97817420Y-109173662D01*
X97817420Y-109173662D02*
X97769801Y-108983186D01*
X97769801Y-108983186D02*
X97769801Y-108745091D01*
X97769801Y-108745091D02*
X97817420Y-108554615D01*
X97817420Y-108554615D02*
X97865039Y-108459377D01*
X97865039Y-108459377D02*
X97912658Y-108411758D01*
X97912658Y-108411758D02*
X98007896Y-108364139D01*
X98769801Y-109268900D02*
X98817420Y-109316520D01*
X98817420Y-109316520D02*
X98769801Y-109364139D01*
X98769801Y-109364139D02*
X98722182Y-109316520D01*
X98722182Y-109316520D02*
X98769801Y-109268900D01*
X98769801Y-109268900D02*
X98769801Y-109364139D01*
X99436467Y-108364139D02*
X99531705Y-108364139D01*
X99531705Y-108364139D02*
X99626943Y-108411758D01*
X99626943Y-108411758D02*
X99674562Y-108459377D01*
X99674562Y-108459377D02*
X99722181Y-108554615D01*
X99722181Y-108554615D02*
X99769800Y-108745091D01*
X99769800Y-108745091D02*
X99769800Y-108983186D01*
X99769800Y-108983186D02*
X99722181Y-109173662D01*
X99722181Y-109173662D02*
X99674562Y-109268900D01*
X99674562Y-109268900D02*
X99626943Y-109316520D01*
X99626943Y-109316520D02*
X99531705Y-109364139D01*
X99531705Y-109364139D02*
X99436467Y-109364139D01*
X99436467Y-109364139D02*
X99341229Y-109316520D01*
X99341229Y-109316520D02*
X99293610Y-109268900D01*
X99293610Y-109268900D02*
X99245991Y-109173662D01*
X99245991Y-109173662D02*
X99198372Y-108983186D01*
X99198372Y-108983186D02*
X99198372Y-108745091D01*
X99198372Y-108745091D02*
X99245991Y-108554615D01*
X99245991Y-108554615D02*
X99293610Y-108459377D01*
X99293610Y-108459377D02*
X99341229Y-108411758D01*
X99341229Y-108411758D02*
X99436467Y-108364139D01*
X100245991Y-109364139D02*
X100436467Y-109364139D01*
X100436467Y-109364139D02*
X100531705Y-109316520D01*
X100531705Y-109316520D02*
X100579324Y-109268900D01*
X100579324Y-109268900D02*
X100674562Y-109126043D01*
X100674562Y-109126043D02*
X100722181Y-108935567D01*
X100722181Y-108935567D02*
X100722181Y-108554615D01*
X100722181Y-108554615D02*
X100674562Y-108459377D01*
X100674562Y-108459377D02*
X100626943Y-108411758D01*
X100626943Y-108411758D02*
X100531705Y-108364139D01*
X100531705Y-108364139D02*
X100341229Y-108364139D01*
X100341229Y-108364139D02*
X100245991Y-108411758D01*
X100245991Y-108411758D02*
X100198372Y-108459377D01*
X100198372Y-108459377D02*
X100150753Y-108554615D01*
X100150753Y-108554615D02*
X100150753Y-108792710D01*
X100150753Y-108792710D02*
X100198372Y-108887948D01*
X100198372Y-108887948D02*
X100245991Y-108935567D01*
X100245991Y-108935567D02*
X100341229Y-108983186D01*
X100341229Y-108983186D02*
X100531705Y-108983186D01*
X100531705Y-108983186D02*
X100626943Y-108935567D01*
X100626943Y-108935567D02*
X100674562Y-108887948D01*
X100674562Y-108887948D02*
X100722181Y-108792710D01*
X101341229Y-108364139D02*
X101436467Y-108364139D01*
X101436467Y-108364139D02*
X101531705Y-108411758D01*
X101531705Y-108411758D02*
X101579324Y-108459377D01*
X101579324Y-108459377D02*
X101626943Y-108554615D01*
X101626943Y-108554615D02*
X101674562Y-108745091D01*
X101674562Y-108745091D02*
X101674562Y-108983186D01*
X101674562Y-108983186D02*
X101626943Y-109173662D01*
X101626943Y-109173662D02*
X101579324Y-109268900D01*
X101579324Y-109268900D02*
X101531705Y-109316520D01*
X101531705Y-109316520D02*
X101436467Y-109364139D01*
X101436467Y-109364139D02*
X101341229Y-109364139D01*
X101341229Y-109364139D02*
X101245991Y-109316520D01*
X101245991Y-109316520D02*
X101198372Y-109268900D01*
X101198372Y-109268900D02*
X101150753Y-109173662D01*
X101150753Y-109173662D02*
X101103134Y-108983186D01*
X101103134Y-108983186D02*
X101103134Y-108745091D01*
X101103134Y-108745091D02*
X101150753Y-108554615D01*
X101150753Y-108554615D02*
X101198372Y-108459377D01*
X101198372Y-108459377D02*
X101245991Y-108411758D01*
X101245991Y-108411758D02*
X101341229Y-108364139D01*
X102055515Y-108364139D02*
X102055515Y-108554615D01*
X102436467Y-108364139D02*
X102436467Y-108554615D01*
X103484087Y-108697472D02*
X103865039Y-108697472D01*
X103626944Y-109364139D02*
X103626944Y-108506996D01*
X103626944Y-108506996D02*
X103674563Y-108411758D01*
X103674563Y-108411758D02*
X103769801Y-108364139D01*
X103769801Y-108364139D02*
X103865039Y-108364139D01*
X104198373Y-109364139D02*
X104198373Y-108697472D01*
X104198373Y-108887948D02*
X104245992Y-108792710D01*
X104245992Y-108792710D02*
X104293611Y-108745091D01*
X104293611Y-108745091D02*
X104388849Y-108697472D01*
X104388849Y-108697472D02*
X104484087Y-108697472D01*
X104960278Y-109364139D02*
X104865040Y-109316520D01*
X104865040Y-109316520D02*
X104817421Y-109268900D01*
X104817421Y-109268900D02*
X104769802Y-109173662D01*
X104769802Y-109173662D02*
X104769802Y-108887948D01*
X104769802Y-108887948D02*
X104817421Y-108792710D01*
X104817421Y-108792710D02*
X104865040Y-108745091D01*
X104865040Y-108745091D02*
X104960278Y-108697472D01*
X104960278Y-108697472D02*
X105103135Y-108697472D01*
X105103135Y-108697472D02*
X105198373Y-108745091D01*
X105198373Y-108745091D02*
X105245992Y-108792710D01*
X105245992Y-108792710D02*
X105293611Y-108887948D01*
X105293611Y-108887948D02*
X105293611Y-109173662D01*
X105293611Y-109173662D02*
X105245992Y-109268900D01*
X105245992Y-109268900D02*
X105198373Y-109316520D01*
X105198373Y-109316520D02*
X105103135Y-109364139D01*
X105103135Y-109364139D02*
X104960278Y-109364139D01*
X105722183Y-109364139D02*
X105722183Y-108697472D01*
X105722183Y-108792710D02*
X105769802Y-108745091D01*
X105769802Y-108745091D02*
X105865040Y-108697472D01*
X105865040Y-108697472D02*
X106007897Y-108697472D01*
X106007897Y-108697472D02*
X106103135Y-108745091D01*
X106103135Y-108745091D02*
X106150754Y-108840329D01*
X106150754Y-108840329D02*
X106150754Y-109364139D01*
X106150754Y-108840329D02*
X106198373Y-108745091D01*
X106198373Y-108745091D02*
X106293611Y-108697472D01*
X106293611Y-108697472D02*
X106436468Y-108697472D01*
X106436468Y-108697472D02*
X106531707Y-108745091D01*
X106531707Y-108745091D02*
X106579326Y-108840329D01*
X106579326Y-108840329D02*
X106579326Y-109364139D01*
X107769802Y-109316520D02*
X107865040Y-109364139D01*
X107865040Y-109364139D02*
X108055516Y-109364139D01*
X108055516Y-109364139D02*
X108150754Y-109316520D01*
X108150754Y-109316520D02*
X108198373Y-109221281D01*
X108198373Y-109221281D02*
X108198373Y-109173662D01*
X108198373Y-109173662D02*
X108150754Y-109078424D01*
X108150754Y-109078424D02*
X108055516Y-109030805D01*
X108055516Y-109030805D02*
X107912659Y-109030805D01*
X107912659Y-109030805D02*
X107817421Y-108983186D01*
X107817421Y-108983186D02*
X107769802Y-108887948D01*
X107769802Y-108887948D02*
X107769802Y-108840329D01*
X107769802Y-108840329D02*
X107817421Y-108745091D01*
X107817421Y-108745091D02*
X107912659Y-108697472D01*
X107912659Y-108697472D02*
X108055516Y-108697472D01*
X108055516Y-108697472D02*
X108150754Y-108745091D01*
X108769802Y-109364139D02*
X108674564Y-109316520D01*
X108674564Y-109316520D02*
X108626945Y-109268900D01*
X108626945Y-109268900D02*
X108579326Y-109173662D01*
X108579326Y-109173662D02*
X108579326Y-108887948D01*
X108579326Y-108887948D02*
X108626945Y-108792710D01*
X108626945Y-108792710D02*
X108674564Y-108745091D01*
X108674564Y-108745091D02*
X108769802Y-108697472D01*
X108769802Y-108697472D02*
X108912659Y-108697472D01*
X108912659Y-108697472D02*
X109007897Y-108745091D01*
X109007897Y-108745091D02*
X109055516Y-108792710D01*
X109055516Y-108792710D02*
X109103135Y-108887948D01*
X109103135Y-108887948D02*
X109103135Y-109173662D01*
X109103135Y-109173662D02*
X109055516Y-109268900D01*
X109055516Y-109268900D02*
X109007897Y-109316520D01*
X109007897Y-109316520D02*
X108912659Y-109364139D01*
X108912659Y-109364139D02*
X108769802Y-109364139D01*
X109960278Y-108697472D02*
X109960278Y-109364139D01*
X109531707Y-108697472D02*
X109531707Y-109221281D01*
X109531707Y-109221281D02*
X109579326Y-109316520D01*
X109579326Y-109316520D02*
X109674564Y-109364139D01*
X109674564Y-109364139D02*
X109817421Y-109364139D01*
X109817421Y-109364139D02*
X109912659Y-109316520D01*
X109912659Y-109316520D02*
X109960278Y-109268900D01*
X110293612Y-108697472D02*
X110674564Y-108697472D01*
X110436469Y-108364139D02*
X110436469Y-109221281D01*
X110436469Y-109221281D02*
X110484088Y-109316520D01*
X110484088Y-109316520D02*
X110579326Y-109364139D01*
X110579326Y-109364139D02*
X110674564Y-109364139D01*
X111007898Y-109364139D02*
X111007898Y-108364139D01*
X111436469Y-109364139D02*
X111436469Y-108840329D01*
X111436469Y-108840329D02*
X111388850Y-108745091D01*
X111388850Y-108745091D02*
X111293612Y-108697472D01*
X111293612Y-108697472D02*
X111150755Y-108697472D01*
X111150755Y-108697472D02*
X111055517Y-108745091D01*
X111055517Y-108745091D02*
X111007898Y-108792710D01*
X113103136Y-109364139D02*
X113103136Y-108840329D01*
X113103136Y-108840329D02*
X113055517Y-108745091D01*
X113055517Y-108745091D02*
X112960279Y-108697472D01*
X112960279Y-108697472D02*
X112769803Y-108697472D01*
X112769803Y-108697472D02*
X112674565Y-108745091D01*
X113103136Y-109316520D02*
X113007898Y-109364139D01*
X113007898Y-109364139D02*
X112769803Y-109364139D01*
X112769803Y-109364139D02*
X112674565Y-109316520D01*
X112674565Y-109316520D02*
X112626946Y-109221281D01*
X112626946Y-109221281D02*
X112626946Y-109126043D01*
X112626946Y-109126043D02*
X112674565Y-109030805D01*
X112674565Y-109030805D02*
X112769803Y-108983186D01*
X112769803Y-108983186D02*
X113007898Y-108983186D01*
X113007898Y-108983186D02*
X113103136Y-108935567D01*
X113579327Y-108697472D02*
X113579327Y-109364139D01*
X113579327Y-108792710D02*
X113626946Y-108745091D01*
X113626946Y-108745091D02*
X113722184Y-108697472D01*
X113722184Y-108697472D02*
X113865041Y-108697472D01*
X113865041Y-108697472D02*
X113960279Y-108745091D01*
X113960279Y-108745091D02*
X114007898Y-108840329D01*
X114007898Y-108840329D02*
X114007898Y-109364139D01*
X114912660Y-109364139D02*
X114912660Y-108364139D01*
X114912660Y-109316520D02*
X114817422Y-109364139D01*
X114817422Y-109364139D02*
X114626946Y-109364139D01*
X114626946Y-109364139D02*
X114531708Y-109316520D01*
X114531708Y-109316520D02*
X114484089Y-109268900D01*
X114484089Y-109268900D02*
X114436470Y-109173662D01*
X114436470Y-109173662D02*
X114436470Y-108887948D01*
X114436470Y-108887948D02*
X114484089Y-108792710D01*
X114484089Y-108792710D02*
X114531708Y-108745091D01*
X114531708Y-108745091D02*
X114626946Y-108697472D01*
X114626946Y-108697472D02*
X114817422Y-108697472D01*
X114817422Y-108697472D02*
X114912660Y-108745091D01*
X116055518Y-108697472D02*
X116245994Y-109364139D01*
X116245994Y-109364139D02*
X116436470Y-108887948D01*
X116436470Y-108887948D02*
X116626946Y-109364139D01*
X116626946Y-109364139D02*
X116817422Y-108697472D01*
X117579327Y-109316520D02*
X117484089Y-109364139D01*
X117484089Y-109364139D02*
X117293613Y-109364139D01*
X117293613Y-109364139D02*
X117198375Y-109316520D01*
X117198375Y-109316520D02*
X117150756Y-109221281D01*
X117150756Y-109221281D02*
X117150756Y-108840329D01*
X117150756Y-108840329D02*
X117198375Y-108745091D01*
X117198375Y-108745091D02*
X117293613Y-108697472D01*
X117293613Y-108697472D02*
X117484089Y-108697472D01*
X117484089Y-108697472D02*
X117579327Y-108745091D01*
X117579327Y-108745091D02*
X117626946Y-108840329D01*
X117626946Y-108840329D02*
X117626946Y-108935567D01*
X117626946Y-108935567D02*
X117150756Y-109030805D01*
X118007899Y-109316520D02*
X118103137Y-109364139D01*
X118103137Y-109364139D02*
X118293613Y-109364139D01*
X118293613Y-109364139D02*
X118388851Y-109316520D01*
X118388851Y-109316520D02*
X118436470Y-109221281D01*
X118436470Y-109221281D02*
X118436470Y-109173662D01*
X118436470Y-109173662D02*
X118388851Y-109078424D01*
X118388851Y-109078424D02*
X118293613Y-109030805D01*
X118293613Y-109030805D02*
X118150756Y-109030805D01*
X118150756Y-109030805D02*
X118055518Y-108983186D01*
X118055518Y-108983186D02*
X118007899Y-108887948D01*
X118007899Y-108887948D02*
X118007899Y-108840329D01*
X118007899Y-108840329D02*
X118055518Y-108745091D01*
X118055518Y-108745091D02*
X118150756Y-108697472D01*
X118150756Y-108697472D02*
X118293613Y-108697472D01*
X118293613Y-108697472D02*
X118388851Y-108745091D01*
X118722185Y-108697472D02*
X119103137Y-108697472D01*
X118865042Y-108364139D02*
X118865042Y-109221281D01*
X118865042Y-109221281D02*
X118912661Y-109316520D01*
X118912661Y-109316520D02*
X119007899Y-109364139D01*
X119007899Y-109364139D02*
X119103137Y-109364139D01*
X120579328Y-109316520D02*
X120484090Y-109364139D01*
X120484090Y-109364139D02*
X120293614Y-109364139D01*
X120293614Y-109364139D02*
X120198376Y-109316520D01*
X120198376Y-109316520D02*
X120150757Y-109221281D01*
X120150757Y-109221281D02*
X120150757Y-108840329D01*
X120150757Y-108840329D02*
X120198376Y-108745091D01*
X120198376Y-108745091D02*
X120293614Y-108697472D01*
X120293614Y-108697472D02*
X120484090Y-108697472D01*
X120484090Y-108697472D02*
X120579328Y-108745091D01*
X120579328Y-108745091D02*
X120626947Y-108840329D01*
X120626947Y-108840329D02*
X120626947Y-108935567D01*
X120626947Y-108935567D02*
X120150757Y-109030805D01*
X121484090Y-109364139D02*
X121484090Y-108364139D01*
X121484090Y-109316520D02*
X121388852Y-109364139D01*
X121388852Y-109364139D02*
X121198376Y-109364139D01*
X121198376Y-109364139D02*
X121103138Y-109316520D01*
X121103138Y-109316520D02*
X121055519Y-109268900D01*
X121055519Y-109268900D02*
X121007900Y-109173662D01*
X121007900Y-109173662D02*
X121007900Y-108887948D01*
X121007900Y-108887948D02*
X121055519Y-108792710D01*
X121055519Y-108792710D02*
X121103138Y-108745091D01*
X121103138Y-108745091D02*
X121198376Y-108697472D01*
X121198376Y-108697472D02*
X121388852Y-108697472D01*
X121388852Y-108697472D02*
X121484090Y-108745091D01*
X122388852Y-108697472D02*
X122388852Y-109506996D01*
X122388852Y-109506996D02*
X122341233Y-109602234D01*
X122341233Y-109602234D02*
X122293614Y-109649853D01*
X122293614Y-109649853D02*
X122198376Y-109697472D01*
X122198376Y-109697472D02*
X122055519Y-109697472D01*
X122055519Y-109697472D02*
X121960281Y-109649853D01*
X122388852Y-109316520D02*
X122293614Y-109364139D01*
X122293614Y-109364139D02*
X122103138Y-109364139D01*
X122103138Y-109364139D02*
X122007900Y-109316520D01*
X122007900Y-109316520D02*
X121960281Y-109268900D01*
X121960281Y-109268900D02*
X121912662Y-109173662D01*
X121912662Y-109173662D02*
X121912662Y-108887948D01*
X121912662Y-108887948D02*
X121960281Y-108792710D01*
X121960281Y-108792710D02*
X122007900Y-108745091D01*
X122007900Y-108745091D02*
X122103138Y-108697472D01*
X122103138Y-108697472D02*
X122293614Y-108697472D01*
X122293614Y-108697472D02*
X122388852Y-108745091D01*
X123245995Y-109316520D02*
X123150757Y-109364139D01*
X123150757Y-109364139D02*
X122960281Y-109364139D01*
X122960281Y-109364139D02*
X122865043Y-109316520D01*
X122865043Y-109316520D02*
X122817424Y-109221281D01*
X122817424Y-109221281D02*
X122817424Y-108840329D01*
X122817424Y-108840329D02*
X122865043Y-108745091D01*
X122865043Y-108745091D02*
X122960281Y-108697472D01*
X122960281Y-108697472D02*
X123150757Y-108697472D01*
X123150757Y-108697472D02*
X123245995Y-108745091D01*
X123245995Y-108745091D02*
X123293614Y-108840329D01*
X123293614Y-108840329D02*
X123293614Y-108935567D01*
X123293614Y-108935567D02*
X122817424Y-109030805D01*
X93796079Y-94047939D02*
X93796079Y-93047939D01*
X94224650Y-94047939D02*
X94224650Y-93524129D01*
X94224650Y-93524129D02*
X94177031Y-93428891D01*
X94177031Y-93428891D02*
X94081793Y-93381272D01*
X94081793Y-93381272D02*
X93938936Y-93381272D01*
X93938936Y-93381272D02*
X93843698Y-93428891D01*
X93843698Y-93428891D02*
X93796079Y-93476510D01*
X94843698Y-94047939D02*
X94748460Y-94000320D01*
X94748460Y-94000320D02*
X94700841Y-93952700D01*
X94700841Y-93952700D02*
X94653222Y-93857462D01*
X94653222Y-93857462D02*
X94653222Y-93571748D01*
X94653222Y-93571748D02*
X94700841Y-93476510D01*
X94700841Y-93476510D02*
X94748460Y-93428891D01*
X94748460Y-93428891D02*
X94843698Y-93381272D01*
X94843698Y-93381272D02*
X94986555Y-93381272D01*
X94986555Y-93381272D02*
X95081793Y-93428891D01*
X95081793Y-93428891D02*
X95129412Y-93476510D01*
X95129412Y-93476510D02*
X95177031Y-93571748D01*
X95177031Y-93571748D02*
X95177031Y-93857462D01*
X95177031Y-93857462D02*
X95129412Y-93952700D01*
X95129412Y-93952700D02*
X95081793Y-94000320D01*
X95081793Y-94000320D02*
X94986555Y-94047939D01*
X94986555Y-94047939D02*
X94843698Y-94047939D01*
X95748460Y-94047939D02*
X95653222Y-94000320D01*
X95653222Y-94000320D02*
X95605603Y-93905081D01*
X95605603Y-93905081D02*
X95605603Y-93047939D01*
X96510365Y-94000320D02*
X96415127Y-94047939D01*
X96415127Y-94047939D02*
X96224651Y-94047939D01*
X96224651Y-94047939D02*
X96129413Y-94000320D01*
X96129413Y-94000320D02*
X96081794Y-93905081D01*
X96081794Y-93905081D02*
X96081794Y-93524129D01*
X96081794Y-93524129D02*
X96129413Y-93428891D01*
X96129413Y-93428891D02*
X96224651Y-93381272D01*
X96224651Y-93381272D02*
X96415127Y-93381272D01*
X96415127Y-93381272D02*
X96510365Y-93428891D01*
X96510365Y-93428891D02*
X96557984Y-93524129D01*
X96557984Y-93524129D02*
X96557984Y-93619367D01*
X96557984Y-93619367D02*
X96081794Y-93714605D01*
X97748461Y-94047939D02*
X97748461Y-93381272D01*
X97748461Y-93047939D02*
X97700842Y-93095558D01*
X97700842Y-93095558D02*
X97748461Y-93143177D01*
X97748461Y-93143177D02*
X97796080Y-93095558D01*
X97796080Y-93095558D02*
X97748461Y-93047939D01*
X97748461Y-93047939D02*
X97748461Y-93143177D01*
X98177032Y-94000320D02*
X98272270Y-94047939D01*
X98272270Y-94047939D02*
X98462746Y-94047939D01*
X98462746Y-94047939D02*
X98557984Y-94000320D01*
X98557984Y-94000320D02*
X98605603Y-93905081D01*
X98605603Y-93905081D02*
X98605603Y-93857462D01*
X98605603Y-93857462D02*
X98557984Y-93762224D01*
X98557984Y-93762224D02*
X98462746Y-93714605D01*
X98462746Y-93714605D02*
X98319889Y-93714605D01*
X98319889Y-93714605D02*
X98224651Y-93666986D01*
X98224651Y-93666986D02*
X98177032Y-93571748D01*
X98177032Y-93571748D02*
X98177032Y-93524129D01*
X98177032Y-93524129D02*
X98224651Y-93428891D01*
X98224651Y-93428891D02*
X98319889Y-93381272D01*
X98319889Y-93381272D02*
X98462746Y-93381272D01*
X98462746Y-93381272D02*
X98557984Y-93428891D01*
X99986556Y-93047939D02*
X100081794Y-93047939D01*
X100081794Y-93047939D02*
X100177032Y-93095558D01*
X100177032Y-93095558D02*
X100224651Y-93143177D01*
X100224651Y-93143177D02*
X100272270Y-93238415D01*
X100272270Y-93238415D02*
X100319889Y-93428891D01*
X100319889Y-93428891D02*
X100319889Y-93666986D01*
X100319889Y-93666986D02*
X100272270Y-93857462D01*
X100272270Y-93857462D02*
X100224651Y-93952700D01*
X100224651Y-93952700D02*
X100177032Y-94000320D01*
X100177032Y-94000320D02*
X100081794Y-94047939D01*
X100081794Y-94047939D02*
X99986556Y-94047939D01*
X99986556Y-94047939D02*
X99891318Y-94000320D01*
X99891318Y-94000320D02*
X99843699Y-93952700D01*
X99843699Y-93952700D02*
X99796080Y-93857462D01*
X99796080Y-93857462D02*
X99748461Y-93666986D01*
X99748461Y-93666986D02*
X99748461Y-93428891D01*
X99748461Y-93428891D02*
X99796080Y-93238415D01*
X99796080Y-93238415D02*
X99843699Y-93143177D01*
X99843699Y-93143177D02*
X99891318Y-93095558D01*
X99891318Y-93095558D02*
X99986556Y-93047939D01*
X100748461Y-93952700D02*
X100796080Y-94000320D01*
X100796080Y-94000320D02*
X100748461Y-94047939D01*
X100748461Y-94047939D02*
X100700842Y-94000320D01*
X100700842Y-94000320D02*
X100748461Y-93952700D01*
X100748461Y-93952700D02*
X100748461Y-94047939D01*
X101653222Y-93381272D02*
X101653222Y-94047939D01*
X101415127Y-93000320D02*
X101177032Y-93714605D01*
X101177032Y-93714605D02*
X101796079Y-93714605D01*
X102129413Y-93143177D02*
X102177032Y-93095558D01*
X102177032Y-93095558D02*
X102272270Y-93047939D01*
X102272270Y-93047939D02*
X102510365Y-93047939D01*
X102510365Y-93047939D02*
X102605603Y-93095558D01*
X102605603Y-93095558D02*
X102653222Y-93143177D01*
X102653222Y-93143177D02*
X102700841Y-93238415D01*
X102700841Y-93238415D02*
X102700841Y-93333653D01*
X102700841Y-93333653D02*
X102653222Y-93476510D01*
X102653222Y-93476510D02*
X102081794Y-94047939D01*
X102081794Y-94047939D02*
X102700841Y-94047939D01*
X103605603Y-93047939D02*
X103129413Y-93047939D01*
X103129413Y-93047939D02*
X103081794Y-93524129D01*
X103081794Y-93524129D02*
X103129413Y-93476510D01*
X103129413Y-93476510D02*
X103224651Y-93428891D01*
X103224651Y-93428891D02*
X103462746Y-93428891D01*
X103462746Y-93428891D02*
X103557984Y-93476510D01*
X103557984Y-93476510D02*
X103605603Y-93524129D01*
X103605603Y-93524129D02*
X103653222Y-93619367D01*
X103653222Y-93619367D02*
X103653222Y-93857462D01*
X103653222Y-93857462D02*
X103605603Y-93952700D01*
X103605603Y-93952700D02*
X103557984Y-94000320D01*
X103557984Y-94000320D02*
X103462746Y-94047939D01*
X103462746Y-94047939D02*
X103224651Y-94047939D01*
X103224651Y-94047939D02*
X103129413Y-94000320D01*
X103129413Y-94000320D02*
X103081794Y-93952700D01*
X104034175Y-93047939D02*
X104034175Y-93238415D01*
X104415127Y-93047939D02*
X104415127Y-93238415D01*
X106034175Y-94047939D02*
X106034175Y-93047939D01*
X106034175Y-94000320D02*
X105938937Y-94047939D01*
X105938937Y-94047939D02*
X105748461Y-94047939D01*
X105748461Y-94047939D02*
X105653223Y-94000320D01*
X105653223Y-94000320D02*
X105605604Y-93952700D01*
X105605604Y-93952700D02*
X105557985Y-93857462D01*
X105557985Y-93857462D02*
X105557985Y-93571748D01*
X105557985Y-93571748D02*
X105605604Y-93476510D01*
X105605604Y-93476510D02*
X105653223Y-93428891D01*
X105653223Y-93428891D02*
X105748461Y-93381272D01*
X105748461Y-93381272D02*
X105938937Y-93381272D01*
X105938937Y-93381272D02*
X106034175Y-93428891D01*
X106510366Y-94047939D02*
X106510366Y-93381272D01*
X106510366Y-93047939D02*
X106462747Y-93095558D01*
X106462747Y-93095558D02*
X106510366Y-93143177D01*
X106510366Y-93143177D02*
X106557985Y-93095558D01*
X106557985Y-93095558D02*
X106510366Y-93047939D01*
X106510366Y-93047939D02*
X106510366Y-93143177D01*
X106938937Y-94000320D02*
X107034175Y-94047939D01*
X107034175Y-94047939D02*
X107224651Y-94047939D01*
X107224651Y-94047939D02*
X107319889Y-94000320D01*
X107319889Y-94000320D02*
X107367508Y-93905081D01*
X107367508Y-93905081D02*
X107367508Y-93857462D01*
X107367508Y-93857462D02*
X107319889Y-93762224D01*
X107319889Y-93762224D02*
X107224651Y-93714605D01*
X107224651Y-93714605D02*
X107081794Y-93714605D01*
X107081794Y-93714605D02*
X106986556Y-93666986D01*
X106986556Y-93666986D02*
X106938937Y-93571748D01*
X106938937Y-93571748D02*
X106938937Y-93524129D01*
X106938937Y-93524129D02*
X106986556Y-93428891D01*
X106986556Y-93428891D02*
X107081794Y-93381272D01*
X107081794Y-93381272D02*
X107224651Y-93381272D01*
X107224651Y-93381272D02*
X107319889Y-93428891D01*
X107653223Y-93381272D02*
X108034175Y-93381272D01*
X107796080Y-93047939D02*
X107796080Y-93905081D01*
X107796080Y-93905081D02*
X107843699Y-94000320D01*
X107843699Y-94000320D02*
X107938937Y-94047939D01*
X107938937Y-94047939D02*
X108034175Y-94047939D01*
X108796080Y-94047939D02*
X108796080Y-93524129D01*
X108796080Y-93524129D02*
X108748461Y-93428891D01*
X108748461Y-93428891D02*
X108653223Y-93381272D01*
X108653223Y-93381272D02*
X108462747Y-93381272D01*
X108462747Y-93381272D02*
X108367509Y-93428891D01*
X108796080Y-94000320D02*
X108700842Y-94047939D01*
X108700842Y-94047939D02*
X108462747Y-94047939D01*
X108462747Y-94047939D02*
X108367509Y-94000320D01*
X108367509Y-94000320D02*
X108319890Y-93905081D01*
X108319890Y-93905081D02*
X108319890Y-93809843D01*
X108319890Y-93809843D02*
X108367509Y-93714605D01*
X108367509Y-93714605D02*
X108462747Y-93666986D01*
X108462747Y-93666986D02*
X108700842Y-93666986D01*
X108700842Y-93666986D02*
X108796080Y-93619367D01*
X109272271Y-93381272D02*
X109272271Y-94047939D01*
X109272271Y-93476510D02*
X109319890Y-93428891D01*
X109319890Y-93428891D02*
X109415128Y-93381272D01*
X109415128Y-93381272D02*
X109557985Y-93381272D01*
X109557985Y-93381272D02*
X109653223Y-93428891D01*
X109653223Y-93428891D02*
X109700842Y-93524129D01*
X109700842Y-93524129D02*
X109700842Y-94047939D01*
X110605604Y-94000320D02*
X110510366Y-94047939D01*
X110510366Y-94047939D02*
X110319890Y-94047939D01*
X110319890Y-94047939D02*
X110224652Y-94000320D01*
X110224652Y-94000320D02*
X110177033Y-93952700D01*
X110177033Y-93952700D02*
X110129414Y-93857462D01*
X110129414Y-93857462D02*
X110129414Y-93571748D01*
X110129414Y-93571748D02*
X110177033Y-93476510D01*
X110177033Y-93476510D02*
X110224652Y-93428891D01*
X110224652Y-93428891D02*
X110319890Y-93381272D01*
X110319890Y-93381272D02*
X110510366Y-93381272D01*
X110510366Y-93381272D02*
X110605604Y-93428891D01*
X111415128Y-94000320D02*
X111319890Y-94047939D01*
X111319890Y-94047939D02*
X111129414Y-94047939D01*
X111129414Y-94047939D02*
X111034176Y-94000320D01*
X111034176Y-94000320D02*
X110986557Y-93905081D01*
X110986557Y-93905081D02*
X110986557Y-93524129D01*
X110986557Y-93524129D02*
X111034176Y-93428891D01*
X111034176Y-93428891D02*
X111129414Y-93381272D01*
X111129414Y-93381272D02*
X111319890Y-93381272D01*
X111319890Y-93381272D02*
X111415128Y-93428891D01*
X111415128Y-93428891D02*
X111462747Y-93524129D01*
X111462747Y-93524129D02*
X111462747Y-93619367D01*
X111462747Y-93619367D02*
X110986557Y-93714605D01*
X111843700Y-94000320D02*
X111938938Y-94047939D01*
X111938938Y-94047939D02*
X112129414Y-94047939D01*
X112129414Y-94047939D02*
X112224652Y-94000320D01*
X112224652Y-94000320D02*
X112272271Y-93905081D01*
X112272271Y-93905081D02*
X112272271Y-93857462D01*
X112272271Y-93857462D02*
X112224652Y-93762224D01*
X112224652Y-93762224D02*
X112129414Y-93714605D01*
X112129414Y-93714605D02*
X111986557Y-93714605D01*
X111986557Y-93714605D02*
X111891319Y-93666986D01*
X111891319Y-93666986D02*
X111843700Y-93571748D01*
X111843700Y-93571748D02*
X111843700Y-93524129D01*
X111843700Y-93524129D02*
X111891319Y-93428891D01*
X111891319Y-93428891D02*
X111986557Y-93381272D01*
X111986557Y-93381272D02*
X112129414Y-93381272D01*
X112129414Y-93381272D02*
X112224652Y-93428891D01*
X113462748Y-93381272D02*
X113462748Y-94047939D01*
X113462748Y-93476510D02*
X113510367Y-93428891D01*
X113510367Y-93428891D02*
X113605605Y-93381272D01*
X113605605Y-93381272D02*
X113748462Y-93381272D01*
X113748462Y-93381272D02*
X113843700Y-93428891D01*
X113843700Y-93428891D02*
X113891319Y-93524129D01*
X113891319Y-93524129D02*
X113891319Y-94047939D01*
X114510367Y-94047939D02*
X114415129Y-94000320D01*
X114415129Y-94000320D02*
X114367510Y-93952700D01*
X114367510Y-93952700D02*
X114319891Y-93857462D01*
X114319891Y-93857462D02*
X114319891Y-93571748D01*
X114319891Y-93571748D02*
X114367510Y-93476510D01*
X114367510Y-93476510D02*
X114415129Y-93428891D01*
X114415129Y-93428891D02*
X114510367Y-93381272D01*
X114510367Y-93381272D02*
X114653224Y-93381272D01*
X114653224Y-93381272D02*
X114748462Y-93428891D01*
X114748462Y-93428891D02*
X114796081Y-93476510D01*
X114796081Y-93476510D02*
X114843700Y-93571748D01*
X114843700Y-93571748D02*
X114843700Y-93857462D01*
X114843700Y-93857462D02*
X114796081Y-93952700D01*
X114796081Y-93952700D02*
X114748462Y-94000320D01*
X114748462Y-94000320D02*
X114653224Y-94047939D01*
X114653224Y-94047939D02*
X114510367Y-94047939D01*
X115272272Y-94047939D02*
X115272272Y-93381272D01*
X115272272Y-93571748D02*
X115319891Y-93476510D01*
X115319891Y-93476510D02*
X115367510Y-93428891D01*
X115367510Y-93428891D02*
X115462748Y-93381272D01*
X115462748Y-93381272D02*
X115557986Y-93381272D01*
X115748463Y-93381272D02*
X116129415Y-93381272D01*
X115891320Y-93047939D02*
X115891320Y-93905081D01*
X115891320Y-93905081D02*
X115938939Y-94000320D01*
X115938939Y-94000320D02*
X116034177Y-94047939D01*
X116034177Y-94047939D02*
X116129415Y-94047939D01*
X116462749Y-94047939D02*
X116462749Y-93047939D01*
X116891320Y-94047939D02*
X116891320Y-93524129D01*
X116891320Y-93524129D02*
X116843701Y-93428891D01*
X116843701Y-93428891D02*
X116748463Y-93381272D01*
X116748463Y-93381272D02*
X116605606Y-93381272D01*
X116605606Y-93381272D02*
X116510368Y-93428891D01*
X116510368Y-93428891D02*
X116462749Y-93476510D01*
X117319892Y-94000320D02*
X117415130Y-94047939D01*
X117415130Y-94047939D02*
X117605606Y-94047939D01*
X117605606Y-94047939D02*
X117700844Y-94000320D01*
X117700844Y-94000320D02*
X117748463Y-93905081D01*
X117748463Y-93905081D02*
X117748463Y-93857462D01*
X117748463Y-93857462D02*
X117700844Y-93762224D01*
X117700844Y-93762224D02*
X117605606Y-93714605D01*
X117605606Y-93714605D02*
X117462749Y-93714605D01*
X117462749Y-93714605D02*
X117367511Y-93666986D01*
X117367511Y-93666986D02*
X117319892Y-93571748D01*
X117319892Y-93571748D02*
X117319892Y-93524129D01*
X117319892Y-93524129D02*
X117367511Y-93428891D01*
X117367511Y-93428891D02*
X117462749Y-93381272D01*
X117462749Y-93381272D02*
X117605606Y-93381272D01*
X117605606Y-93381272D02*
X117700844Y-93428891D01*
X118319892Y-94047939D02*
X118224654Y-94000320D01*
X118224654Y-94000320D02*
X118177035Y-93952700D01*
X118177035Y-93952700D02*
X118129416Y-93857462D01*
X118129416Y-93857462D02*
X118129416Y-93571748D01*
X118129416Y-93571748D02*
X118177035Y-93476510D01*
X118177035Y-93476510D02*
X118224654Y-93428891D01*
X118224654Y-93428891D02*
X118319892Y-93381272D01*
X118319892Y-93381272D02*
X118462749Y-93381272D01*
X118462749Y-93381272D02*
X118557987Y-93428891D01*
X118557987Y-93428891D02*
X118605606Y-93476510D01*
X118605606Y-93476510D02*
X118653225Y-93571748D01*
X118653225Y-93571748D02*
X118653225Y-93857462D01*
X118653225Y-93857462D02*
X118605606Y-93952700D01*
X118605606Y-93952700D02*
X118557987Y-94000320D01*
X118557987Y-94000320D02*
X118462749Y-94047939D01*
X118462749Y-94047939D02*
X118319892Y-94047939D01*
X119510368Y-93381272D02*
X119510368Y-94047939D01*
X119081797Y-93381272D02*
X119081797Y-93905081D01*
X119081797Y-93905081D02*
X119129416Y-94000320D01*
X119129416Y-94000320D02*
X119224654Y-94047939D01*
X119224654Y-94047939D02*
X119367511Y-94047939D01*
X119367511Y-94047939D02*
X119462749Y-94000320D01*
X119462749Y-94000320D02*
X119510368Y-93952700D01*
X119843702Y-93381272D02*
X120224654Y-93381272D01*
X119986559Y-93047939D02*
X119986559Y-93905081D01*
X119986559Y-93905081D02*
X120034178Y-94000320D01*
X120034178Y-94000320D02*
X120129416Y-94047939D01*
X120129416Y-94047939D02*
X120224654Y-94047939D01*
X120557988Y-94047939D02*
X120557988Y-93047939D01*
X120986559Y-94047939D02*
X120986559Y-93524129D01*
X120986559Y-93524129D02*
X120938940Y-93428891D01*
X120938940Y-93428891D02*
X120843702Y-93381272D01*
X120843702Y-93381272D02*
X120700845Y-93381272D01*
X120700845Y-93381272D02*
X120605607Y-93428891D01*
X120605607Y-93428891D02*
X120557988Y-93476510D01*
X161347379Y-98240909D02*
X161680712Y-98240909D01*
X161823569Y-98764719D02*
X161347379Y-98764719D01*
X161347379Y-98764719D02*
X161347379Y-97764719D01*
X161347379Y-97764719D02*
X161823569Y-97764719D01*
X162156903Y-98764719D02*
X162680712Y-98098052D01*
X162156903Y-98098052D02*
X162680712Y-98764719D01*
X163490236Y-98764719D02*
X163490236Y-98240909D01*
X163490236Y-98240909D02*
X163442617Y-98145671D01*
X163442617Y-98145671D02*
X163347379Y-98098052D01*
X163347379Y-98098052D02*
X163156903Y-98098052D01*
X163156903Y-98098052D02*
X163061665Y-98145671D01*
X163490236Y-98717100D02*
X163394998Y-98764719D01*
X163394998Y-98764719D02*
X163156903Y-98764719D01*
X163156903Y-98764719D02*
X163061665Y-98717100D01*
X163061665Y-98717100D02*
X163014046Y-98621861D01*
X163014046Y-98621861D02*
X163014046Y-98526623D01*
X163014046Y-98526623D02*
X163061665Y-98431385D01*
X163061665Y-98431385D02*
X163156903Y-98383766D01*
X163156903Y-98383766D02*
X163394998Y-98383766D01*
X163394998Y-98383766D02*
X163490236Y-98336147D01*
X164394998Y-98717100D02*
X164299760Y-98764719D01*
X164299760Y-98764719D02*
X164109284Y-98764719D01*
X164109284Y-98764719D02*
X164014046Y-98717100D01*
X164014046Y-98717100D02*
X163966427Y-98669480D01*
X163966427Y-98669480D02*
X163918808Y-98574242D01*
X163918808Y-98574242D02*
X163918808Y-98288528D01*
X163918808Y-98288528D02*
X163966427Y-98193290D01*
X163966427Y-98193290D02*
X164014046Y-98145671D01*
X164014046Y-98145671D02*
X164109284Y-98098052D01*
X164109284Y-98098052D02*
X164299760Y-98098052D01*
X164299760Y-98098052D02*
X164394998Y-98145671D01*
X164680713Y-98098052D02*
X165061665Y-98098052D01*
X164823570Y-97764719D02*
X164823570Y-98621861D01*
X164823570Y-98621861D02*
X164871189Y-98717100D01*
X164871189Y-98717100D02*
X164966427Y-98764719D01*
X164966427Y-98764719D02*
X165061665Y-98764719D01*
X166299761Y-98764719D02*
X166204523Y-98717100D01*
X166204523Y-98717100D02*
X166156904Y-98669480D01*
X166156904Y-98669480D02*
X166109285Y-98574242D01*
X166109285Y-98574242D02*
X166109285Y-98288528D01*
X166109285Y-98288528D02*
X166156904Y-98193290D01*
X166156904Y-98193290D02*
X166204523Y-98145671D01*
X166204523Y-98145671D02*
X166299761Y-98098052D01*
X166299761Y-98098052D02*
X166442618Y-98098052D01*
X166442618Y-98098052D02*
X166537856Y-98145671D01*
X166537856Y-98145671D02*
X166585475Y-98193290D01*
X166585475Y-98193290D02*
X166633094Y-98288528D01*
X166633094Y-98288528D02*
X166633094Y-98574242D01*
X166633094Y-98574242D02*
X166585475Y-98669480D01*
X166585475Y-98669480D02*
X166537856Y-98717100D01*
X166537856Y-98717100D02*
X166442618Y-98764719D01*
X166442618Y-98764719D02*
X166299761Y-98764719D01*
X167061666Y-98098052D02*
X167061666Y-99098052D01*
X167061666Y-98145671D02*
X167156904Y-98098052D01*
X167156904Y-98098052D02*
X167347380Y-98098052D01*
X167347380Y-98098052D02*
X167442618Y-98145671D01*
X167442618Y-98145671D02*
X167490237Y-98193290D01*
X167490237Y-98193290D02*
X167537856Y-98288528D01*
X167537856Y-98288528D02*
X167537856Y-98574242D01*
X167537856Y-98574242D02*
X167490237Y-98669480D01*
X167490237Y-98669480D02*
X167442618Y-98717100D01*
X167442618Y-98717100D02*
X167347380Y-98764719D01*
X167347380Y-98764719D02*
X167156904Y-98764719D01*
X167156904Y-98764719D02*
X167061666Y-98717100D01*
X167823571Y-98098052D02*
X168204523Y-98098052D01*
X167966428Y-97764719D02*
X167966428Y-98621861D01*
X167966428Y-98621861D02*
X168014047Y-98717100D01*
X168014047Y-98717100D02*
X168109285Y-98764719D01*
X168109285Y-98764719D02*
X168204523Y-98764719D01*
X168537857Y-98764719D02*
X168537857Y-98098052D01*
X168537857Y-97764719D02*
X168490238Y-97812338D01*
X168490238Y-97812338D02*
X168537857Y-97859957D01*
X168537857Y-97859957D02*
X168585476Y-97812338D01*
X168585476Y-97812338D02*
X168537857Y-97764719D01*
X168537857Y-97764719D02*
X168537857Y-97859957D01*
X169442618Y-98717100D02*
X169347380Y-98764719D01*
X169347380Y-98764719D02*
X169156904Y-98764719D01*
X169156904Y-98764719D02*
X169061666Y-98717100D01*
X169061666Y-98717100D02*
X169014047Y-98669480D01*
X169014047Y-98669480D02*
X168966428Y-98574242D01*
X168966428Y-98574242D02*
X168966428Y-98288528D01*
X168966428Y-98288528D02*
X169014047Y-98193290D01*
X169014047Y-98193290D02*
X169061666Y-98145671D01*
X169061666Y-98145671D02*
X169156904Y-98098052D01*
X169156904Y-98098052D02*
X169347380Y-98098052D01*
X169347380Y-98098052D02*
X169442618Y-98145671D01*
X170299761Y-98764719D02*
X170299761Y-98240909D01*
X170299761Y-98240909D02*
X170252142Y-98145671D01*
X170252142Y-98145671D02*
X170156904Y-98098052D01*
X170156904Y-98098052D02*
X169966428Y-98098052D01*
X169966428Y-98098052D02*
X169871190Y-98145671D01*
X170299761Y-98717100D02*
X170204523Y-98764719D01*
X170204523Y-98764719D02*
X169966428Y-98764719D01*
X169966428Y-98764719D02*
X169871190Y-98717100D01*
X169871190Y-98717100D02*
X169823571Y-98621861D01*
X169823571Y-98621861D02*
X169823571Y-98526623D01*
X169823571Y-98526623D02*
X169871190Y-98431385D01*
X169871190Y-98431385D02*
X169966428Y-98383766D01*
X169966428Y-98383766D02*
X170204523Y-98383766D01*
X170204523Y-98383766D02*
X170299761Y-98336147D01*
X170918809Y-98764719D02*
X170823571Y-98717100D01*
X170823571Y-98717100D02*
X170775952Y-98621861D01*
X170775952Y-98621861D02*
X170775952Y-97764719D01*
X172490238Y-98717100D02*
X172395000Y-98764719D01*
X172395000Y-98764719D02*
X172204524Y-98764719D01*
X172204524Y-98764719D02*
X172109286Y-98717100D01*
X172109286Y-98717100D02*
X172061667Y-98669480D01*
X172061667Y-98669480D02*
X172014048Y-98574242D01*
X172014048Y-98574242D02*
X172014048Y-98288528D01*
X172014048Y-98288528D02*
X172061667Y-98193290D01*
X172061667Y-98193290D02*
X172109286Y-98145671D01*
X172109286Y-98145671D02*
X172204524Y-98098052D01*
X172204524Y-98098052D02*
X172395000Y-98098052D01*
X172395000Y-98098052D02*
X172490238Y-98145671D01*
X173299762Y-98717100D02*
X173204524Y-98764719D01*
X173204524Y-98764719D02*
X173014048Y-98764719D01*
X173014048Y-98764719D02*
X172918810Y-98717100D01*
X172918810Y-98717100D02*
X172871191Y-98621861D01*
X172871191Y-98621861D02*
X172871191Y-98240909D01*
X172871191Y-98240909D02*
X172918810Y-98145671D01*
X172918810Y-98145671D02*
X173014048Y-98098052D01*
X173014048Y-98098052D02*
X173204524Y-98098052D01*
X173204524Y-98098052D02*
X173299762Y-98145671D01*
X173299762Y-98145671D02*
X173347381Y-98240909D01*
X173347381Y-98240909D02*
X173347381Y-98336147D01*
X173347381Y-98336147D02*
X172871191Y-98431385D01*
X173775953Y-98098052D02*
X173775953Y-98764719D01*
X173775953Y-98193290D02*
X173823572Y-98145671D01*
X173823572Y-98145671D02*
X173918810Y-98098052D01*
X173918810Y-98098052D02*
X174061667Y-98098052D01*
X174061667Y-98098052D02*
X174156905Y-98145671D01*
X174156905Y-98145671D02*
X174204524Y-98240909D01*
X174204524Y-98240909D02*
X174204524Y-98764719D01*
X174537858Y-98098052D02*
X174918810Y-98098052D01*
X174680715Y-97764719D02*
X174680715Y-98621861D01*
X174680715Y-98621861D02*
X174728334Y-98717100D01*
X174728334Y-98717100D02*
X174823572Y-98764719D01*
X174823572Y-98764719D02*
X174918810Y-98764719D01*
X175633096Y-98717100D02*
X175537858Y-98764719D01*
X175537858Y-98764719D02*
X175347382Y-98764719D01*
X175347382Y-98764719D02*
X175252144Y-98717100D01*
X175252144Y-98717100D02*
X175204525Y-98621861D01*
X175204525Y-98621861D02*
X175204525Y-98240909D01*
X175204525Y-98240909D02*
X175252144Y-98145671D01*
X175252144Y-98145671D02*
X175347382Y-98098052D01*
X175347382Y-98098052D02*
X175537858Y-98098052D01*
X175537858Y-98098052D02*
X175633096Y-98145671D01*
X175633096Y-98145671D02*
X175680715Y-98240909D01*
X175680715Y-98240909D02*
X175680715Y-98336147D01*
X175680715Y-98336147D02*
X175204525Y-98431385D01*
X176109287Y-98764719D02*
X176109287Y-98098052D01*
X176109287Y-98288528D02*
X176156906Y-98193290D01*
X176156906Y-98193290D02*
X176204525Y-98145671D01*
X176204525Y-98145671D02*
X176299763Y-98098052D01*
X176299763Y-98098052D02*
X176395001Y-98098052D01*
X177918811Y-98764719D02*
X177918811Y-98240909D01*
X177918811Y-98240909D02*
X177871192Y-98145671D01*
X177871192Y-98145671D02*
X177775954Y-98098052D01*
X177775954Y-98098052D02*
X177585478Y-98098052D01*
X177585478Y-98098052D02*
X177490240Y-98145671D01*
X177918811Y-98717100D02*
X177823573Y-98764719D01*
X177823573Y-98764719D02*
X177585478Y-98764719D01*
X177585478Y-98764719D02*
X177490240Y-98717100D01*
X177490240Y-98717100D02*
X177442621Y-98621861D01*
X177442621Y-98621861D02*
X177442621Y-98526623D01*
X177442621Y-98526623D02*
X177490240Y-98431385D01*
X177490240Y-98431385D02*
X177585478Y-98383766D01*
X177585478Y-98383766D02*
X177823573Y-98383766D01*
X177823573Y-98383766D02*
X177918811Y-98336147D01*
X178252145Y-98098052D02*
X178633097Y-98098052D01*
X178395002Y-97764719D02*
X178395002Y-98621861D01*
X178395002Y-98621861D02*
X178442621Y-98717100D01*
X178442621Y-98717100D02*
X178537859Y-98764719D01*
X178537859Y-98764719D02*
X178633097Y-98764719D01*
X179918812Y-97764719D02*
X180014050Y-97764719D01*
X180014050Y-97764719D02*
X180109288Y-97812338D01*
X180109288Y-97812338D02*
X180156907Y-97859957D01*
X180156907Y-97859957D02*
X180204526Y-97955195D01*
X180204526Y-97955195D02*
X180252145Y-98145671D01*
X180252145Y-98145671D02*
X180252145Y-98383766D01*
X180252145Y-98383766D02*
X180204526Y-98574242D01*
X180204526Y-98574242D02*
X180156907Y-98669480D01*
X180156907Y-98669480D02*
X180109288Y-98717100D01*
X180109288Y-98717100D02*
X180014050Y-98764719D01*
X180014050Y-98764719D02*
X179918812Y-98764719D01*
X179918812Y-98764719D02*
X179823574Y-98717100D01*
X179823574Y-98717100D02*
X179775955Y-98669480D01*
X179775955Y-98669480D02*
X179728336Y-98574242D01*
X179728336Y-98574242D02*
X179680717Y-98383766D01*
X179680717Y-98383766D02*
X179680717Y-98145671D01*
X179680717Y-98145671D02*
X179728336Y-97955195D01*
X179728336Y-97955195D02*
X179775955Y-97859957D01*
X179775955Y-97859957D02*
X179823574Y-97812338D01*
X179823574Y-97812338D02*
X179918812Y-97764719D01*
X180680717Y-98669480D02*
X180728336Y-98717100D01*
X180728336Y-98717100D02*
X180680717Y-98764719D01*
X180680717Y-98764719D02*
X180633098Y-98717100D01*
X180633098Y-98717100D02*
X180680717Y-98669480D01*
X180680717Y-98669480D02*
X180680717Y-98764719D01*
X181061669Y-97764719D02*
X181680716Y-97764719D01*
X181680716Y-97764719D02*
X181347383Y-98145671D01*
X181347383Y-98145671D02*
X181490240Y-98145671D01*
X181490240Y-98145671D02*
X181585478Y-98193290D01*
X181585478Y-98193290D02*
X181633097Y-98240909D01*
X181633097Y-98240909D02*
X181680716Y-98336147D01*
X181680716Y-98336147D02*
X181680716Y-98574242D01*
X181680716Y-98574242D02*
X181633097Y-98669480D01*
X181633097Y-98669480D02*
X181585478Y-98717100D01*
X181585478Y-98717100D02*
X181490240Y-98764719D01*
X181490240Y-98764719D02*
X181204526Y-98764719D01*
X181204526Y-98764719D02*
X181109288Y-98717100D01*
X181109288Y-98717100D02*
X181061669Y-98669480D01*
X182633097Y-98764719D02*
X182061669Y-98764719D01*
X182347383Y-98764719D02*
X182347383Y-97764719D01*
X182347383Y-97764719D02*
X182252145Y-97907576D01*
X182252145Y-97907576D02*
X182156907Y-98002814D01*
X182156907Y-98002814D02*
X182061669Y-98050433D01*
X183014050Y-97764719D02*
X183014050Y-97955195D01*
X183395002Y-97764719D02*
X183395002Y-97955195D01*
X184442622Y-98098052D02*
X184823574Y-98098052D01*
X184585479Y-98764719D02*
X184585479Y-97907576D01*
X184585479Y-97907576D02*
X184633098Y-97812338D01*
X184633098Y-97812338D02*
X184728336Y-97764719D01*
X184728336Y-97764719D02*
X184823574Y-97764719D01*
X185156908Y-98764719D02*
X185156908Y-98098052D01*
X185156908Y-98288528D02*
X185204527Y-98193290D01*
X185204527Y-98193290D02*
X185252146Y-98145671D01*
X185252146Y-98145671D02*
X185347384Y-98098052D01*
X185347384Y-98098052D02*
X185442622Y-98098052D01*
X185918813Y-98764719D02*
X185823575Y-98717100D01*
X185823575Y-98717100D02*
X185775956Y-98669480D01*
X185775956Y-98669480D02*
X185728337Y-98574242D01*
X185728337Y-98574242D02*
X185728337Y-98288528D01*
X185728337Y-98288528D02*
X185775956Y-98193290D01*
X185775956Y-98193290D02*
X185823575Y-98145671D01*
X185823575Y-98145671D02*
X185918813Y-98098052D01*
X185918813Y-98098052D02*
X186061670Y-98098052D01*
X186061670Y-98098052D02*
X186156908Y-98145671D01*
X186156908Y-98145671D02*
X186204527Y-98193290D01*
X186204527Y-98193290D02*
X186252146Y-98288528D01*
X186252146Y-98288528D02*
X186252146Y-98574242D01*
X186252146Y-98574242D02*
X186204527Y-98669480D01*
X186204527Y-98669480D02*
X186156908Y-98717100D01*
X186156908Y-98717100D02*
X186061670Y-98764719D01*
X186061670Y-98764719D02*
X185918813Y-98764719D01*
X186680718Y-98764719D02*
X186680718Y-98098052D01*
X186680718Y-98193290D02*
X186728337Y-98145671D01*
X186728337Y-98145671D02*
X186823575Y-98098052D01*
X186823575Y-98098052D02*
X186966432Y-98098052D01*
X186966432Y-98098052D02*
X187061670Y-98145671D01*
X187061670Y-98145671D02*
X187109289Y-98240909D01*
X187109289Y-98240909D02*
X187109289Y-98764719D01*
X187109289Y-98240909D02*
X187156908Y-98145671D01*
X187156908Y-98145671D02*
X187252146Y-98098052D01*
X187252146Y-98098052D02*
X187395003Y-98098052D01*
X187395003Y-98098052D02*
X187490242Y-98145671D01*
X187490242Y-98145671D02*
X187537861Y-98240909D01*
X187537861Y-98240909D02*
X187537861Y-98764719D01*
X188775956Y-98764719D02*
X188775956Y-97764719D01*
X188775956Y-97764719D02*
X189347384Y-98764719D01*
X189347384Y-98764719D02*
X189347384Y-97764719D01*
X189966432Y-98764719D02*
X189871194Y-98717100D01*
X189871194Y-98717100D02*
X189823575Y-98669480D01*
X189823575Y-98669480D02*
X189775956Y-98574242D01*
X189775956Y-98574242D02*
X189775956Y-98288528D01*
X189775956Y-98288528D02*
X189823575Y-98193290D01*
X189823575Y-98193290D02*
X189871194Y-98145671D01*
X189871194Y-98145671D02*
X189966432Y-98098052D01*
X189966432Y-98098052D02*
X190109289Y-98098052D01*
X190109289Y-98098052D02*
X190204527Y-98145671D01*
X190204527Y-98145671D02*
X190252146Y-98193290D01*
X190252146Y-98193290D02*
X190299765Y-98288528D01*
X190299765Y-98288528D02*
X190299765Y-98574242D01*
X190299765Y-98574242D02*
X190252146Y-98669480D01*
X190252146Y-98669480D02*
X190204527Y-98717100D01*
X190204527Y-98717100D02*
X190109289Y-98764719D01*
X190109289Y-98764719D02*
X189966432Y-98764719D01*
X190728337Y-98764719D02*
X190728337Y-98098052D01*
X190728337Y-98288528D02*
X190775956Y-98193290D01*
X190775956Y-98193290D02*
X190823575Y-98145671D01*
X190823575Y-98145671D02*
X190918813Y-98098052D01*
X190918813Y-98098052D02*
X191014051Y-98098052D01*
X191204528Y-98098052D02*
X191585480Y-98098052D01*
X191347385Y-97764719D02*
X191347385Y-98621861D01*
X191347385Y-98621861D02*
X191395004Y-98717100D01*
X191395004Y-98717100D02*
X191490242Y-98764719D01*
X191490242Y-98764719D02*
X191585480Y-98764719D01*
X191918814Y-98764719D02*
X191918814Y-97764719D01*
X192347385Y-98764719D02*
X192347385Y-98240909D01*
X192347385Y-98240909D02*
X192299766Y-98145671D01*
X192299766Y-98145671D02*
X192204528Y-98098052D01*
X192204528Y-98098052D02*
X192061671Y-98098052D01*
X192061671Y-98098052D02*
X191966433Y-98145671D01*
X191966433Y-98145671D02*
X191918814Y-98193290D01*
X194014052Y-98764719D02*
X194014052Y-98240909D01*
X194014052Y-98240909D02*
X193966433Y-98145671D01*
X193966433Y-98145671D02*
X193871195Y-98098052D01*
X193871195Y-98098052D02*
X193680719Y-98098052D01*
X193680719Y-98098052D02*
X193585481Y-98145671D01*
X194014052Y-98717100D02*
X193918814Y-98764719D01*
X193918814Y-98764719D02*
X193680719Y-98764719D01*
X193680719Y-98764719D02*
X193585481Y-98717100D01*
X193585481Y-98717100D02*
X193537862Y-98621861D01*
X193537862Y-98621861D02*
X193537862Y-98526623D01*
X193537862Y-98526623D02*
X193585481Y-98431385D01*
X193585481Y-98431385D02*
X193680719Y-98383766D01*
X193680719Y-98383766D02*
X193918814Y-98383766D01*
X193918814Y-98383766D02*
X194014052Y-98336147D01*
X194490243Y-98098052D02*
X194490243Y-98764719D01*
X194490243Y-98193290D02*
X194537862Y-98145671D01*
X194537862Y-98145671D02*
X194633100Y-98098052D01*
X194633100Y-98098052D02*
X194775957Y-98098052D01*
X194775957Y-98098052D02*
X194871195Y-98145671D01*
X194871195Y-98145671D02*
X194918814Y-98240909D01*
X194918814Y-98240909D02*
X194918814Y-98764719D01*
X195823576Y-98764719D02*
X195823576Y-97764719D01*
X195823576Y-98717100D02*
X195728338Y-98764719D01*
X195728338Y-98764719D02*
X195537862Y-98764719D01*
X195537862Y-98764719D02*
X195442624Y-98717100D01*
X195442624Y-98717100D02*
X195395005Y-98669480D01*
X195395005Y-98669480D02*
X195347386Y-98574242D01*
X195347386Y-98574242D02*
X195347386Y-98288528D01*
X195347386Y-98288528D02*
X195395005Y-98193290D01*
X195395005Y-98193290D02*
X195442624Y-98145671D01*
X195442624Y-98145671D02*
X195537862Y-98098052D01*
X195537862Y-98098052D02*
X195728338Y-98098052D01*
X195728338Y-98098052D02*
X195823576Y-98145671D01*
X196966434Y-97764719D02*
X197204529Y-98764719D01*
X197204529Y-98764719D02*
X197395005Y-98050433D01*
X197395005Y-98050433D02*
X197585481Y-98764719D01*
X197585481Y-98764719D02*
X197823577Y-97764719D01*
X198585481Y-98717100D02*
X198490243Y-98764719D01*
X198490243Y-98764719D02*
X198299767Y-98764719D01*
X198299767Y-98764719D02*
X198204529Y-98717100D01*
X198204529Y-98717100D02*
X198156910Y-98621861D01*
X198156910Y-98621861D02*
X198156910Y-98240909D01*
X198156910Y-98240909D02*
X198204529Y-98145671D01*
X198204529Y-98145671D02*
X198299767Y-98098052D01*
X198299767Y-98098052D02*
X198490243Y-98098052D01*
X198490243Y-98098052D02*
X198585481Y-98145671D01*
X198585481Y-98145671D02*
X198633100Y-98240909D01*
X198633100Y-98240909D02*
X198633100Y-98336147D01*
X198633100Y-98336147D02*
X198156910Y-98431385D01*
X199014053Y-98717100D02*
X199109291Y-98764719D01*
X199109291Y-98764719D02*
X199299767Y-98764719D01*
X199299767Y-98764719D02*
X199395005Y-98717100D01*
X199395005Y-98717100D02*
X199442624Y-98621861D01*
X199442624Y-98621861D02*
X199442624Y-98574242D01*
X199442624Y-98574242D02*
X199395005Y-98479004D01*
X199395005Y-98479004D02*
X199299767Y-98431385D01*
X199299767Y-98431385D02*
X199156910Y-98431385D01*
X199156910Y-98431385D02*
X199061672Y-98383766D01*
X199061672Y-98383766D02*
X199014053Y-98288528D01*
X199014053Y-98288528D02*
X199014053Y-98240909D01*
X199014053Y-98240909D02*
X199061672Y-98145671D01*
X199061672Y-98145671D02*
X199156910Y-98098052D01*
X199156910Y-98098052D02*
X199299767Y-98098052D01*
X199299767Y-98098052D02*
X199395005Y-98145671D01*
X199728339Y-98098052D02*
X200109291Y-98098052D01*
X199871196Y-97764719D02*
X199871196Y-98621861D01*
X199871196Y-98621861D02*
X199918815Y-98717100D01*
X199918815Y-98717100D02*
X200014053Y-98764719D01*
X200014053Y-98764719D02*
X200109291Y-98764719D01*
X201204530Y-98764719D02*
X201204530Y-97764719D01*
X201204530Y-98145671D02*
X201299768Y-98098052D01*
X201299768Y-98098052D02*
X201490244Y-98098052D01*
X201490244Y-98098052D02*
X201585482Y-98145671D01*
X201585482Y-98145671D02*
X201633101Y-98193290D01*
X201633101Y-98193290D02*
X201680720Y-98288528D01*
X201680720Y-98288528D02*
X201680720Y-98574242D01*
X201680720Y-98574242D02*
X201633101Y-98669480D01*
X201633101Y-98669480D02*
X201585482Y-98717100D01*
X201585482Y-98717100D02*
X201490244Y-98764719D01*
X201490244Y-98764719D02*
X201299768Y-98764719D01*
X201299768Y-98764719D02*
X201204530Y-98717100D01*
X202252149Y-98764719D02*
X202156911Y-98717100D01*
X202156911Y-98717100D02*
X202109292Y-98669480D01*
X202109292Y-98669480D02*
X202061673Y-98574242D01*
X202061673Y-98574242D02*
X202061673Y-98288528D01*
X202061673Y-98288528D02*
X202109292Y-98193290D01*
X202109292Y-98193290D02*
X202156911Y-98145671D01*
X202156911Y-98145671D02*
X202252149Y-98098052D01*
X202252149Y-98098052D02*
X202395006Y-98098052D01*
X202395006Y-98098052D02*
X202490244Y-98145671D01*
X202490244Y-98145671D02*
X202537863Y-98193290D01*
X202537863Y-98193290D02*
X202585482Y-98288528D01*
X202585482Y-98288528D02*
X202585482Y-98574242D01*
X202585482Y-98574242D02*
X202537863Y-98669480D01*
X202537863Y-98669480D02*
X202490244Y-98717100D01*
X202490244Y-98717100D02*
X202395006Y-98764719D01*
X202395006Y-98764719D02*
X202252149Y-98764719D01*
X203442625Y-98764719D02*
X203442625Y-98240909D01*
X203442625Y-98240909D02*
X203395006Y-98145671D01*
X203395006Y-98145671D02*
X203299768Y-98098052D01*
X203299768Y-98098052D02*
X203109292Y-98098052D01*
X203109292Y-98098052D02*
X203014054Y-98145671D01*
X203442625Y-98717100D02*
X203347387Y-98764719D01*
X203347387Y-98764719D02*
X203109292Y-98764719D01*
X203109292Y-98764719D02*
X203014054Y-98717100D01*
X203014054Y-98717100D02*
X202966435Y-98621861D01*
X202966435Y-98621861D02*
X202966435Y-98526623D01*
X202966435Y-98526623D02*
X203014054Y-98431385D01*
X203014054Y-98431385D02*
X203109292Y-98383766D01*
X203109292Y-98383766D02*
X203347387Y-98383766D01*
X203347387Y-98383766D02*
X203442625Y-98336147D01*
X203918816Y-98764719D02*
X203918816Y-98098052D01*
X203918816Y-98288528D02*
X203966435Y-98193290D01*
X203966435Y-98193290D02*
X204014054Y-98145671D01*
X204014054Y-98145671D02*
X204109292Y-98098052D01*
X204109292Y-98098052D02*
X204204530Y-98098052D01*
X204966435Y-98764719D02*
X204966435Y-97764719D01*
X204966435Y-98717100D02*
X204871197Y-98764719D01*
X204871197Y-98764719D02*
X204680721Y-98764719D01*
X204680721Y-98764719D02*
X204585483Y-98717100D01*
X204585483Y-98717100D02*
X204537864Y-98669480D01*
X204537864Y-98669480D02*
X204490245Y-98574242D01*
X204490245Y-98574242D02*
X204490245Y-98288528D01*
X204490245Y-98288528D02*
X204537864Y-98193290D01*
X204537864Y-98193290D02*
X204585483Y-98145671D01*
X204585483Y-98145671D02*
X204680721Y-98098052D01*
X204680721Y-98098052D02*
X204871197Y-98098052D01*
X204871197Y-98098052D02*
X204966435Y-98145671D01*
X206585483Y-98717100D02*
X206490245Y-98764719D01*
X206490245Y-98764719D02*
X206299769Y-98764719D01*
X206299769Y-98764719D02*
X206204531Y-98717100D01*
X206204531Y-98717100D02*
X206156912Y-98621861D01*
X206156912Y-98621861D02*
X206156912Y-98240909D01*
X206156912Y-98240909D02*
X206204531Y-98145671D01*
X206204531Y-98145671D02*
X206299769Y-98098052D01*
X206299769Y-98098052D02*
X206490245Y-98098052D01*
X206490245Y-98098052D02*
X206585483Y-98145671D01*
X206585483Y-98145671D02*
X206633102Y-98240909D01*
X206633102Y-98240909D02*
X206633102Y-98336147D01*
X206633102Y-98336147D02*
X206156912Y-98431385D01*
X207490245Y-98764719D02*
X207490245Y-97764719D01*
X207490245Y-98717100D02*
X207395007Y-98764719D01*
X207395007Y-98764719D02*
X207204531Y-98764719D01*
X207204531Y-98764719D02*
X207109293Y-98717100D01*
X207109293Y-98717100D02*
X207061674Y-98669480D01*
X207061674Y-98669480D02*
X207014055Y-98574242D01*
X207014055Y-98574242D02*
X207014055Y-98288528D01*
X207014055Y-98288528D02*
X207061674Y-98193290D01*
X207061674Y-98193290D02*
X207109293Y-98145671D01*
X207109293Y-98145671D02*
X207204531Y-98098052D01*
X207204531Y-98098052D02*
X207395007Y-98098052D01*
X207395007Y-98098052D02*
X207490245Y-98145671D01*
X208395007Y-98098052D02*
X208395007Y-98907576D01*
X208395007Y-98907576D02*
X208347388Y-99002814D01*
X208347388Y-99002814D02*
X208299769Y-99050433D01*
X208299769Y-99050433D02*
X208204531Y-99098052D01*
X208204531Y-99098052D02*
X208061674Y-99098052D01*
X208061674Y-99098052D02*
X207966436Y-99050433D01*
X208395007Y-98717100D02*
X208299769Y-98764719D01*
X208299769Y-98764719D02*
X208109293Y-98764719D01*
X208109293Y-98764719D02*
X208014055Y-98717100D01*
X208014055Y-98717100D02*
X207966436Y-98669480D01*
X207966436Y-98669480D02*
X207918817Y-98574242D01*
X207918817Y-98574242D02*
X207918817Y-98288528D01*
X207918817Y-98288528D02*
X207966436Y-98193290D01*
X207966436Y-98193290D02*
X208014055Y-98145671D01*
X208014055Y-98145671D02*
X208109293Y-98098052D01*
X208109293Y-98098052D02*
X208299769Y-98098052D01*
X208299769Y-98098052D02*
X208395007Y-98145671D01*
X209252150Y-98717100D02*
X209156912Y-98764719D01*
X209156912Y-98764719D02*
X208966436Y-98764719D01*
X208966436Y-98764719D02*
X208871198Y-98717100D01*
X208871198Y-98717100D02*
X208823579Y-98621861D01*
X208823579Y-98621861D02*
X208823579Y-98240909D01*
X208823579Y-98240909D02*
X208871198Y-98145671D01*
X208871198Y-98145671D02*
X208966436Y-98098052D01*
X208966436Y-98098052D02*
X209156912Y-98098052D01*
X209156912Y-98098052D02*
X209252150Y-98145671D01*
X209252150Y-98145671D02*
X209299769Y-98240909D01*
X209299769Y-98240909D02*
X209299769Y-98336147D01*
X209299769Y-98336147D02*
X208823579Y-98431385D01*
X209680722Y-98717100D02*
X209775960Y-98764719D01*
X209775960Y-98764719D02*
X209966436Y-98764719D01*
X209966436Y-98764719D02*
X210061674Y-98717100D01*
X210061674Y-98717100D02*
X210109293Y-98621861D01*
X210109293Y-98621861D02*
X210109293Y-98574242D01*
X210109293Y-98574242D02*
X210061674Y-98479004D01*
X210061674Y-98479004D02*
X209966436Y-98431385D01*
X209966436Y-98431385D02*
X209823579Y-98431385D01*
X209823579Y-98431385D02*
X209728341Y-98383766D01*
X209728341Y-98383766D02*
X209680722Y-98288528D01*
X209680722Y-98288528D02*
X209680722Y-98240909D01*
X209680722Y-98240909D02*
X209728341Y-98145671D01*
X209728341Y-98145671D02*
X209823579Y-98098052D01*
X209823579Y-98098052D02*
X209966436Y-98098052D01*
X209966436Y-98098052D02*
X210061674Y-98145671D01*
X160999399Y-101308019D02*
X160999399Y-102117542D01*
X160999399Y-102117542D02*
X161047018Y-102212780D01*
X161047018Y-102212780D02*
X161094637Y-102260400D01*
X161094637Y-102260400D02*
X161189875Y-102308019D01*
X161189875Y-102308019D02*
X161380351Y-102308019D01*
X161380351Y-102308019D02*
X161475589Y-102260400D01*
X161475589Y-102260400D02*
X161523208Y-102212780D01*
X161523208Y-102212780D02*
X161570827Y-102117542D01*
X161570827Y-102117542D02*
X161570827Y-101308019D01*
X161999399Y-102260400D02*
X162094637Y-102308019D01*
X162094637Y-102308019D02*
X162285113Y-102308019D01*
X162285113Y-102308019D02*
X162380351Y-102260400D01*
X162380351Y-102260400D02*
X162427970Y-102165161D01*
X162427970Y-102165161D02*
X162427970Y-102117542D01*
X162427970Y-102117542D02*
X162380351Y-102022304D01*
X162380351Y-102022304D02*
X162285113Y-101974685D01*
X162285113Y-101974685D02*
X162142256Y-101974685D01*
X162142256Y-101974685D02*
X162047018Y-101927066D01*
X162047018Y-101927066D02*
X161999399Y-101831828D01*
X161999399Y-101831828D02*
X161999399Y-101784209D01*
X161999399Y-101784209D02*
X162047018Y-101688971D01*
X162047018Y-101688971D02*
X162142256Y-101641352D01*
X162142256Y-101641352D02*
X162285113Y-101641352D01*
X162285113Y-101641352D02*
X162380351Y-101688971D01*
X163237494Y-102260400D02*
X163142256Y-102308019D01*
X163142256Y-102308019D02*
X162951780Y-102308019D01*
X162951780Y-102308019D02*
X162856542Y-102260400D01*
X162856542Y-102260400D02*
X162808923Y-102165161D01*
X162808923Y-102165161D02*
X162808923Y-101784209D01*
X162808923Y-101784209D02*
X162856542Y-101688971D01*
X162856542Y-101688971D02*
X162951780Y-101641352D01*
X162951780Y-101641352D02*
X163142256Y-101641352D01*
X163142256Y-101641352D02*
X163237494Y-101688971D01*
X163237494Y-101688971D02*
X163285113Y-101784209D01*
X163285113Y-101784209D02*
X163285113Y-101879447D01*
X163285113Y-101879447D02*
X162808923Y-101974685D01*
X163713685Y-102308019D02*
X163713685Y-101641352D01*
X163713685Y-101831828D02*
X163761304Y-101736590D01*
X163761304Y-101736590D02*
X163808923Y-101688971D01*
X163808923Y-101688971D02*
X163904161Y-101641352D01*
X163904161Y-101641352D02*
X163999399Y-101641352D01*
X164332733Y-102212780D02*
X164380352Y-102260400D01*
X164380352Y-102260400D02*
X164332733Y-102308019D01*
X164332733Y-102308019D02*
X164285114Y-102260400D01*
X164285114Y-102260400D02*
X164332733Y-102212780D01*
X164332733Y-102212780D02*
X164332733Y-102308019D01*
X164808923Y-102308019D02*
X164808923Y-101308019D01*
X164808923Y-101308019D02*
X165047018Y-101308019D01*
X165047018Y-101308019D02*
X165189875Y-101355638D01*
X165189875Y-101355638D02*
X165285113Y-101450876D01*
X165285113Y-101450876D02*
X165332732Y-101546114D01*
X165332732Y-101546114D02*
X165380351Y-101736590D01*
X165380351Y-101736590D02*
X165380351Y-101879447D01*
X165380351Y-101879447D02*
X165332732Y-102069923D01*
X165332732Y-102069923D02*
X165285113Y-102165161D01*
X165285113Y-102165161D02*
X165189875Y-102260400D01*
X165189875Y-102260400D02*
X165047018Y-102308019D01*
X165047018Y-102308019D02*
X164808923Y-102308019D01*
X165808923Y-102308019D02*
X165808923Y-101641352D01*
X165808923Y-101831828D02*
X165856542Y-101736590D01*
X165856542Y-101736590D02*
X165904161Y-101688971D01*
X165904161Y-101688971D02*
X165999399Y-101641352D01*
X165999399Y-101641352D02*
X166094637Y-101641352D01*
X166856542Y-102308019D02*
X166856542Y-101784209D01*
X166856542Y-101784209D02*
X166808923Y-101688971D01*
X166808923Y-101688971D02*
X166713685Y-101641352D01*
X166713685Y-101641352D02*
X166523209Y-101641352D01*
X166523209Y-101641352D02*
X166427971Y-101688971D01*
X166856542Y-102260400D02*
X166761304Y-102308019D01*
X166761304Y-102308019D02*
X166523209Y-102308019D01*
X166523209Y-102308019D02*
X166427971Y-102260400D01*
X166427971Y-102260400D02*
X166380352Y-102165161D01*
X166380352Y-102165161D02*
X166380352Y-102069923D01*
X166380352Y-102069923D02*
X166427971Y-101974685D01*
X166427971Y-101974685D02*
X166523209Y-101927066D01*
X166523209Y-101927066D02*
X166761304Y-101927066D01*
X166761304Y-101927066D02*
X166856542Y-101879447D01*
X167237495Y-101641352D02*
X167427971Y-102308019D01*
X167427971Y-102308019D02*
X167618447Y-101831828D01*
X167618447Y-101831828D02*
X167808923Y-102308019D01*
X167808923Y-102308019D02*
X167999399Y-101641352D01*
X168380352Y-102308019D02*
X168380352Y-101641352D01*
X168380352Y-101308019D02*
X168332733Y-101355638D01*
X168332733Y-101355638D02*
X168380352Y-101403257D01*
X168380352Y-101403257D02*
X168427971Y-101355638D01*
X168427971Y-101355638D02*
X168380352Y-101308019D01*
X168380352Y-101308019D02*
X168380352Y-101403257D01*
X168856542Y-101641352D02*
X168856542Y-102308019D01*
X168856542Y-101736590D02*
X168904161Y-101688971D01*
X168904161Y-101688971D02*
X168999399Y-101641352D01*
X168999399Y-101641352D02*
X169142256Y-101641352D01*
X169142256Y-101641352D02*
X169237494Y-101688971D01*
X169237494Y-101688971D02*
X169285113Y-101784209D01*
X169285113Y-101784209D02*
X169285113Y-102308019D01*
X170189875Y-101641352D02*
X170189875Y-102450876D01*
X170189875Y-102450876D02*
X170142256Y-102546114D01*
X170142256Y-102546114D02*
X170094637Y-102593733D01*
X170094637Y-102593733D02*
X169999399Y-102641352D01*
X169999399Y-102641352D02*
X169856542Y-102641352D01*
X169856542Y-102641352D02*
X169761304Y-102593733D01*
X170189875Y-102260400D02*
X170094637Y-102308019D01*
X170094637Y-102308019D02*
X169904161Y-102308019D01*
X169904161Y-102308019D02*
X169808923Y-102260400D01*
X169808923Y-102260400D02*
X169761304Y-102212780D01*
X169761304Y-102212780D02*
X169713685Y-102117542D01*
X169713685Y-102117542D02*
X169713685Y-101831828D01*
X169713685Y-101831828D02*
X169761304Y-101736590D01*
X169761304Y-101736590D02*
X169808923Y-101688971D01*
X169808923Y-101688971D02*
X169904161Y-101641352D01*
X169904161Y-101641352D02*
X170094637Y-101641352D01*
X170094637Y-101641352D02*
X170189875Y-101688971D01*
X170618447Y-102260400D02*
X170713685Y-102308019D01*
X170713685Y-102308019D02*
X170904161Y-102308019D01*
X170904161Y-102308019D02*
X170999399Y-102260400D01*
X170999399Y-102260400D02*
X171047018Y-102165161D01*
X171047018Y-102165161D02*
X171047018Y-102117542D01*
X171047018Y-102117542D02*
X170999399Y-102022304D01*
X170999399Y-102022304D02*
X170904161Y-101974685D01*
X170904161Y-101974685D02*
X170761304Y-101974685D01*
X170761304Y-101974685D02*
X170666066Y-101927066D01*
X170666066Y-101927066D02*
X170618447Y-101831828D01*
X170618447Y-101831828D02*
X170618447Y-101784209D01*
X170618447Y-101784209D02*
X170666066Y-101688971D01*
X170666066Y-101688971D02*
X170761304Y-101641352D01*
X170761304Y-101641352D02*
X170904161Y-101641352D01*
X170904161Y-101641352D02*
X170999399Y-101688971D01*
X172380352Y-102308019D02*
X172285114Y-102260400D01*
X172285114Y-102260400D02*
X172237495Y-102165161D01*
X172237495Y-102165161D02*
X172237495Y-101308019D01*
X173189876Y-102308019D02*
X173189876Y-101784209D01*
X173189876Y-101784209D02*
X173142257Y-101688971D01*
X173142257Y-101688971D02*
X173047019Y-101641352D01*
X173047019Y-101641352D02*
X172856543Y-101641352D01*
X172856543Y-101641352D02*
X172761305Y-101688971D01*
X173189876Y-102260400D02*
X173094638Y-102308019D01*
X173094638Y-102308019D02*
X172856543Y-102308019D01*
X172856543Y-102308019D02*
X172761305Y-102260400D01*
X172761305Y-102260400D02*
X172713686Y-102165161D01*
X172713686Y-102165161D02*
X172713686Y-102069923D01*
X172713686Y-102069923D02*
X172761305Y-101974685D01*
X172761305Y-101974685D02*
X172856543Y-101927066D01*
X172856543Y-101927066D02*
X173094638Y-101927066D01*
X173094638Y-101927066D02*
X173189876Y-101879447D01*
X173570829Y-101641352D02*
X173808924Y-102308019D01*
X174047019Y-101641352D02*
X173808924Y-102308019D01*
X173808924Y-102308019D02*
X173713686Y-102546114D01*
X173713686Y-102546114D02*
X173666067Y-102593733D01*
X173666067Y-102593733D02*
X173570829Y-102641352D01*
X174808924Y-102260400D02*
X174713686Y-102308019D01*
X174713686Y-102308019D02*
X174523210Y-102308019D01*
X174523210Y-102308019D02*
X174427972Y-102260400D01*
X174427972Y-102260400D02*
X174380353Y-102165161D01*
X174380353Y-102165161D02*
X174380353Y-101784209D01*
X174380353Y-101784209D02*
X174427972Y-101688971D01*
X174427972Y-101688971D02*
X174523210Y-101641352D01*
X174523210Y-101641352D02*
X174713686Y-101641352D01*
X174713686Y-101641352D02*
X174808924Y-101688971D01*
X174808924Y-101688971D02*
X174856543Y-101784209D01*
X174856543Y-101784209D02*
X174856543Y-101879447D01*
X174856543Y-101879447D02*
X174380353Y-101974685D01*
X175285115Y-102308019D02*
X175285115Y-101641352D01*
X175285115Y-101831828D02*
X175332734Y-101736590D01*
X175332734Y-101736590D02*
X175380353Y-101688971D01*
X175380353Y-101688971D02*
X175475591Y-101641352D01*
X175475591Y-101641352D02*
X175570829Y-101641352D01*
X176666068Y-102308019D02*
X176666068Y-101641352D01*
X176666068Y-101308019D02*
X176618449Y-101355638D01*
X176618449Y-101355638D02*
X176666068Y-101403257D01*
X176666068Y-101403257D02*
X176713687Y-101355638D01*
X176713687Y-101355638D02*
X176666068Y-101308019D01*
X176666068Y-101308019D02*
X176666068Y-101403257D01*
X177094639Y-102260400D02*
X177189877Y-102308019D01*
X177189877Y-102308019D02*
X177380353Y-102308019D01*
X177380353Y-102308019D02*
X177475591Y-102260400D01*
X177475591Y-102260400D02*
X177523210Y-102165161D01*
X177523210Y-102165161D02*
X177523210Y-102117542D01*
X177523210Y-102117542D02*
X177475591Y-102022304D01*
X177475591Y-102022304D02*
X177380353Y-101974685D01*
X177380353Y-101974685D02*
X177237496Y-101974685D01*
X177237496Y-101974685D02*
X177142258Y-101927066D01*
X177142258Y-101927066D02*
X177094639Y-101831828D01*
X177094639Y-101831828D02*
X177094639Y-101784209D01*
X177094639Y-101784209D02*
X177142258Y-101688971D01*
X177142258Y-101688971D02*
X177237496Y-101641352D01*
X177237496Y-101641352D02*
X177380353Y-101641352D01*
X177380353Y-101641352D02*
X177475591Y-101688971D01*
X179142258Y-102308019D02*
X179142258Y-101308019D01*
X179142258Y-102260400D02*
X179047020Y-102308019D01*
X179047020Y-102308019D02*
X178856544Y-102308019D01*
X178856544Y-102308019D02*
X178761306Y-102260400D01*
X178761306Y-102260400D02*
X178713687Y-102212780D01*
X178713687Y-102212780D02*
X178666068Y-102117542D01*
X178666068Y-102117542D02*
X178666068Y-101831828D01*
X178666068Y-101831828D02*
X178713687Y-101736590D01*
X178713687Y-101736590D02*
X178761306Y-101688971D01*
X178761306Y-101688971D02*
X178856544Y-101641352D01*
X178856544Y-101641352D02*
X179047020Y-101641352D01*
X179047020Y-101641352D02*
X179142258Y-101688971D01*
X179618449Y-102308019D02*
X179618449Y-101641352D01*
X179618449Y-101308019D02*
X179570830Y-101355638D01*
X179570830Y-101355638D02*
X179618449Y-101403257D01*
X179618449Y-101403257D02*
X179666068Y-101355638D01*
X179666068Y-101355638D02*
X179618449Y-101308019D01*
X179618449Y-101308019D02*
X179618449Y-101403257D01*
X180094639Y-102308019D02*
X180094639Y-101641352D01*
X180094639Y-101831828D02*
X180142258Y-101736590D01*
X180142258Y-101736590D02*
X180189877Y-101688971D01*
X180189877Y-101688971D02*
X180285115Y-101641352D01*
X180285115Y-101641352D02*
X180380353Y-101641352D01*
X181094639Y-102260400D02*
X180999401Y-102308019D01*
X180999401Y-102308019D02*
X180808925Y-102308019D01*
X180808925Y-102308019D02*
X180713687Y-102260400D01*
X180713687Y-102260400D02*
X180666068Y-102165161D01*
X180666068Y-102165161D02*
X180666068Y-101784209D01*
X180666068Y-101784209D02*
X180713687Y-101688971D01*
X180713687Y-101688971D02*
X180808925Y-101641352D01*
X180808925Y-101641352D02*
X180999401Y-101641352D01*
X180999401Y-101641352D02*
X181094639Y-101688971D01*
X181094639Y-101688971D02*
X181142258Y-101784209D01*
X181142258Y-101784209D02*
X181142258Y-101879447D01*
X181142258Y-101879447D02*
X180666068Y-101974685D01*
X181999401Y-102260400D02*
X181904163Y-102308019D01*
X181904163Y-102308019D02*
X181713687Y-102308019D01*
X181713687Y-102308019D02*
X181618449Y-102260400D01*
X181618449Y-102260400D02*
X181570830Y-102212780D01*
X181570830Y-102212780D02*
X181523211Y-102117542D01*
X181523211Y-102117542D02*
X181523211Y-101831828D01*
X181523211Y-101831828D02*
X181570830Y-101736590D01*
X181570830Y-101736590D02*
X181618449Y-101688971D01*
X181618449Y-101688971D02*
X181713687Y-101641352D01*
X181713687Y-101641352D02*
X181904163Y-101641352D01*
X181904163Y-101641352D02*
X181999401Y-101688971D01*
X182285116Y-101641352D02*
X182666068Y-101641352D01*
X182427973Y-101308019D02*
X182427973Y-102165161D01*
X182427973Y-102165161D02*
X182475592Y-102260400D01*
X182475592Y-102260400D02*
X182570830Y-102308019D01*
X182570830Y-102308019D02*
X182666068Y-102308019D01*
X183761307Y-102308019D02*
X183761307Y-101308019D01*
X184189878Y-102308019D02*
X184189878Y-101784209D01*
X184189878Y-101784209D02*
X184142259Y-101688971D01*
X184142259Y-101688971D02*
X184047021Y-101641352D01*
X184047021Y-101641352D02*
X183904164Y-101641352D01*
X183904164Y-101641352D02*
X183808926Y-101688971D01*
X183808926Y-101688971D02*
X183761307Y-101736590D01*
X185047021Y-102260400D02*
X184951783Y-102308019D01*
X184951783Y-102308019D02*
X184761307Y-102308019D01*
X184761307Y-102308019D02*
X184666069Y-102260400D01*
X184666069Y-102260400D02*
X184618450Y-102165161D01*
X184618450Y-102165161D02*
X184618450Y-101784209D01*
X184618450Y-101784209D02*
X184666069Y-101688971D01*
X184666069Y-101688971D02*
X184761307Y-101641352D01*
X184761307Y-101641352D02*
X184951783Y-101641352D01*
X184951783Y-101641352D02*
X185047021Y-101688971D01*
X185047021Y-101688971D02*
X185094640Y-101784209D01*
X185094640Y-101784209D02*
X185094640Y-101879447D01*
X185094640Y-101879447D02*
X184618450Y-101974685D01*
X185951783Y-102308019D02*
X185951783Y-101784209D01*
X185951783Y-101784209D02*
X185904164Y-101688971D01*
X185904164Y-101688971D02*
X185808926Y-101641352D01*
X185808926Y-101641352D02*
X185618450Y-101641352D01*
X185618450Y-101641352D02*
X185523212Y-101688971D01*
X185951783Y-102260400D02*
X185856545Y-102308019D01*
X185856545Y-102308019D02*
X185618450Y-102308019D01*
X185618450Y-102308019D02*
X185523212Y-102260400D01*
X185523212Y-102260400D02*
X185475593Y-102165161D01*
X185475593Y-102165161D02*
X185475593Y-102069923D01*
X185475593Y-102069923D02*
X185523212Y-101974685D01*
X185523212Y-101974685D02*
X185618450Y-101927066D01*
X185618450Y-101927066D02*
X185856545Y-101927066D01*
X185856545Y-101927066D02*
X185951783Y-101879447D01*
X186285117Y-101641352D02*
X186666069Y-101641352D01*
X186427974Y-101308019D02*
X186427974Y-102165161D01*
X186427974Y-102165161D02*
X186475593Y-102260400D01*
X186475593Y-102260400D02*
X186570831Y-102308019D01*
X186570831Y-102308019D02*
X186666069Y-102308019D01*
X186951784Y-102260400D02*
X187047022Y-102308019D01*
X187047022Y-102308019D02*
X187237498Y-102308019D01*
X187237498Y-102308019D02*
X187332736Y-102260400D01*
X187332736Y-102260400D02*
X187380355Y-102165161D01*
X187380355Y-102165161D02*
X187380355Y-102117542D01*
X187380355Y-102117542D02*
X187332736Y-102022304D01*
X187332736Y-102022304D02*
X187237498Y-101974685D01*
X187237498Y-101974685D02*
X187094641Y-101974685D01*
X187094641Y-101974685D02*
X186999403Y-101927066D01*
X186999403Y-101927066D02*
X186951784Y-101831828D01*
X186951784Y-101831828D02*
X186951784Y-101784209D01*
X186951784Y-101784209D02*
X186999403Y-101688971D01*
X186999403Y-101688971D02*
X187094641Y-101641352D01*
X187094641Y-101641352D02*
X187237498Y-101641352D01*
X187237498Y-101641352D02*
X187332736Y-101688971D01*
X187808927Y-102308019D02*
X187808927Y-101641352D01*
X187808927Y-101308019D02*
X187761308Y-101355638D01*
X187761308Y-101355638D02*
X187808927Y-101403257D01*
X187808927Y-101403257D02*
X187856546Y-101355638D01*
X187856546Y-101355638D02*
X187808927Y-101308019D01*
X187808927Y-101308019D02*
X187808927Y-101403257D01*
X188285117Y-101641352D02*
X188285117Y-102308019D01*
X188285117Y-101736590D02*
X188332736Y-101688971D01*
X188332736Y-101688971D02*
X188427974Y-101641352D01*
X188427974Y-101641352D02*
X188570831Y-101641352D01*
X188570831Y-101641352D02*
X188666069Y-101688971D01*
X188666069Y-101688971D02*
X188713688Y-101784209D01*
X188713688Y-101784209D02*
X188713688Y-102308019D01*
X189189879Y-102308019D02*
X189189879Y-101308019D01*
X189285117Y-101927066D02*
X189570831Y-102308019D01*
X189570831Y-101641352D02*
X189189879Y-102022304D01*
X191475593Y-101260400D02*
X190618451Y-102546114D01*
X192999403Y-102260400D02*
X192904165Y-102308019D01*
X192904165Y-102308019D02*
X192713689Y-102308019D01*
X192713689Y-102308019D02*
X192618451Y-102260400D01*
X192618451Y-102260400D02*
X192570832Y-102212780D01*
X192570832Y-102212780D02*
X192523213Y-102117542D01*
X192523213Y-102117542D02*
X192523213Y-101831828D01*
X192523213Y-101831828D02*
X192570832Y-101736590D01*
X192570832Y-101736590D02*
X192618451Y-101688971D01*
X192618451Y-101688971D02*
X192713689Y-101641352D01*
X192713689Y-101641352D02*
X192904165Y-101641352D01*
X192904165Y-101641352D02*
X192999403Y-101688971D01*
X193570832Y-102308019D02*
X193475594Y-102260400D01*
X193475594Y-102260400D02*
X193427975Y-102212780D01*
X193427975Y-102212780D02*
X193380356Y-102117542D01*
X193380356Y-102117542D02*
X193380356Y-101831828D01*
X193380356Y-101831828D02*
X193427975Y-101736590D01*
X193427975Y-101736590D02*
X193475594Y-101688971D01*
X193475594Y-101688971D02*
X193570832Y-101641352D01*
X193570832Y-101641352D02*
X193713689Y-101641352D01*
X193713689Y-101641352D02*
X193808927Y-101688971D01*
X193808927Y-101688971D02*
X193856546Y-101736590D01*
X193856546Y-101736590D02*
X193904165Y-101831828D01*
X193904165Y-101831828D02*
X193904165Y-102117542D01*
X193904165Y-102117542D02*
X193856546Y-102212780D01*
X193856546Y-102212780D02*
X193808927Y-102260400D01*
X193808927Y-102260400D02*
X193713689Y-102308019D01*
X193713689Y-102308019D02*
X193570832Y-102308019D01*
X194332737Y-101641352D02*
X194332737Y-102308019D01*
X194332737Y-101736590D02*
X194380356Y-101688971D01*
X194380356Y-101688971D02*
X194475594Y-101641352D01*
X194475594Y-101641352D02*
X194618451Y-101641352D01*
X194618451Y-101641352D02*
X194713689Y-101688971D01*
X194713689Y-101688971D02*
X194761308Y-101784209D01*
X194761308Y-101784209D02*
X194761308Y-102308019D01*
X195237499Y-101641352D02*
X195237499Y-102308019D01*
X195237499Y-101736590D02*
X195285118Y-101688971D01*
X195285118Y-101688971D02*
X195380356Y-101641352D01*
X195380356Y-101641352D02*
X195523213Y-101641352D01*
X195523213Y-101641352D02*
X195618451Y-101688971D01*
X195618451Y-101688971D02*
X195666070Y-101784209D01*
X195666070Y-101784209D02*
X195666070Y-102308019D01*
X196523213Y-102260400D02*
X196427975Y-102308019D01*
X196427975Y-102308019D02*
X196237499Y-102308019D01*
X196237499Y-102308019D02*
X196142261Y-102260400D01*
X196142261Y-102260400D02*
X196094642Y-102165161D01*
X196094642Y-102165161D02*
X196094642Y-101784209D01*
X196094642Y-101784209D02*
X196142261Y-101688971D01*
X196142261Y-101688971D02*
X196237499Y-101641352D01*
X196237499Y-101641352D02*
X196427975Y-101641352D01*
X196427975Y-101641352D02*
X196523213Y-101688971D01*
X196523213Y-101688971D02*
X196570832Y-101784209D01*
X196570832Y-101784209D02*
X196570832Y-101879447D01*
X196570832Y-101879447D02*
X196094642Y-101974685D01*
X197427975Y-102260400D02*
X197332737Y-102308019D01*
X197332737Y-102308019D02*
X197142261Y-102308019D01*
X197142261Y-102308019D02*
X197047023Y-102260400D01*
X197047023Y-102260400D02*
X196999404Y-102212780D01*
X196999404Y-102212780D02*
X196951785Y-102117542D01*
X196951785Y-102117542D02*
X196951785Y-101831828D01*
X196951785Y-101831828D02*
X196999404Y-101736590D01*
X196999404Y-101736590D02*
X197047023Y-101688971D01*
X197047023Y-101688971D02*
X197142261Y-101641352D01*
X197142261Y-101641352D02*
X197332737Y-101641352D01*
X197332737Y-101641352D02*
X197427975Y-101688971D01*
X197713690Y-101641352D02*
X198094642Y-101641352D01*
X197856547Y-101308019D02*
X197856547Y-102165161D01*
X197856547Y-102165161D02*
X197904166Y-102260400D01*
X197904166Y-102260400D02*
X197999404Y-102308019D01*
X197999404Y-102308019D02*
X198094642Y-102308019D01*
X198808928Y-102260400D02*
X198713690Y-102308019D01*
X198713690Y-102308019D02*
X198523214Y-102308019D01*
X198523214Y-102308019D02*
X198427976Y-102260400D01*
X198427976Y-102260400D02*
X198380357Y-102165161D01*
X198380357Y-102165161D02*
X198380357Y-101784209D01*
X198380357Y-101784209D02*
X198427976Y-101688971D01*
X198427976Y-101688971D02*
X198523214Y-101641352D01*
X198523214Y-101641352D02*
X198713690Y-101641352D01*
X198713690Y-101641352D02*
X198808928Y-101688971D01*
X198808928Y-101688971D02*
X198856547Y-101784209D01*
X198856547Y-101784209D02*
X198856547Y-101879447D01*
X198856547Y-101879447D02*
X198380357Y-101974685D01*
X199713690Y-102308019D02*
X199713690Y-101308019D01*
X199713690Y-102260400D02*
X199618452Y-102308019D01*
X199618452Y-102308019D02*
X199427976Y-102308019D01*
X199427976Y-102308019D02*
X199332738Y-102260400D01*
X199332738Y-102260400D02*
X199285119Y-102212780D01*
X199285119Y-102212780D02*
X199237500Y-102117542D01*
X199237500Y-102117542D02*
X199237500Y-101831828D01*
X199237500Y-101831828D02*
X199285119Y-101736590D01*
X199285119Y-101736590D02*
X199332738Y-101688971D01*
X199332738Y-101688971D02*
X199427976Y-101641352D01*
X199427976Y-101641352D02*
X199618452Y-101641352D01*
X199618452Y-101641352D02*
X199713690Y-101688971D01*
X200808929Y-101641352D02*
X201189881Y-101641352D01*
X200951786Y-101308019D02*
X200951786Y-102165161D01*
X200951786Y-102165161D02*
X200999405Y-102260400D01*
X200999405Y-102260400D02*
X201094643Y-102308019D01*
X201094643Y-102308019D02*
X201189881Y-102308019D01*
X201666072Y-102308019D02*
X201570834Y-102260400D01*
X201570834Y-102260400D02*
X201523215Y-102212780D01*
X201523215Y-102212780D02*
X201475596Y-102117542D01*
X201475596Y-102117542D02*
X201475596Y-101831828D01*
X201475596Y-101831828D02*
X201523215Y-101736590D01*
X201523215Y-101736590D02*
X201570834Y-101688971D01*
X201570834Y-101688971D02*
X201666072Y-101641352D01*
X201666072Y-101641352D02*
X201808929Y-101641352D01*
X201808929Y-101641352D02*
X201904167Y-101688971D01*
X201904167Y-101688971D02*
X201951786Y-101736590D01*
X201951786Y-101736590D02*
X201999405Y-101831828D01*
X201999405Y-101831828D02*
X201999405Y-102117542D01*
X201999405Y-102117542D02*
X201951786Y-102212780D01*
X201951786Y-102212780D02*
X201904167Y-102260400D01*
X201904167Y-102260400D02*
X201808929Y-102308019D01*
X201808929Y-102308019D02*
X201666072Y-102308019D01*
X203047025Y-101641352D02*
X203427977Y-101641352D01*
X203189882Y-101308019D02*
X203189882Y-102165161D01*
X203189882Y-102165161D02*
X203237501Y-102260400D01*
X203237501Y-102260400D02*
X203332739Y-102308019D01*
X203332739Y-102308019D02*
X203427977Y-102308019D01*
X203761311Y-102308019D02*
X203761311Y-101308019D01*
X204189882Y-102308019D02*
X204189882Y-101784209D01*
X204189882Y-101784209D02*
X204142263Y-101688971D01*
X204142263Y-101688971D02*
X204047025Y-101641352D01*
X204047025Y-101641352D02*
X203904168Y-101641352D01*
X203904168Y-101641352D02*
X203808930Y-101688971D01*
X203808930Y-101688971D02*
X203761311Y-101736590D01*
X205047025Y-102260400D02*
X204951787Y-102308019D01*
X204951787Y-102308019D02*
X204761311Y-102308019D01*
X204761311Y-102308019D02*
X204666073Y-102260400D01*
X204666073Y-102260400D02*
X204618454Y-102165161D01*
X204618454Y-102165161D02*
X204618454Y-101784209D01*
X204618454Y-101784209D02*
X204666073Y-101688971D01*
X204666073Y-101688971D02*
X204761311Y-101641352D01*
X204761311Y-101641352D02*
X204951787Y-101641352D01*
X204951787Y-101641352D02*
X205047025Y-101688971D01*
X205047025Y-101688971D02*
X205094644Y-101784209D01*
X205094644Y-101784209D02*
X205094644Y-101879447D01*
X205094644Y-101879447D02*
X204618454Y-101974685D01*
X206285121Y-102308019D02*
X206285121Y-101308019D01*
X206285121Y-101688971D02*
X206380359Y-101641352D01*
X206380359Y-101641352D02*
X206570835Y-101641352D01*
X206570835Y-101641352D02*
X206666073Y-101688971D01*
X206666073Y-101688971D02*
X206713692Y-101736590D01*
X206713692Y-101736590D02*
X206761311Y-101831828D01*
X206761311Y-101831828D02*
X206761311Y-102117542D01*
X206761311Y-102117542D02*
X206713692Y-102212780D01*
X206713692Y-102212780D02*
X206666073Y-102260400D01*
X206666073Y-102260400D02*
X206570835Y-102308019D01*
X206570835Y-102308019D02*
X206380359Y-102308019D01*
X206380359Y-102308019D02*
X206285121Y-102260400D01*
X207618454Y-102308019D02*
X207618454Y-101784209D01*
X207618454Y-101784209D02*
X207570835Y-101688971D01*
X207570835Y-101688971D02*
X207475597Y-101641352D01*
X207475597Y-101641352D02*
X207285121Y-101641352D01*
X207285121Y-101641352D02*
X207189883Y-101688971D01*
X207618454Y-102260400D02*
X207523216Y-102308019D01*
X207523216Y-102308019D02*
X207285121Y-102308019D01*
X207285121Y-102308019D02*
X207189883Y-102260400D01*
X207189883Y-102260400D02*
X207142264Y-102165161D01*
X207142264Y-102165161D02*
X207142264Y-102069923D01*
X207142264Y-102069923D02*
X207189883Y-101974685D01*
X207189883Y-101974685D02*
X207285121Y-101927066D01*
X207285121Y-101927066D02*
X207523216Y-101927066D01*
X207523216Y-101927066D02*
X207618454Y-101879447D01*
X208047026Y-102260400D02*
X208142264Y-102308019D01*
X208142264Y-102308019D02*
X208332740Y-102308019D01*
X208332740Y-102308019D02*
X208427978Y-102260400D01*
X208427978Y-102260400D02*
X208475597Y-102165161D01*
X208475597Y-102165161D02*
X208475597Y-102117542D01*
X208475597Y-102117542D02*
X208427978Y-102022304D01*
X208427978Y-102022304D02*
X208332740Y-101974685D01*
X208332740Y-101974685D02*
X208189883Y-101974685D01*
X208189883Y-101974685D02*
X208094645Y-101927066D01*
X208094645Y-101927066D02*
X208047026Y-101831828D01*
X208047026Y-101831828D02*
X208047026Y-101784209D01*
X208047026Y-101784209D02*
X208094645Y-101688971D01*
X208094645Y-101688971D02*
X208189883Y-101641352D01*
X208189883Y-101641352D02*
X208332740Y-101641352D01*
X208332740Y-101641352D02*
X208427978Y-101688971D01*
X209285121Y-102260400D02*
X209189883Y-102308019D01*
X209189883Y-102308019D02*
X208999407Y-102308019D01*
X208999407Y-102308019D02*
X208904169Y-102260400D01*
X208904169Y-102260400D02*
X208856550Y-102165161D01*
X208856550Y-102165161D02*
X208856550Y-101784209D01*
X208856550Y-101784209D02*
X208904169Y-101688971D01*
X208904169Y-101688971D02*
X208999407Y-101641352D01*
X208999407Y-101641352D02*
X209189883Y-101641352D01*
X209189883Y-101641352D02*
X209285121Y-101688971D01*
X209285121Y-101688971D02*
X209332740Y-101784209D01*
X209332740Y-101784209D02*
X209332740Y-101879447D01*
X209332740Y-101879447D02*
X208856550Y-101974685D01*
X97839759Y-87939239D02*
X97839759Y-86939239D01*
X98268330Y-87939239D02*
X98268330Y-87415429D01*
X98268330Y-87415429D02*
X98220711Y-87320191D01*
X98220711Y-87320191D02*
X98125473Y-87272572D01*
X98125473Y-87272572D02*
X97982616Y-87272572D01*
X97982616Y-87272572D02*
X97887378Y-87320191D01*
X97887378Y-87320191D02*
X97839759Y-87367810D01*
X98887378Y-87939239D02*
X98792140Y-87891620D01*
X98792140Y-87891620D02*
X98744521Y-87844000D01*
X98744521Y-87844000D02*
X98696902Y-87748762D01*
X98696902Y-87748762D02*
X98696902Y-87463048D01*
X98696902Y-87463048D02*
X98744521Y-87367810D01*
X98744521Y-87367810D02*
X98792140Y-87320191D01*
X98792140Y-87320191D02*
X98887378Y-87272572D01*
X98887378Y-87272572D02*
X99030235Y-87272572D01*
X99030235Y-87272572D02*
X99125473Y-87320191D01*
X99125473Y-87320191D02*
X99173092Y-87367810D01*
X99173092Y-87367810D02*
X99220711Y-87463048D01*
X99220711Y-87463048D02*
X99220711Y-87748762D01*
X99220711Y-87748762D02*
X99173092Y-87844000D01*
X99173092Y-87844000D02*
X99125473Y-87891620D01*
X99125473Y-87891620D02*
X99030235Y-87939239D01*
X99030235Y-87939239D02*
X98887378Y-87939239D01*
X99792140Y-87939239D02*
X99696902Y-87891620D01*
X99696902Y-87891620D02*
X99649283Y-87796381D01*
X99649283Y-87796381D02*
X99649283Y-86939239D01*
X100554045Y-87891620D02*
X100458807Y-87939239D01*
X100458807Y-87939239D02*
X100268331Y-87939239D01*
X100268331Y-87939239D02*
X100173093Y-87891620D01*
X100173093Y-87891620D02*
X100125474Y-87796381D01*
X100125474Y-87796381D02*
X100125474Y-87415429D01*
X100125474Y-87415429D02*
X100173093Y-87320191D01*
X100173093Y-87320191D02*
X100268331Y-87272572D01*
X100268331Y-87272572D02*
X100458807Y-87272572D01*
X100458807Y-87272572D02*
X100554045Y-87320191D01*
X100554045Y-87320191D02*
X100601664Y-87415429D01*
X100601664Y-87415429D02*
X100601664Y-87510667D01*
X100601664Y-87510667D02*
X100125474Y-87605905D01*
X101792141Y-87939239D02*
X101792141Y-87272572D01*
X101792141Y-86939239D02*
X101744522Y-86986858D01*
X101744522Y-86986858D02*
X101792141Y-87034477D01*
X101792141Y-87034477D02*
X101839760Y-86986858D01*
X101839760Y-86986858D02*
X101792141Y-86939239D01*
X101792141Y-86939239D02*
X101792141Y-87034477D01*
X102220712Y-87891620D02*
X102315950Y-87939239D01*
X102315950Y-87939239D02*
X102506426Y-87939239D01*
X102506426Y-87939239D02*
X102601664Y-87891620D01*
X102601664Y-87891620D02*
X102649283Y-87796381D01*
X102649283Y-87796381D02*
X102649283Y-87748762D01*
X102649283Y-87748762D02*
X102601664Y-87653524D01*
X102601664Y-87653524D02*
X102506426Y-87605905D01*
X102506426Y-87605905D02*
X102363569Y-87605905D01*
X102363569Y-87605905D02*
X102268331Y-87558286D01*
X102268331Y-87558286D02*
X102220712Y-87463048D01*
X102220712Y-87463048D02*
X102220712Y-87415429D01*
X102220712Y-87415429D02*
X102268331Y-87320191D01*
X102268331Y-87320191D02*
X102363569Y-87272572D01*
X102363569Y-87272572D02*
X102506426Y-87272572D01*
X102506426Y-87272572D02*
X102601664Y-87320191D01*
X104030236Y-86939239D02*
X104125474Y-86939239D01*
X104125474Y-86939239D02*
X104220712Y-86986858D01*
X104220712Y-86986858D02*
X104268331Y-87034477D01*
X104268331Y-87034477D02*
X104315950Y-87129715D01*
X104315950Y-87129715D02*
X104363569Y-87320191D01*
X104363569Y-87320191D02*
X104363569Y-87558286D01*
X104363569Y-87558286D02*
X104315950Y-87748762D01*
X104315950Y-87748762D02*
X104268331Y-87844000D01*
X104268331Y-87844000D02*
X104220712Y-87891620D01*
X104220712Y-87891620D02*
X104125474Y-87939239D01*
X104125474Y-87939239D02*
X104030236Y-87939239D01*
X104030236Y-87939239D02*
X103934998Y-87891620D01*
X103934998Y-87891620D02*
X103887379Y-87844000D01*
X103887379Y-87844000D02*
X103839760Y-87748762D01*
X103839760Y-87748762D02*
X103792141Y-87558286D01*
X103792141Y-87558286D02*
X103792141Y-87320191D01*
X103792141Y-87320191D02*
X103839760Y-87129715D01*
X103839760Y-87129715D02*
X103887379Y-87034477D01*
X103887379Y-87034477D02*
X103934998Y-86986858D01*
X103934998Y-86986858D02*
X104030236Y-86939239D01*
X104792141Y-87844000D02*
X104839760Y-87891620D01*
X104839760Y-87891620D02*
X104792141Y-87939239D01*
X104792141Y-87939239D02*
X104744522Y-87891620D01*
X104744522Y-87891620D02*
X104792141Y-87844000D01*
X104792141Y-87844000D02*
X104792141Y-87939239D01*
X105696902Y-87272572D02*
X105696902Y-87939239D01*
X105458807Y-86891620D02*
X105220712Y-87605905D01*
X105220712Y-87605905D02*
X105839759Y-87605905D01*
X106363569Y-87367810D02*
X106268331Y-87320191D01*
X106268331Y-87320191D02*
X106220712Y-87272572D01*
X106220712Y-87272572D02*
X106173093Y-87177334D01*
X106173093Y-87177334D02*
X106173093Y-87129715D01*
X106173093Y-87129715D02*
X106220712Y-87034477D01*
X106220712Y-87034477D02*
X106268331Y-86986858D01*
X106268331Y-86986858D02*
X106363569Y-86939239D01*
X106363569Y-86939239D02*
X106554045Y-86939239D01*
X106554045Y-86939239D02*
X106649283Y-86986858D01*
X106649283Y-86986858D02*
X106696902Y-87034477D01*
X106696902Y-87034477D02*
X106744521Y-87129715D01*
X106744521Y-87129715D02*
X106744521Y-87177334D01*
X106744521Y-87177334D02*
X106696902Y-87272572D01*
X106696902Y-87272572D02*
X106649283Y-87320191D01*
X106649283Y-87320191D02*
X106554045Y-87367810D01*
X106554045Y-87367810D02*
X106363569Y-87367810D01*
X106363569Y-87367810D02*
X106268331Y-87415429D01*
X106268331Y-87415429D02*
X106220712Y-87463048D01*
X106220712Y-87463048D02*
X106173093Y-87558286D01*
X106173093Y-87558286D02*
X106173093Y-87748762D01*
X106173093Y-87748762D02*
X106220712Y-87844000D01*
X106220712Y-87844000D02*
X106268331Y-87891620D01*
X106268331Y-87891620D02*
X106363569Y-87939239D01*
X106363569Y-87939239D02*
X106554045Y-87939239D01*
X106554045Y-87939239D02*
X106649283Y-87891620D01*
X106649283Y-87891620D02*
X106696902Y-87844000D01*
X106696902Y-87844000D02*
X106744521Y-87748762D01*
X106744521Y-87748762D02*
X106744521Y-87558286D01*
X106744521Y-87558286D02*
X106696902Y-87463048D01*
X106696902Y-87463048D02*
X106649283Y-87415429D01*
X106649283Y-87415429D02*
X106554045Y-87367810D01*
X107363569Y-86939239D02*
X107458807Y-86939239D01*
X107458807Y-86939239D02*
X107554045Y-86986858D01*
X107554045Y-86986858D02*
X107601664Y-87034477D01*
X107601664Y-87034477D02*
X107649283Y-87129715D01*
X107649283Y-87129715D02*
X107696902Y-87320191D01*
X107696902Y-87320191D02*
X107696902Y-87558286D01*
X107696902Y-87558286D02*
X107649283Y-87748762D01*
X107649283Y-87748762D02*
X107601664Y-87844000D01*
X107601664Y-87844000D02*
X107554045Y-87891620D01*
X107554045Y-87891620D02*
X107458807Y-87939239D01*
X107458807Y-87939239D02*
X107363569Y-87939239D01*
X107363569Y-87939239D02*
X107268331Y-87891620D01*
X107268331Y-87891620D02*
X107220712Y-87844000D01*
X107220712Y-87844000D02*
X107173093Y-87748762D01*
X107173093Y-87748762D02*
X107125474Y-87558286D01*
X107125474Y-87558286D02*
X107125474Y-87320191D01*
X107125474Y-87320191D02*
X107173093Y-87129715D01*
X107173093Y-87129715D02*
X107220712Y-87034477D01*
X107220712Y-87034477D02*
X107268331Y-86986858D01*
X107268331Y-86986858D02*
X107363569Y-86939239D01*
X108077855Y-86939239D02*
X108077855Y-87129715D01*
X108458807Y-86939239D02*
X108458807Y-87129715D01*
X110077855Y-87939239D02*
X110077855Y-86939239D01*
X110077855Y-87891620D02*
X109982617Y-87939239D01*
X109982617Y-87939239D02*
X109792141Y-87939239D01*
X109792141Y-87939239D02*
X109696903Y-87891620D01*
X109696903Y-87891620D02*
X109649284Y-87844000D01*
X109649284Y-87844000D02*
X109601665Y-87748762D01*
X109601665Y-87748762D02*
X109601665Y-87463048D01*
X109601665Y-87463048D02*
X109649284Y-87367810D01*
X109649284Y-87367810D02*
X109696903Y-87320191D01*
X109696903Y-87320191D02*
X109792141Y-87272572D01*
X109792141Y-87272572D02*
X109982617Y-87272572D01*
X109982617Y-87272572D02*
X110077855Y-87320191D01*
X110554046Y-87939239D02*
X110554046Y-87272572D01*
X110554046Y-86939239D02*
X110506427Y-86986858D01*
X110506427Y-86986858D02*
X110554046Y-87034477D01*
X110554046Y-87034477D02*
X110601665Y-86986858D01*
X110601665Y-86986858D02*
X110554046Y-86939239D01*
X110554046Y-86939239D02*
X110554046Y-87034477D01*
X110982617Y-87891620D02*
X111077855Y-87939239D01*
X111077855Y-87939239D02*
X111268331Y-87939239D01*
X111268331Y-87939239D02*
X111363569Y-87891620D01*
X111363569Y-87891620D02*
X111411188Y-87796381D01*
X111411188Y-87796381D02*
X111411188Y-87748762D01*
X111411188Y-87748762D02*
X111363569Y-87653524D01*
X111363569Y-87653524D02*
X111268331Y-87605905D01*
X111268331Y-87605905D02*
X111125474Y-87605905D01*
X111125474Y-87605905D02*
X111030236Y-87558286D01*
X111030236Y-87558286D02*
X110982617Y-87463048D01*
X110982617Y-87463048D02*
X110982617Y-87415429D01*
X110982617Y-87415429D02*
X111030236Y-87320191D01*
X111030236Y-87320191D02*
X111125474Y-87272572D01*
X111125474Y-87272572D02*
X111268331Y-87272572D01*
X111268331Y-87272572D02*
X111363569Y-87320191D01*
X111696903Y-87272572D02*
X112077855Y-87272572D01*
X111839760Y-86939239D02*
X111839760Y-87796381D01*
X111839760Y-87796381D02*
X111887379Y-87891620D01*
X111887379Y-87891620D02*
X111982617Y-87939239D01*
X111982617Y-87939239D02*
X112077855Y-87939239D01*
X112839760Y-87939239D02*
X112839760Y-87415429D01*
X112839760Y-87415429D02*
X112792141Y-87320191D01*
X112792141Y-87320191D02*
X112696903Y-87272572D01*
X112696903Y-87272572D02*
X112506427Y-87272572D01*
X112506427Y-87272572D02*
X112411189Y-87320191D01*
X112839760Y-87891620D02*
X112744522Y-87939239D01*
X112744522Y-87939239D02*
X112506427Y-87939239D01*
X112506427Y-87939239D02*
X112411189Y-87891620D01*
X112411189Y-87891620D02*
X112363570Y-87796381D01*
X112363570Y-87796381D02*
X112363570Y-87701143D01*
X112363570Y-87701143D02*
X112411189Y-87605905D01*
X112411189Y-87605905D02*
X112506427Y-87558286D01*
X112506427Y-87558286D02*
X112744522Y-87558286D01*
X112744522Y-87558286D02*
X112839760Y-87510667D01*
X113315951Y-87272572D02*
X113315951Y-87939239D01*
X113315951Y-87367810D02*
X113363570Y-87320191D01*
X113363570Y-87320191D02*
X113458808Y-87272572D01*
X113458808Y-87272572D02*
X113601665Y-87272572D01*
X113601665Y-87272572D02*
X113696903Y-87320191D01*
X113696903Y-87320191D02*
X113744522Y-87415429D01*
X113744522Y-87415429D02*
X113744522Y-87939239D01*
X114649284Y-87891620D02*
X114554046Y-87939239D01*
X114554046Y-87939239D02*
X114363570Y-87939239D01*
X114363570Y-87939239D02*
X114268332Y-87891620D01*
X114268332Y-87891620D02*
X114220713Y-87844000D01*
X114220713Y-87844000D02*
X114173094Y-87748762D01*
X114173094Y-87748762D02*
X114173094Y-87463048D01*
X114173094Y-87463048D02*
X114220713Y-87367810D01*
X114220713Y-87367810D02*
X114268332Y-87320191D01*
X114268332Y-87320191D02*
X114363570Y-87272572D01*
X114363570Y-87272572D02*
X114554046Y-87272572D01*
X114554046Y-87272572D02*
X114649284Y-87320191D01*
X115458808Y-87891620D02*
X115363570Y-87939239D01*
X115363570Y-87939239D02*
X115173094Y-87939239D01*
X115173094Y-87939239D02*
X115077856Y-87891620D01*
X115077856Y-87891620D02*
X115030237Y-87796381D01*
X115030237Y-87796381D02*
X115030237Y-87415429D01*
X115030237Y-87415429D02*
X115077856Y-87320191D01*
X115077856Y-87320191D02*
X115173094Y-87272572D01*
X115173094Y-87272572D02*
X115363570Y-87272572D01*
X115363570Y-87272572D02*
X115458808Y-87320191D01*
X115458808Y-87320191D02*
X115506427Y-87415429D01*
X115506427Y-87415429D02*
X115506427Y-87510667D01*
X115506427Y-87510667D02*
X115030237Y-87605905D01*
X115887380Y-87891620D02*
X115982618Y-87939239D01*
X115982618Y-87939239D02*
X116173094Y-87939239D01*
X116173094Y-87939239D02*
X116268332Y-87891620D01*
X116268332Y-87891620D02*
X116315951Y-87796381D01*
X116315951Y-87796381D02*
X116315951Y-87748762D01*
X116315951Y-87748762D02*
X116268332Y-87653524D01*
X116268332Y-87653524D02*
X116173094Y-87605905D01*
X116173094Y-87605905D02*
X116030237Y-87605905D01*
X116030237Y-87605905D02*
X115934999Y-87558286D01*
X115934999Y-87558286D02*
X115887380Y-87463048D01*
X115887380Y-87463048D02*
X115887380Y-87415429D01*
X115887380Y-87415429D02*
X115934999Y-87320191D01*
X115934999Y-87320191D02*
X116030237Y-87272572D01*
X116030237Y-87272572D02*
X116173094Y-87272572D01*
X116173094Y-87272572D02*
X116268332Y-87320191D01*
X117887380Y-87891620D02*
X117792142Y-87939239D01*
X117792142Y-87939239D02*
X117601666Y-87939239D01*
X117601666Y-87939239D02*
X117506428Y-87891620D01*
X117506428Y-87891620D02*
X117458809Y-87796381D01*
X117458809Y-87796381D02*
X117458809Y-87415429D01*
X117458809Y-87415429D02*
X117506428Y-87320191D01*
X117506428Y-87320191D02*
X117601666Y-87272572D01*
X117601666Y-87272572D02*
X117792142Y-87272572D01*
X117792142Y-87272572D02*
X117887380Y-87320191D01*
X117887380Y-87320191D02*
X117934999Y-87415429D01*
X117934999Y-87415429D02*
X117934999Y-87510667D01*
X117934999Y-87510667D02*
X117458809Y-87605905D01*
X118792142Y-87939239D02*
X118792142Y-87415429D01*
X118792142Y-87415429D02*
X118744523Y-87320191D01*
X118744523Y-87320191D02*
X118649285Y-87272572D01*
X118649285Y-87272572D02*
X118458809Y-87272572D01*
X118458809Y-87272572D02*
X118363571Y-87320191D01*
X118792142Y-87891620D02*
X118696904Y-87939239D01*
X118696904Y-87939239D02*
X118458809Y-87939239D01*
X118458809Y-87939239D02*
X118363571Y-87891620D01*
X118363571Y-87891620D02*
X118315952Y-87796381D01*
X118315952Y-87796381D02*
X118315952Y-87701143D01*
X118315952Y-87701143D02*
X118363571Y-87605905D01*
X118363571Y-87605905D02*
X118458809Y-87558286D01*
X118458809Y-87558286D02*
X118696904Y-87558286D01*
X118696904Y-87558286D02*
X118792142Y-87510667D01*
X119220714Y-87891620D02*
X119315952Y-87939239D01*
X119315952Y-87939239D02*
X119506428Y-87939239D01*
X119506428Y-87939239D02*
X119601666Y-87891620D01*
X119601666Y-87891620D02*
X119649285Y-87796381D01*
X119649285Y-87796381D02*
X119649285Y-87748762D01*
X119649285Y-87748762D02*
X119601666Y-87653524D01*
X119601666Y-87653524D02*
X119506428Y-87605905D01*
X119506428Y-87605905D02*
X119363571Y-87605905D01*
X119363571Y-87605905D02*
X119268333Y-87558286D01*
X119268333Y-87558286D02*
X119220714Y-87463048D01*
X119220714Y-87463048D02*
X119220714Y-87415429D01*
X119220714Y-87415429D02*
X119268333Y-87320191D01*
X119268333Y-87320191D02*
X119363571Y-87272572D01*
X119363571Y-87272572D02*
X119506428Y-87272572D01*
X119506428Y-87272572D02*
X119601666Y-87320191D01*
X119935000Y-87272572D02*
X120315952Y-87272572D01*
X120077857Y-86939239D02*
X120077857Y-87796381D01*
X120077857Y-87796381D02*
X120125476Y-87891620D01*
X120125476Y-87891620D02*
X120220714Y-87939239D01*
X120220714Y-87939239D02*
X120315952Y-87939239D01*
X120554048Y-87272572D02*
X120744524Y-87939239D01*
X120744524Y-87939239D02*
X120935000Y-87463048D01*
X120935000Y-87463048D02*
X121125476Y-87939239D01*
X121125476Y-87939239D02*
X121315952Y-87272572D01*
X122077857Y-87891620D02*
X121982619Y-87939239D01*
X121982619Y-87939239D02*
X121792143Y-87939239D01*
X121792143Y-87939239D02*
X121696905Y-87891620D01*
X121696905Y-87891620D02*
X121649286Y-87796381D01*
X121649286Y-87796381D02*
X121649286Y-87415429D01*
X121649286Y-87415429D02*
X121696905Y-87320191D01*
X121696905Y-87320191D02*
X121792143Y-87272572D01*
X121792143Y-87272572D02*
X121982619Y-87272572D01*
X121982619Y-87272572D02*
X122077857Y-87320191D01*
X122077857Y-87320191D02*
X122125476Y-87415429D01*
X122125476Y-87415429D02*
X122125476Y-87510667D01*
X122125476Y-87510667D02*
X121649286Y-87605905D01*
X122506429Y-87891620D02*
X122601667Y-87939239D01*
X122601667Y-87939239D02*
X122792143Y-87939239D01*
X122792143Y-87939239D02*
X122887381Y-87891620D01*
X122887381Y-87891620D02*
X122935000Y-87796381D01*
X122935000Y-87796381D02*
X122935000Y-87748762D01*
X122935000Y-87748762D02*
X122887381Y-87653524D01*
X122887381Y-87653524D02*
X122792143Y-87605905D01*
X122792143Y-87605905D02*
X122649286Y-87605905D01*
X122649286Y-87605905D02*
X122554048Y-87558286D01*
X122554048Y-87558286D02*
X122506429Y-87463048D01*
X122506429Y-87463048D02*
X122506429Y-87415429D01*
X122506429Y-87415429D02*
X122554048Y-87320191D01*
X122554048Y-87320191D02*
X122649286Y-87272572D01*
X122649286Y-87272572D02*
X122792143Y-87272572D01*
X122792143Y-87272572D02*
X122887381Y-87320191D01*
X123220715Y-87272572D02*
X123601667Y-87272572D01*
X123363572Y-86939239D02*
X123363572Y-87796381D01*
X123363572Y-87796381D02*
X123411191Y-87891620D01*
X123411191Y-87891620D02*
X123506429Y-87939239D01*
X123506429Y-87939239D02*
X123601667Y-87939239D01*
X161881372Y-92657989D02*
X162024229Y-92705608D01*
X162024229Y-92705608D02*
X162071848Y-92753227D01*
X162071848Y-92753227D02*
X162119467Y-92848465D01*
X162119467Y-92848465D02*
X162119467Y-92991322D01*
X162119467Y-92991322D02*
X162071848Y-93086560D01*
X162071848Y-93086560D02*
X162024229Y-93134180D01*
X162024229Y-93134180D02*
X161928991Y-93181799D01*
X161928991Y-93181799D02*
X161548039Y-93181799D01*
X161548039Y-93181799D02*
X161548039Y-92181799D01*
X161548039Y-92181799D02*
X161881372Y-92181799D01*
X161881372Y-92181799D02*
X161976610Y-92229418D01*
X161976610Y-92229418D02*
X162024229Y-92277037D01*
X162024229Y-92277037D02*
X162071848Y-92372275D01*
X162071848Y-92372275D02*
X162071848Y-92467513D01*
X162071848Y-92467513D02*
X162024229Y-92562751D01*
X162024229Y-92562751D02*
X161976610Y-92610370D01*
X161976610Y-92610370D02*
X161881372Y-92657989D01*
X161881372Y-92657989D02*
X161548039Y-92657989D01*
X162690896Y-93181799D02*
X162595658Y-93134180D01*
X162595658Y-93134180D02*
X162548039Y-93086560D01*
X162548039Y-93086560D02*
X162500420Y-92991322D01*
X162500420Y-92991322D02*
X162500420Y-92705608D01*
X162500420Y-92705608D02*
X162548039Y-92610370D01*
X162548039Y-92610370D02*
X162595658Y-92562751D01*
X162595658Y-92562751D02*
X162690896Y-92515132D01*
X162690896Y-92515132D02*
X162833753Y-92515132D01*
X162833753Y-92515132D02*
X162928991Y-92562751D01*
X162928991Y-92562751D02*
X162976610Y-92610370D01*
X162976610Y-92610370D02*
X163024229Y-92705608D01*
X163024229Y-92705608D02*
X163024229Y-92991322D01*
X163024229Y-92991322D02*
X162976610Y-93086560D01*
X162976610Y-93086560D02*
X162928991Y-93134180D01*
X162928991Y-93134180D02*
X162833753Y-93181799D01*
X162833753Y-93181799D02*
X162690896Y-93181799D01*
X163881372Y-93181799D02*
X163881372Y-92657989D01*
X163881372Y-92657989D02*
X163833753Y-92562751D01*
X163833753Y-92562751D02*
X163738515Y-92515132D01*
X163738515Y-92515132D02*
X163548039Y-92515132D01*
X163548039Y-92515132D02*
X163452801Y-92562751D01*
X163881372Y-93134180D02*
X163786134Y-93181799D01*
X163786134Y-93181799D02*
X163548039Y-93181799D01*
X163548039Y-93181799D02*
X163452801Y-93134180D01*
X163452801Y-93134180D02*
X163405182Y-93038941D01*
X163405182Y-93038941D02*
X163405182Y-92943703D01*
X163405182Y-92943703D02*
X163452801Y-92848465D01*
X163452801Y-92848465D02*
X163548039Y-92800846D01*
X163548039Y-92800846D02*
X163786134Y-92800846D01*
X163786134Y-92800846D02*
X163881372Y-92753227D01*
X164357563Y-93181799D02*
X164357563Y-92515132D01*
X164357563Y-92705608D02*
X164405182Y-92610370D01*
X164405182Y-92610370D02*
X164452801Y-92562751D01*
X164452801Y-92562751D02*
X164548039Y-92515132D01*
X164548039Y-92515132D02*
X164643277Y-92515132D01*
X165405182Y-93181799D02*
X165405182Y-92181799D01*
X165405182Y-93134180D02*
X165309944Y-93181799D01*
X165309944Y-93181799D02*
X165119468Y-93181799D01*
X165119468Y-93181799D02*
X165024230Y-93134180D01*
X165024230Y-93134180D02*
X164976611Y-93086560D01*
X164976611Y-93086560D02*
X164928992Y-92991322D01*
X164928992Y-92991322D02*
X164928992Y-92705608D01*
X164928992Y-92705608D02*
X164976611Y-92610370D01*
X164976611Y-92610370D02*
X165024230Y-92562751D01*
X165024230Y-92562751D02*
X165119468Y-92515132D01*
X165119468Y-92515132D02*
X165309944Y-92515132D01*
X165309944Y-92515132D02*
X165405182Y-92562751D01*
X166643278Y-93181799D02*
X166643278Y-92515132D01*
X166643278Y-92181799D02*
X166595659Y-92229418D01*
X166595659Y-92229418D02*
X166643278Y-92277037D01*
X166643278Y-92277037D02*
X166690897Y-92229418D01*
X166690897Y-92229418D02*
X166643278Y-92181799D01*
X166643278Y-92181799D02*
X166643278Y-92277037D01*
X167071849Y-93134180D02*
X167167087Y-93181799D01*
X167167087Y-93181799D02*
X167357563Y-93181799D01*
X167357563Y-93181799D02*
X167452801Y-93134180D01*
X167452801Y-93134180D02*
X167500420Y-93038941D01*
X167500420Y-93038941D02*
X167500420Y-92991322D01*
X167500420Y-92991322D02*
X167452801Y-92896084D01*
X167452801Y-92896084D02*
X167357563Y-92848465D01*
X167357563Y-92848465D02*
X167214706Y-92848465D01*
X167214706Y-92848465D02*
X167119468Y-92800846D01*
X167119468Y-92800846D02*
X167071849Y-92705608D01*
X167071849Y-92705608D02*
X167071849Y-92657989D01*
X167071849Y-92657989D02*
X167119468Y-92562751D01*
X167119468Y-92562751D02*
X167214706Y-92515132D01*
X167214706Y-92515132D02*
X167357563Y-92515132D01*
X167357563Y-92515132D02*
X167452801Y-92562751D01*
X169214706Y-93181799D02*
X168643278Y-93181799D01*
X168928992Y-93181799D02*
X168928992Y-92181799D01*
X168928992Y-92181799D02*
X168833754Y-92324656D01*
X168833754Y-92324656D02*
X168738516Y-92419894D01*
X168738516Y-92419894D02*
X168643278Y-92467513D01*
X169643278Y-93086560D02*
X169690897Y-93134180D01*
X169690897Y-93134180D02*
X169643278Y-93181799D01*
X169643278Y-93181799D02*
X169595659Y-93134180D01*
X169595659Y-93134180D02*
X169643278Y-93086560D01*
X169643278Y-93086560D02*
X169643278Y-93181799D01*
X170309944Y-92181799D02*
X170405182Y-92181799D01*
X170405182Y-92181799D02*
X170500420Y-92229418D01*
X170500420Y-92229418D02*
X170548039Y-92277037D01*
X170548039Y-92277037D02*
X170595658Y-92372275D01*
X170595658Y-92372275D02*
X170643277Y-92562751D01*
X170643277Y-92562751D02*
X170643277Y-92800846D01*
X170643277Y-92800846D02*
X170595658Y-92991322D01*
X170595658Y-92991322D02*
X170548039Y-93086560D01*
X170548039Y-93086560D02*
X170500420Y-93134180D01*
X170500420Y-93134180D02*
X170405182Y-93181799D01*
X170405182Y-93181799D02*
X170309944Y-93181799D01*
X170309944Y-93181799D02*
X170214706Y-93134180D01*
X170214706Y-93134180D02*
X170167087Y-93086560D01*
X170167087Y-93086560D02*
X170119468Y-92991322D01*
X170119468Y-92991322D02*
X170071849Y-92800846D01*
X170071849Y-92800846D02*
X170071849Y-92562751D01*
X170071849Y-92562751D02*
X170119468Y-92372275D01*
X170119468Y-92372275D02*
X170167087Y-92277037D01*
X170167087Y-92277037D02*
X170214706Y-92229418D01*
X170214706Y-92229418D02*
X170309944Y-92181799D01*
X170976611Y-92181799D02*
X171643277Y-92181799D01*
X171643277Y-92181799D02*
X171214706Y-93181799D01*
X171976611Y-92181799D02*
X171976611Y-92372275D01*
X172357563Y-92181799D02*
X172357563Y-92372275D01*
X173548040Y-93181799D02*
X173548040Y-92181799D01*
X173548040Y-92562751D02*
X173643278Y-92515132D01*
X173643278Y-92515132D02*
X173833754Y-92515132D01*
X173833754Y-92515132D02*
X173928992Y-92562751D01*
X173928992Y-92562751D02*
X173976611Y-92610370D01*
X173976611Y-92610370D02*
X174024230Y-92705608D01*
X174024230Y-92705608D02*
X174024230Y-92991322D01*
X174024230Y-92991322D02*
X173976611Y-93086560D01*
X173976611Y-93086560D02*
X173928992Y-93134180D01*
X173928992Y-93134180D02*
X173833754Y-93181799D01*
X173833754Y-93181799D02*
X173643278Y-93181799D01*
X173643278Y-93181799D02*
X173548040Y-93134180D01*
X174357564Y-92515132D02*
X174595659Y-93181799D01*
X174833754Y-92515132D02*
X174595659Y-93181799D01*
X174595659Y-93181799D02*
X174500421Y-93419894D01*
X174500421Y-93419894D02*
X174452802Y-93467513D01*
X174452802Y-93467513D02*
X174357564Y-93515132D01*
X176167088Y-92181799D02*
X176262326Y-92181799D01*
X176262326Y-92181799D02*
X176357564Y-92229418D01*
X176357564Y-92229418D02*
X176405183Y-92277037D01*
X176405183Y-92277037D02*
X176452802Y-92372275D01*
X176452802Y-92372275D02*
X176500421Y-92562751D01*
X176500421Y-92562751D02*
X176500421Y-92800846D01*
X176500421Y-92800846D02*
X176452802Y-92991322D01*
X176452802Y-92991322D02*
X176405183Y-93086560D01*
X176405183Y-93086560D02*
X176357564Y-93134180D01*
X176357564Y-93134180D02*
X176262326Y-93181799D01*
X176262326Y-93181799D02*
X176167088Y-93181799D01*
X176167088Y-93181799D02*
X176071850Y-93134180D01*
X176071850Y-93134180D02*
X176024231Y-93086560D01*
X176024231Y-93086560D02*
X175976612Y-92991322D01*
X175976612Y-92991322D02*
X175928993Y-92800846D01*
X175928993Y-92800846D02*
X175928993Y-92562751D01*
X175928993Y-92562751D02*
X175976612Y-92372275D01*
X175976612Y-92372275D02*
X176024231Y-92277037D01*
X176024231Y-92277037D02*
X176071850Y-92229418D01*
X176071850Y-92229418D02*
X176167088Y-92181799D01*
X176928993Y-93086560D02*
X176976612Y-93134180D01*
X176976612Y-93134180D02*
X176928993Y-93181799D01*
X176928993Y-93181799D02*
X176881374Y-93134180D01*
X176881374Y-93134180D02*
X176928993Y-93086560D01*
X176928993Y-93086560D02*
X176928993Y-93181799D01*
X177833754Y-92181799D02*
X177643278Y-92181799D01*
X177643278Y-92181799D02*
X177548040Y-92229418D01*
X177548040Y-92229418D02*
X177500421Y-92277037D01*
X177500421Y-92277037D02*
X177405183Y-92419894D01*
X177405183Y-92419894D02*
X177357564Y-92610370D01*
X177357564Y-92610370D02*
X177357564Y-92991322D01*
X177357564Y-92991322D02*
X177405183Y-93086560D01*
X177405183Y-93086560D02*
X177452802Y-93134180D01*
X177452802Y-93134180D02*
X177548040Y-93181799D01*
X177548040Y-93181799D02*
X177738516Y-93181799D01*
X177738516Y-93181799D02*
X177833754Y-93134180D01*
X177833754Y-93134180D02*
X177881373Y-93086560D01*
X177881373Y-93086560D02*
X177928992Y-92991322D01*
X177928992Y-92991322D02*
X177928992Y-92753227D01*
X177928992Y-92753227D02*
X177881373Y-92657989D01*
X177881373Y-92657989D02*
X177833754Y-92610370D01*
X177833754Y-92610370D02*
X177738516Y-92562751D01*
X177738516Y-92562751D02*
X177548040Y-92562751D01*
X177548040Y-92562751D02*
X177452802Y-92610370D01*
X177452802Y-92610370D02*
X177405183Y-92657989D01*
X177405183Y-92657989D02*
X177357564Y-92753227D01*
X178881373Y-93181799D02*
X178309945Y-93181799D01*
X178595659Y-93181799D02*
X178595659Y-92181799D01*
X178595659Y-92181799D02*
X178500421Y-92324656D01*
X178500421Y-92324656D02*
X178405183Y-92419894D01*
X178405183Y-92419894D02*
X178309945Y-92467513D01*
X179786135Y-92181799D02*
X179309945Y-92181799D01*
X179309945Y-92181799D02*
X179262326Y-92657989D01*
X179262326Y-92657989D02*
X179309945Y-92610370D01*
X179309945Y-92610370D02*
X179405183Y-92562751D01*
X179405183Y-92562751D02*
X179643278Y-92562751D01*
X179643278Y-92562751D02*
X179738516Y-92610370D01*
X179738516Y-92610370D02*
X179786135Y-92657989D01*
X179786135Y-92657989D02*
X179833754Y-92753227D01*
X179833754Y-92753227D02*
X179833754Y-92991322D01*
X179833754Y-92991322D02*
X179786135Y-93086560D01*
X179786135Y-93086560D02*
X179738516Y-93134180D01*
X179738516Y-93134180D02*
X179643278Y-93181799D01*
X179643278Y-93181799D02*
X179405183Y-93181799D01*
X179405183Y-93181799D02*
X179309945Y-93134180D01*
X179309945Y-93134180D02*
X179262326Y-93086560D01*
X180214707Y-92181799D02*
X180214707Y-92372275D01*
X180595659Y-92181799D02*
X180595659Y-92372275D01*
M02*
