%TF.GenerationSoftware,KiCad,Pcbnew,9.0.0*%
%TF.CreationDate,2025-04-02T01:46:26-07:00*%
%TF.ProjectId,LEDBoardUnhaunted,4c454442-6f61-4726-9455-6e6861756e74,rev?*%
%TF.SameCoordinates,Original*%
%TF.FileFunction,AssemblyDrawing,Top*%
%FSLAX46Y46*%
G04 Gerber Fmt 4.6, Leading zero omitted, Abs format (unit mm)*
G04 Created by KiCad (PCBNEW 9.0.0) date 2025-04-02 01:46:26*
%MOMM*%
%LPD*%
G01*
G04 APERTURE LIST*
%ADD10C,0.150000*%
%ADD11C,0.050000*%
%ADD12C,0.100000*%
%ADD13C,0.025400*%
%ADD14C,0.508000*%
G04 APERTURE END LIST*
D10*
X121503085Y-105721819D02*
X121503085Y-104721819D01*
X121503085Y-104721819D02*
X121836418Y-105436104D01*
X121836418Y-105436104D02*
X122169751Y-104721819D01*
X122169751Y-104721819D02*
X122169751Y-105721819D01*
X122788799Y-105721819D02*
X122693561Y-105674200D01*
X122693561Y-105674200D02*
X122645942Y-105626580D01*
X122645942Y-105626580D02*
X122598323Y-105531342D01*
X122598323Y-105531342D02*
X122598323Y-105245628D01*
X122598323Y-105245628D02*
X122645942Y-105150390D01*
X122645942Y-105150390D02*
X122693561Y-105102771D01*
X122693561Y-105102771D02*
X122788799Y-105055152D01*
X122788799Y-105055152D02*
X122931656Y-105055152D01*
X122931656Y-105055152D02*
X123026894Y-105102771D01*
X123026894Y-105102771D02*
X123074513Y-105150390D01*
X123074513Y-105150390D02*
X123122132Y-105245628D01*
X123122132Y-105245628D02*
X123122132Y-105531342D01*
X123122132Y-105531342D02*
X123074513Y-105626580D01*
X123074513Y-105626580D02*
X123026894Y-105674200D01*
X123026894Y-105674200D02*
X122931656Y-105721819D01*
X122931656Y-105721819D02*
X122788799Y-105721819D01*
X123979275Y-105055152D02*
X123979275Y-105721819D01*
X123550704Y-105055152D02*
X123550704Y-105578961D01*
X123550704Y-105578961D02*
X123598323Y-105674200D01*
X123598323Y-105674200D02*
X123693561Y-105721819D01*
X123693561Y-105721819D02*
X123836418Y-105721819D01*
X123836418Y-105721819D02*
X123931656Y-105674200D01*
X123931656Y-105674200D02*
X123979275Y-105626580D01*
X124455466Y-105055152D02*
X124455466Y-105721819D01*
X124455466Y-105150390D02*
X124503085Y-105102771D01*
X124503085Y-105102771D02*
X124598323Y-105055152D01*
X124598323Y-105055152D02*
X124741180Y-105055152D01*
X124741180Y-105055152D02*
X124836418Y-105102771D01*
X124836418Y-105102771D02*
X124884037Y-105198009D01*
X124884037Y-105198009D02*
X124884037Y-105721819D01*
X125217371Y-105055152D02*
X125598323Y-105055152D01*
X125360228Y-104721819D02*
X125360228Y-105578961D01*
X125360228Y-105578961D02*
X125407847Y-105674200D01*
X125407847Y-105674200D02*
X125503085Y-105721819D01*
X125503085Y-105721819D02*
X125598323Y-105721819D01*
X125931657Y-105721819D02*
X125931657Y-105055152D01*
X125931657Y-104721819D02*
X125884038Y-104769438D01*
X125884038Y-104769438D02*
X125931657Y-104817057D01*
X125931657Y-104817057D02*
X125979276Y-104769438D01*
X125979276Y-104769438D02*
X125931657Y-104721819D01*
X125931657Y-104721819D02*
X125931657Y-104817057D01*
X126407847Y-105055152D02*
X126407847Y-105721819D01*
X126407847Y-105150390D02*
X126455466Y-105102771D01*
X126455466Y-105102771D02*
X126550704Y-105055152D01*
X126550704Y-105055152D02*
X126693561Y-105055152D01*
X126693561Y-105055152D02*
X126788799Y-105102771D01*
X126788799Y-105102771D02*
X126836418Y-105198009D01*
X126836418Y-105198009D02*
X126836418Y-105721819D01*
X127741180Y-105055152D02*
X127741180Y-105864676D01*
X127741180Y-105864676D02*
X127693561Y-105959914D01*
X127693561Y-105959914D02*
X127645942Y-106007533D01*
X127645942Y-106007533D02*
X127550704Y-106055152D01*
X127550704Y-106055152D02*
X127407847Y-106055152D01*
X127407847Y-106055152D02*
X127312609Y-106007533D01*
X127741180Y-105674200D02*
X127645942Y-105721819D01*
X127645942Y-105721819D02*
X127455466Y-105721819D01*
X127455466Y-105721819D02*
X127360228Y-105674200D01*
X127360228Y-105674200D02*
X127312609Y-105626580D01*
X127312609Y-105626580D02*
X127264990Y-105531342D01*
X127264990Y-105531342D02*
X127264990Y-105245628D01*
X127264990Y-105245628D02*
X127312609Y-105150390D01*
X127312609Y-105150390D02*
X127360228Y-105102771D01*
X127360228Y-105102771D02*
X127455466Y-105055152D01*
X127455466Y-105055152D02*
X127645942Y-105055152D01*
X127645942Y-105055152D02*
X127741180Y-105102771D01*
X128217371Y-105721819D02*
X128217371Y-104721819D01*
X128217371Y-105198009D02*
X128788799Y-105198009D01*
X128788799Y-105721819D02*
X128788799Y-104721819D01*
X129407847Y-105721819D02*
X129312609Y-105674200D01*
X129312609Y-105674200D02*
X129264990Y-105626580D01*
X129264990Y-105626580D02*
X129217371Y-105531342D01*
X129217371Y-105531342D02*
X129217371Y-105245628D01*
X129217371Y-105245628D02*
X129264990Y-105150390D01*
X129264990Y-105150390D02*
X129312609Y-105102771D01*
X129312609Y-105102771D02*
X129407847Y-105055152D01*
X129407847Y-105055152D02*
X129550704Y-105055152D01*
X129550704Y-105055152D02*
X129645942Y-105102771D01*
X129645942Y-105102771D02*
X129693561Y-105150390D01*
X129693561Y-105150390D02*
X129741180Y-105245628D01*
X129741180Y-105245628D02*
X129741180Y-105531342D01*
X129741180Y-105531342D02*
X129693561Y-105626580D01*
X129693561Y-105626580D02*
X129645942Y-105674200D01*
X129645942Y-105674200D02*
X129550704Y-105721819D01*
X129550704Y-105721819D02*
X129407847Y-105721819D01*
X130312609Y-105721819D02*
X130217371Y-105674200D01*
X130217371Y-105674200D02*
X130169752Y-105578961D01*
X130169752Y-105578961D02*
X130169752Y-104721819D01*
X131074514Y-105674200D02*
X130979276Y-105721819D01*
X130979276Y-105721819D02*
X130788800Y-105721819D01*
X130788800Y-105721819D02*
X130693562Y-105674200D01*
X130693562Y-105674200D02*
X130645943Y-105578961D01*
X130645943Y-105578961D02*
X130645943Y-105198009D01*
X130645943Y-105198009D02*
X130693562Y-105102771D01*
X130693562Y-105102771D02*
X130788800Y-105055152D01*
X130788800Y-105055152D02*
X130979276Y-105055152D01*
X130979276Y-105055152D02*
X131074514Y-105102771D01*
X131074514Y-105102771D02*
X131122133Y-105198009D01*
X131122133Y-105198009D02*
X131122133Y-105293247D01*
X131122133Y-105293247D02*
X130645943Y-105388485D01*
X125526895Y-107221819D02*
X125526895Y-106221819D01*
X125526895Y-106698009D02*
X126098323Y-106698009D01*
X126098323Y-107221819D02*
X126098323Y-106221819D01*
X127003085Y-106555152D02*
X127003085Y-107221819D01*
X126764990Y-106174200D02*
X126526895Y-106888485D01*
X126526895Y-106888485D02*
X127145942Y-106888485D01*
X130075742Y-96130519D02*
X129599552Y-96130519D01*
X129599552Y-96130519D02*
X129599552Y-95130519D01*
X130409076Y-95606709D02*
X130742409Y-95606709D01*
X130885266Y-96130519D02*
X130409076Y-96130519D01*
X130409076Y-96130519D02*
X130409076Y-95130519D01*
X130409076Y-95130519D02*
X130885266Y-95130519D01*
X131313838Y-96130519D02*
X131313838Y-95130519D01*
X131313838Y-95130519D02*
X131551933Y-95130519D01*
X131551933Y-95130519D02*
X131694790Y-95178138D01*
X131694790Y-95178138D02*
X131790028Y-95273376D01*
X131790028Y-95273376D02*
X131837647Y-95368614D01*
X131837647Y-95368614D02*
X131885266Y-95559090D01*
X131885266Y-95559090D02*
X131885266Y-95701947D01*
X131885266Y-95701947D02*
X131837647Y-95892423D01*
X131837647Y-95892423D02*
X131790028Y-95987661D01*
X131790028Y-95987661D02*
X131694790Y-96082900D01*
X131694790Y-96082900D02*
X131551933Y-96130519D01*
X131551933Y-96130519D02*
X131313838Y-96130519D01*
D11*
X130349552Y-97904409D02*
X130349552Y-97404409D01*
X130349552Y-97404409D02*
X130468600Y-97404409D01*
X130468600Y-97404409D02*
X130540028Y-97428219D01*
X130540028Y-97428219D02*
X130587647Y-97475838D01*
X130587647Y-97475838D02*
X130611457Y-97523457D01*
X130611457Y-97523457D02*
X130635266Y-97618695D01*
X130635266Y-97618695D02*
X130635266Y-97690123D01*
X130635266Y-97690123D02*
X130611457Y-97785361D01*
X130611457Y-97785361D02*
X130587647Y-97832980D01*
X130587647Y-97832980D02*
X130540028Y-97880600D01*
X130540028Y-97880600D02*
X130468600Y-97904409D01*
X130468600Y-97904409D02*
X130349552Y-97904409D01*
X130801933Y-97404409D02*
X131111457Y-97404409D01*
X131111457Y-97404409D02*
X130944790Y-97594885D01*
X130944790Y-97594885D02*
X131016219Y-97594885D01*
X131016219Y-97594885D02*
X131063838Y-97618695D01*
X131063838Y-97618695D02*
X131087647Y-97642504D01*
X131087647Y-97642504D02*
X131111457Y-97690123D01*
X131111457Y-97690123D02*
X131111457Y-97809171D01*
X131111457Y-97809171D02*
X131087647Y-97856790D01*
X131087647Y-97856790D02*
X131063838Y-97880600D01*
X131063838Y-97880600D02*
X131016219Y-97904409D01*
X131016219Y-97904409D02*
X130873362Y-97904409D01*
X130873362Y-97904409D02*
X130825743Y-97880600D01*
X130825743Y-97880600D02*
X130801933Y-97856790D01*
D10*
X125526895Y-96426819D02*
X125526895Y-95426819D01*
X125526895Y-95903009D02*
X126098323Y-95903009D01*
X126098323Y-96426819D02*
X126098323Y-95426819D01*
X127098323Y-96426819D02*
X126526895Y-96426819D01*
X126812609Y-96426819D02*
X126812609Y-95426819D01*
X126812609Y-95426819D02*
X126717371Y-95569676D01*
X126717371Y-95569676D02*
X126622133Y-95664914D01*
X126622133Y-95664914D02*
X126526895Y-95712533D01*
X132343942Y-102391119D02*
X131867752Y-102391119D01*
X131867752Y-102391119D02*
X131867752Y-101391119D01*
X132677276Y-101867309D02*
X133010609Y-101867309D01*
X133153466Y-102391119D02*
X132677276Y-102391119D01*
X132677276Y-102391119D02*
X132677276Y-101391119D01*
X132677276Y-101391119D02*
X133153466Y-101391119D01*
X133582038Y-102391119D02*
X133582038Y-101391119D01*
X133582038Y-101391119D02*
X133820133Y-101391119D01*
X133820133Y-101391119D02*
X133962990Y-101438738D01*
X133962990Y-101438738D02*
X134058228Y-101533976D01*
X134058228Y-101533976D02*
X134105847Y-101629214D01*
X134105847Y-101629214D02*
X134153466Y-101819690D01*
X134153466Y-101819690D02*
X134153466Y-101962547D01*
X134153466Y-101962547D02*
X134105847Y-102153023D01*
X134105847Y-102153023D02*
X134058228Y-102248261D01*
X134058228Y-102248261D02*
X133962990Y-102343500D01*
X133962990Y-102343500D02*
X133820133Y-102391119D01*
X133820133Y-102391119D02*
X133582038Y-102391119D01*
D11*
X132617752Y-100165009D02*
X132617752Y-99665009D01*
X132617752Y-99665009D02*
X132736800Y-99665009D01*
X132736800Y-99665009D02*
X132808228Y-99688819D01*
X132808228Y-99688819D02*
X132855847Y-99736438D01*
X132855847Y-99736438D02*
X132879657Y-99784057D01*
X132879657Y-99784057D02*
X132903466Y-99879295D01*
X132903466Y-99879295D02*
X132903466Y-99950723D01*
X132903466Y-99950723D02*
X132879657Y-100045961D01*
X132879657Y-100045961D02*
X132855847Y-100093580D01*
X132855847Y-100093580D02*
X132808228Y-100141200D01*
X132808228Y-100141200D02*
X132736800Y-100165009D01*
X132736800Y-100165009D02*
X132617752Y-100165009D01*
X133379657Y-100165009D02*
X133093943Y-100165009D01*
X133236800Y-100165009D02*
X133236800Y-99665009D01*
X133236800Y-99665009D02*
X133189181Y-99736438D01*
X133189181Y-99736438D02*
X133141562Y-99784057D01*
X133141562Y-99784057D02*
X133093943Y-99807866D01*
D10*
X133695085Y-94926819D02*
X133695085Y-93926819D01*
X133695085Y-93926819D02*
X134028418Y-94641104D01*
X134028418Y-94641104D02*
X134361751Y-93926819D01*
X134361751Y-93926819D02*
X134361751Y-94926819D01*
X134980799Y-94926819D02*
X134885561Y-94879200D01*
X134885561Y-94879200D02*
X134837942Y-94831580D01*
X134837942Y-94831580D02*
X134790323Y-94736342D01*
X134790323Y-94736342D02*
X134790323Y-94450628D01*
X134790323Y-94450628D02*
X134837942Y-94355390D01*
X134837942Y-94355390D02*
X134885561Y-94307771D01*
X134885561Y-94307771D02*
X134980799Y-94260152D01*
X134980799Y-94260152D02*
X135123656Y-94260152D01*
X135123656Y-94260152D02*
X135218894Y-94307771D01*
X135218894Y-94307771D02*
X135266513Y-94355390D01*
X135266513Y-94355390D02*
X135314132Y-94450628D01*
X135314132Y-94450628D02*
X135314132Y-94736342D01*
X135314132Y-94736342D02*
X135266513Y-94831580D01*
X135266513Y-94831580D02*
X135218894Y-94879200D01*
X135218894Y-94879200D02*
X135123656Y-94926819D01*
X135123656Y-94926819D02*
X134980799Y-94926819D01*
X136171275Y-94260152D02*
X136171275Y-94926819D01*
X135742704Y-94260152D02*
X135742704Y-94783961D01*
X135742704Y-94783961D02*
X135790323Y-94879200D01*
X135790323Y-94879200D02*
X135885561Y-94926819D01*
X135885561Y-94926819D02*
X136028418Y-94926819D01*
X136028418Y-94926819D02*
X136123656Y-94879200D01*
X136123656Y-94879200D02*
X136171275Y-94831580D01*
X136647466Y-94260152D02*
X136647466Y-94926819D01*
X136647466Y-94355390D02*
X136695085Y-94307771D01*
X136695085Y-94307771D02*
X136790323Y-94260152D01*
X136790323Y-94260152D02*
X136933180Y-94260152D01*
X136933180Y-94260152D02*
X137028418Y-94307771D01*
X137028418Y-94307771D02*
X137076037Y-94403009D01*
X137076037Y-94403009D02*
X137076037Y-94926819D01*
X137409371Y-94260152D02*
X137790323Y-94260152D01*
X137552228Y-93926819D02*
X137552228Y-94783961D01*
X137552228Y-94783961D02*
X137599847Y-94879200D01*
X137599847Y-94879200D02*
X137695085Y-94926819D01*
X137695085Y-94926819D02*
X137790323Y-94926819D01*
X138123657Y-94926819D02*
X138123657Y-94260152D01*
X138123657Y-93926819D02*
X138076038Y-93974438D01*
X138076038Y-93974438D02*
X138123657Y-94022057D01*
X138123657Y-94022057D02*
X138171276Y-93974438D01*
X138171276Y-93974438D02*
X138123657Y-93926819D01*
X138123657Y-93926819D02*
X138123657Y-94022057D01*
X138599847Y-94260152D02*
X138599847Y-94926819D01*
X138599847Y-94355390D02*
X138647466Y-94307771D01*
X138647466Y-94307771D02*
X138742704Y-94260152D01*
X138742704Y-94260152D02*
X138885561Y-94260152D01*
X138885561Y-94260152D02*
X138980799Y-94307771D01*
X138980799Y-94307771D02*
X139028418Y-94403009D01*
X139028418Y-94403009D02*
X139028418Y-94926819D01*
X139933180Y-94260152D02*
X139933180Y-95069676D01*
X139933180Y-95069676D02*
X139885561Y-95164914D01*
X139885561Y-95164914D02*
X139837942Y-95212533D01*
X139837942Y-95212533D02*
X139742704Y-95260152D01*
X139742704Y-95260152D02*
X139599847Y-95260152D01*
X139599847Y-95260152D02*
X139504609Y-95212533D01*
X139933180Y-94879200D02*
X139837942Y-94926819D01*
X139837942Y-94926819D02*
X139647466Y-94926819D01*
X139647466Y-94926819D02*
X139552228Y-94879200D01*
X139552228Y-94879200D02*
X139504609Y-94831580D01*
X139504609Y-94831580D02*
X139456990Y-94736342D01*
X139456990Y-94736342D02*
X139456990Y-94450628D01*
X139456990Y-94450628D02*
X139504609Y-94355390D01*
X139504609Y-94355390D02*
X139552228Y-94307771D01*
X139552228Y-94307771D02*
X139647466Y-94260152D01*
X139647466Y-94260152D02*
X139837942Y-94260152D01*
X139837942Y-94260152D02*
X139933180Y-94307771D01*
X140409371Y-94926819D02*
X140409371Y-93926819D01*
X140409371Y-94403009D02*
X140980799Y-94403009D01*
X140980799Y-94926819D02*
X140980799Y-93926819D01*
X141599847Y-94926819D02*
X141504609Y-94879200D01*
X141504609Y-94879200D02*
X141456990Y-94831580D01*
X141456990Y-94831580D02*
X141409371Y-94736342D01*
X141409371Y-94736342D02*
X141409371Y-94450628D01*
X141409371Y-94450628D02*
X141456990Y-94355390D01*
X141456990Y-94355390D02*
X141504609Y-94307771D01*
X141504609Y-94307771D02*
X141599847Y-94260152D01*
X141599847Y-94260152D02*
X141742704Y-94260152D01*
X141742704Y-94260152D02*
X141837942Y-94307771D01*
X141837942Y-94307771D02*
X141885561Y-94355390D01*
X141885561Y-94355390D02*
X141933180Y-94450628D01*
X141933180Y-94450628D02*
X141933180Y-94736342D01*
X141933180Y-94736342D02*
X141885561Y-94831580D01*
X141885561Y-94831580D02*
X141837942Y-94879200D01*
X141837942Y-94879200D02*
X141742704Y-94926819D01*
X141742704Y-94926819D02*
X141599847Y-94926819D01*
X142504609Y-94926819D02*
X142409371Y-94879200D01*
X142409371Y-94879200D02*
X142361752Y-94783961D01*
X142361752Y-94783961D02*
X142361752Y-93926819D01*
X143266514Y-94879200D02*
X143171276Y-94926819D01*
X143171276Y-94926819D02*
X142980800Y-94926819D01*
X142980800Y-94926819D02*
X142885562Y-94879200D01*
X142885562Y-94879200D02*
X142837943Y-94783961D01*
X142837943Y-94783961D02*
X142837943Y-94403009D01*
X142837943Y-94403009D02*
X142885562Y-94307771D01*
X142885562Y-94307771D02*
X142980800Y-94260152D01*
X142980800Y-94260152D02*
X143171276Y-94260152D01*
X143171276Y-94260152D02*
X143266514Y-94307771D01*
X143266514Y-94307771D02*
X143314133Y-94403009D01*
X143314133Y-94403009D02*
X143314133Y-94498247D01*
X143314133Y-94498247D02*
X142837943Y-94593485D01*
X137718895Y-96426819D02*
X137718895Y-95426819D01*
X137718895Y-95903009D02*
X138290323Y-95903009D01*
X138290323Y-96426819D02*
X138290323Y-95426819D01*
X138671276Y-95426819D02*
X139290323Y-95426819D01*
X139290323Y-95426819D02*
X138956990Y-95807771D01*
X138956990Y-95807771D02*
X139099847Y-95807771D01*
X139099847Y-95807771D02*
X139195085Y-95855390D01*
X139195085Y-95855390D02*
X139242704Y-95903009D01*
X139242704Y-95903009D02*
X139290323Y-95998247D01*
X139290323Y-95998247D02*
X139290323Y-96236342D01*
X139290323Y-96236342D02*
X139242704Y-96331580D01*
X139242704Y-96331580D02*
X139195085Y-96379200D01*
X139195085Y-96379200D02*
X139099847Y-96426819D01*
X139099847Y-96426819D02*
X138814133Y-96426819D01*
X138814133Y-96426819D02*
X138718895Y-96379200D01*
X138718895Y-96379200D02*
X138671276Y-96331580D01*
X133695085Y-105721819D02*
X133695085Y-104721819D01*
X133695085Y-104721819D02*
X134028418Y-105436104D01*
X134028418Y-105436104D02*
X134361751Y-104721819D01*
X134361751Y-104721819D02*
X134361751Y-105721819D01*
X134980799Y-105721819D02*
X134885561Y-105674200D01*
X134885561Y-105674200D02*
X134837942Y-105626580D01*
X134837942Y-105626580D02*
X134790323Y-105531342D01*
X134790323Y-105531342D02*
X134790323Y-105245628D01*
X134790323Y-105245628D02*
X134837942Y-105150390D01*
X134837942Y-105150390D02*
X134885561Y-105102771D01*
X134885561Y-105102771D02*
X134980799Y-105055152D01*
X134980799Y-105055152D02*
X135123656Y-105055152D01*
X135123656Y-105055152D02*
X135218894Y-105102771D01*
X135218894Y-105102771D02*
X135266513Y-105150390D01*
X135266513Y-105150390D02*
X135314132Y-105245628D01*
X135314132Y-105245628D02*
X135314132Y-105531342D01*
X135314132Y-105531342D02*
X135266513Y-105626580D01*
X135266513Y-105626580D02*
X135218894Y-105674200D01*
X135218894Y-105674200D02*
X135123656Y-105721819D01*
X135123656Y-105721819D02*
X134980799Y-105721819D01*
X136171275Y-105055152D02*
X136171275Y-105721819D01*
X135742704Y-105055152D02*
X135742704Y-105578961D01*
X135742704Y-105578961D02*
X135790323Y-105674200D01*
X135790323Y-105674200D02*
X135885561Y-105721819D01*
X135885561Y-105721819D02*
X136028418Y-105721819D01*
X136028418Y-105721819D02*
X136123656Y-105674200D01*
X136123656Y-105674200D02*
X136171275Y-105626580D01*
X136647466Y-105055152D02*
X136647466Y-105721819D01*
X136647466Y-105150390D02*
X136695085Y-105102771D01*
X136695085Y-105102771D02*
X136790323Y-105055152D01*
X136790323Y-105055152D02*
X136933180Y-105055152D01*
X136933180Y-105055152D02*
X137028418Y-105102771D01*
X137028418Y-105102771D02*
X137076037Y-105198009D01*
X137076037Y-105198009D02*
X137076037Y-105721819D01*
X137409371Y-105055152D02*
X137790323Y-105055152D01*
X137552228Y-104721819D02*
X137552228Y-105578961D01*
X137552228Y-105578961D02*
X137599847Y-105674200D01*
X137599847Y-105674200D02*
X137695085Y-105721819D01*
X137695085Y-105721819D02*
X137790323Y-105721819D01*
X138123657Y-105721819D02*
X138123657Y-105055152D01*
X138123657Y-104721819D02*
X138076038Y-104769438D01*
X138076038Y-104769438D02*
X138123657Y-104817057D01*
X138123657Y-104817057D02*
X138171276Y-104769438D01*
X138171276Y-104769438D02*
X138123657Y-104721819D01*
X138123657Y-104721819D02*
X138123657Y-104817057D01*
X138599847Y-105055152D02*
X138599847Y-105721819D01*
X138599847Y-105150390D02*
X138647466Y-105102771D01*
X138647466Y-105102771D02*
X138742704Y-105055152D01*
X138742704Y-105055152D02*
X138885561Y-105055152D01*
X138885561Y-105055152D02*
X138980799Y-105102771D01*
X138980799Y-105102771D02*
X139028418Y-105198009D01*
X139028418Y-105198009D02*
X139028418Y-105721819D01*
X139933180Y-105055152D02*
X139933180Y-105864676D01*
X139933180Y-105864676D02*
X139885561Y-105959914D01*
X139885561Y-105959914D02*
X139837942Y-106007533D01*
X139837942Y-106007533D02*
X139742704Y-106055152D01*
X139742704Y-106055152D02*
X139599847Y-106055152D01*
X139599847Y-106055152D02*
X139504609Y-106007533D01*
X139933180Y-105674200D02*
X139837942Y-105721819D01*
X139837942Y-105721819D02*
X139647466Y-105721819D01*
X139647466Y-105721819D02*
X139552228Y-105674200D01*
X139552228Y-105674200D02*
X139504609Y-105626580D01*
X139504609Y-105626580D02*
X139456990Y-105531342D01*
X139456990Y-105531342D02*
X139456990Y-105245628D01*
X139456990Y-105245628D02*
X139504609Y-105150390D01*
X139504609Y-105150390D02*
X139552228Y-105102771D01*
X139552228Y-105102771D02*
X139647466Y-105055152D01*
X139647466Y-105055152D02*
X139837942Y-105055152D01*
X139837942Y-105055152D02*
X139933180Y-105102771D01*
X140409371Y-105721819D02*
X140409371Y-104721819D01*
X140409371Y-105198009D02*
X140980799Y-105198009D01*
X140980799Y-105721819D02*
X140980799Y-104721819D01*
X141599847Y-105721819D02*
X141504609Y-105674200D01*
X141504609Y-105674200D02*
X141456990Y-105626580D01*
X141456990Y-105626580D02*
X141409371Y-105531342D01*
X141409371Y-105531342D02*
X141409371Y-105245628D01*
X141409371Y-105245628D02*
X141456990Y-105150390D01*
X141456990Y-105150390D02*
X141504609Y-105102771D01*
X141504609Y-105102771D02*
X141599847Y-105055152D01*
X141599847Y-105055152D02*
X141742704Y-105055152D01*
X141742704Y-105055152D02*
X141837942Y-105102771D01*
X141837942Y-105102771D02*
X141885561Y-105150390D01*
X141885561Y-105150390D02*
X141933180Y-105245628D01*
X141933180Y-105245628D02*
X141933180Y-105531342D01*
X141933180Y-105531342D02*
X141885561Y-105626580D01*
X141885561Y-105626580D02*
X141837942Y-105674200D01*
X141837942Y-105674200D02*
X141742704Y-105721819D01*
X141742704Y-105721819D02*
X141599847Y-105721819D01*
X142504609Y-105721819D02*
X142409371Y-105674200D01*
X142409371Y-105674200D02*
X142361752Y-105578961D01*
X142361752Y-105578961D02*
X142361752Y-104721819D01*
X143266514Y-105674200D02*
X143171276Y-105721819D01*
X143171276Y-105721819D02*
X142980800Y-105721819D01*
X142980800Y-105721819D02*
X142885562Y-105674200D01*
X142885562Y-105674200D02*
X142837943Y-105578961D01*
X142837943Y-105578961D02*
X142837943Y-105198009D01*
X142837943Y-105198009D02*
X142885562Y-105102771D01*
X142885562Y-105102771D02*
X142980800Y-105055152D01*
X142980800Y-105055152D02*
X143171276Y-105055152D01*
X143171276Y-105055152D02*
X143266514Y-105102771D01*
X143266514Y-105102771D02*
X143314133Y-105198009D01*
X143314133Y-105198009D02*
X143314133Y-105293247D01*
X143314133Y-105293247D02*
X142837943Y-105388485D01*
X137718895Y-107221819D02*
X137718895Y-106221819D01*
X137718895Y-106698009D02*
X138290323Y-106698009D01*
X138290323Y-107221819D02*
X138290323Y-106221819D01*
X138718895Y-106317057D02*
X138766514Y-106269438D01*
X138766514Y-106269438D02*
X138861752Y-106221819D01*
X138861752Y-106221819D02*
X139099847Y-106221819D01*
X139099847Y-106221819D02*
X139195085Y-106269438D01*
X139195085Y-106269438D02*
X139242704Y-106317057D01*
X139242704Y-106317057D02*
X139290323Y-106412295D01*
X139290323Y-106412295D02*
X139290323Y-106507533D01*
X139290323Y-106507533D02*
X139242704Y-106650390D01*
X139242704Y-106650390D02*
X138671276Y-107221819D01*
X138671276Y-107221819D02*
X139290323Y-107221819D01*
X130068142Y-98391119D02*
X129591952Y-98391119D01*
X129591952Y-98391119D02*
X129591952Y-97391119D01*
X130401476Y-97867309D02*
X130734809Y-97867309D01*
X130877666Y-98391119D02*
X130401476Y-98391119D01*
X130401476Y-98391119D02*
X130401476Y-97391119D01*
X130401476Y-97391119D02*
X130877666Y-97391119D01*
X131306238Y-98391119D02*
X131306238Y-97391119D01*
X131306238Y-97391119D02*
X131544333Y-97391119D01*
X131544333Y-97391119D02*
X131687190Y-97438738D01*
X131687190Y-97438738D02*
X131782428Y-97533976D01*
X131782428Y-97533976D02*
X131830047Y-97629214D01*
X131830047Y-97629214D02*
X131877666Y-97819690D01*
X131877666Y-97819690D02*
X131877666Y-97962547D01*
X131877666Y-97962547D02*
X131830047Y-98153023D01*
X131830047Y-98153023D02*
X131782428Y-98248261D01*
X131782428Y-98248261D02*
X131687190Y-98343500D01*
X131687190Y-98343500D02*
X131544333Y-98391119D01*
X131544333Y-98391119D02*
X131306238Y-98391119D01*
D11*
X130341952Y-100165009D02*
X130341952Y-99665009D01*
X130341952Y-99665009D02*
X130461000Y-99665009D01*
X130461000Y-99665009D02*
X130532428Y-99688819D01*
X130532428Y-99688819D02*
X130580047Y-99736438D01*
X130580047Y-99736438D02*
X130603857Y-99784057D01*
X130603857Y-99784057D02*
X130627666Y-99879295D01*
X130627666Y-99879295D02*
X130627666Y-99950723D01*
X130627666Y-99950723D02*
X130603857Y-100045961D01*
X130603857Y-100045961D02*
X130580047Y-100093580D01*
X130580047Y-100093580D02*
X130532428Y-100141200D01*
X130532428Y-100141200D02*
X130461000Y-100165009D01*
X130461000Y-100165009D02*
X130341952Y-100165009D01*
X131056238Y-99831676D02*
X131056238Y-100165009D01*
X130937190Y-99641200D02*
X130818143Y-99998342D01*
X130818143Y-99998342D02*
X131127666Y-99998342D01*
D10*
X144954390Y-102598562D02*
X144906771Y-102693800D01*
X144906771Y-102693800D02*
X144859152Y-102741419D01*
X144859152Y-102741419D02*
X144763914Y-102789038D01*
X144763914Y-102789038D02*
X144716295Y-102789038D01*
X144716295Y-102789038D02*
X144621057Y-102741419D01*
X144621057Y-102741419D02*
X144573438Y-102693800D01*
X144573438Y-102693800D02*
X144525819Y-102598562D01*
X144525819Y-102598562D02*
X144525819Y-102408086D01*
X144525819Y-102408086D02*
X144573438Y-102312848D01*
X144573438Y-102312848D02*
X144621057Y-102265229D01*
X144621057Y-102265229D02*
X144716295Y-102217610D01*
X144716295Y-102217610D02*
X144763914Y-102217610D01*
X144763914Y-102217610D02*
X144859152Y-102265229D01*
X144859152Y-102265229D02*
X144906771Y-102312848D01*
X144906771Y-102312848D02*
X144954390Y-102408086D01*
X144954390Y-102408086D02*
X144954390Y-102598562D01*
X144954390Y-102598562D02*
X145002009Y-102693800D01*
X145002009Y-102693800D02*
X145049628Y-102741419D01*
X145049628Y-102741419D02*
X145144866Y-102789038D01*
X145144866Y-102789038D02*
X145335342Y-102789038D01*
X145335342Y-102789038D02*
X145430580Y-102741419D01*
X145430580Y-102741419D02*
X145478200Y-102693800D01*
X145478200Y-102693800D02*
X145525819Y-102598562D01*
X145525819Y-102598562D02*
X145525819Y-102408086D01*
X145525819Y-102408086D02*
X145478200Y-102312848D01*
X145478200Y-102312848D02*
X145430580Y-102265229D01*
X145430580Y-102265229D02*
X145335342Y-102217610D01*
X145335342Y-102217610D02*
X145144866Y-102217610D01*
X145144866Y-102217610D02*
X145049628Y-102265229D01*
X145049628Y-102265229D02*
X145002009Y-102312848D01*
X145002009Y-102312848D02*
X144954390Y-102408086D01*
X144525819Y-101884276D02*
X144525819Y-101217610D01*
X144525819Y-101217610D02*
X145525819Y-101646181D01*
X144859152Y-100408086D02*
X145525819Y-100408086D01*
X144478200Y-100646181D02*
X145192485Y-100884276D01*
X145192485Y-100884276D02*
X145192485Y-100265229D01*
X144525819Y-99979514D02*
X144525819Y-99360467D01*
X144525819Y-99360467D02*
X144906771Y-99693800D01*
X144906771Y-99693800D02*
X144906771Y-99550943D01*
X144906771Y-99550943D02*
X144954390Y-99455705D01*
X144954390Y-99455705D02*
X145002009Y-99408086D01*
X145002009Y-99408086D02*
X145097247Y-99360467D01*
X145097247Y-99360467D02*
X145335342Y-99360467D01*
X145335342Y-99360467D02*
X145430580Y-99408086D01*
X145430580Y-99408086D02*
X145478200Y-99455705D01*
X145478200Y-99455705D02*
X145525819Y-99550943D01*
X145525819Y-99550943D02*
X145525819Y-99836657D01*
X145525819Y-99836657D02*
X145478200Y-99931895D01*
X145478200Y-99931895D02*
X145430580Y-99979514D01*
X144954390Y-98789038D02*
X144906771Y-98884276D01*
X144906771Y-98884276D02*
X144859152Y-98931895D01*
X144859152Y-98931895D02*
X144763914Y-98979514D01*
X144763914Y-98979514D02*
X144716295Y-98979514D01*
X144716295Y-98979514D02*
X144621057Y-98931895D01*
X144621057Y-98931895D02*
X144573438Y-98884276D01*
X144573438Y-98884276D02*
X144525819Y-98789038D01*
X144525819Y-98789038D02*
X144525819Y-98598562D01*
X144525819Y-98598562D02*
X144573438Y-98503324D01*
X144573438Y-98503324D02*
X144621057Y-98455705D01*
X144621057Y-98455705D02*
X144716295Y-98408086D01*
X144716295Y-98408086D02*
X144763914Y-98408086D01*
X144763914Y-98408086D02*
X144859152Y-98455705D01*
X144859152Y-98455705D02*
X144906771Y-98503324D01*
X144906771Y-98503324D02*
X144954390Y-98598562D01*
X144954390Y-98598562D02*
X144954390Y-98789038D01*
X144954390Y-98789038D02*
X145002009Y-98884276D01*
X145002009Y-98884276D02*
X145049628Y-98931895D01*
X145049628Y-98931895D02*
X145144866Y-98979514D01*
X145144866Y-98979514D02*
X145335342Y-98979514D01*
X145335342Y-98979514D02*
X145430580Y-98931895D01*
X145430580Y-98931895D02*
X145478200Y-98884276D01*
X145478200Y-98884276D02*
X145525819Y-98789038D01*
X145525819Y-98789038D02*
X145525819Y-98598562D01*
X145525819Y-98598562D02*
X145478200Y-98503324D01*
X145478200Y-98503324D02*
X145430580Y-98455705D01*
X145430580Y-98455705D02*
X145335342Y-98408086D01*
X145335342Y-98408086D02*
X145144866Y-98408086D01*
X145144866Y-98408086D02*
X145049628Y-98455705D01*
X145049628Y-98455705D02*
X145002009Y-98503324D01*
X145002009Y-98503324D02*
X144954390Y-98598562D01*
X145525819Y-97455705D02*
X145525819Y-98027133D01*
X145525819Y-97741419D02*
X144525819Y-97741419D01*
X144525819Y-97741419D02*
X144668676Y-97836657D01*
X144668676Y-97836657D02*
X144763914Y-97931895D01*
X144763914Y-97931895D02*
X144811533Y-98027133D01*
X144525819Y-96836657D02*
X144525819Y-96741419D01*
X144525819Y-96741419D02*
X144573438Y-96646181D01*
X144573438Y-96646181D02*
X144621057Y-96598562D01*
X144621057Y-96598562D02*
X144716295Y-96550943D01*
X144716295Y-96550943D02*
X144906771Y-96503324D01*
X144906771Y-96503324D02*
X145144866Y-96503324D01*
X145144866Y-96503324D02*
X145335342Y-96550943D01*
X145335342Y-96550943D02*
X145430580Y-96598562D01*
X145430580Y-96598562D02*
X145478200Y-96646181D01*
X145478200Y-96646181D02*
X145525819Y-96741419D01*
X145525819Y-96741419D02*
X145525819Y-96836657D01*
X145525819Y-96836657D02*
X145478200Y-96931895D01*
X145478200Y-96931895D02*
X145430580Y-96979514D01*
X145430580Y-96979514D02*
X145335342Y-97027133D01*
X145335342Y-97027133D02*
X145144866Y-97074752D01*
X145144866Y-97074752D02*
X144906771Y-97074752D01*
X144906771Y-97074752D02*
X144716295Y-97027133D01*
X144716295Y-97027133D02*
X144621057Y-96979514D01*
X144621057Y-96979514D02*
X144573438Y-96931895D01*
X144573438Y-96931895D02*
X144525819Y-96836657D01*
X144859152Y-95646181D02*
X145525819Y-95646181D01*
X144478200Y-95884276D02*
X145192485Y-96122371D01*
X145192485Y-96122371D02*
X145192485Y-95503324D01*
X144525819Y-95217609D02*
X144525819Y-94598562D01*
X144525819Y-94598562D02*
X144906771Y-94931895D01*
X144906771Y-94931895D02*
X144906771Y-94789038D01*
X144906771Y-94789038D02*
X144954390Y-94693800D01*
X144954390Y-94693800D02*
X145002009Y-94646181D01*
X145002009Y-94646181D02*
X145097247Y-94598562D01*
X145097247Y-94598562D02*
X145335342Y-94598562D01*
X145335342Y-94598562D02*
X145430580Y-94646181D01*
X145430580Y-94646181D02*
X145478200Y-94693800D01*
X145478200Y-94693800D02*
X145525819Y-94789038D01*
X145525819Y-94789038D02*
X145525819Y-95074752D01*
X145525819Y-95074752D02*
X145478200Y-95169990D01*
X145478200Y-95169990D02*
X145430580Y-95217609D01*
X132333742Y-100130519D02*
X131857552Y-100130519D01*
X131857552Y-100130519D02*
X131857552Y-99130519D01*
X132667076Y-99606709D02*
X133000409Y-99606709D01*
X133143266Y-100130519D02*
X132667076Y-100130519D01*
X132667076Y-100130519D02*
X132667076Y-99130519D01*
X132667076Y-99130519D02*
X133143266Y-99130519D01*
X133571838Y-100130519D02*
X133571838Y-99130519D01*
X133571838Y-99130519D02*
X133809933Y-99130519D01*
X133809933Y-99130519D02*
X133952790Y-99178138D01*
X133952790Y-99178138D02*
X134048028Y-99273376D01*
X134048028Y-99273376D02*
X134095647Y-99368614D01*
X134095647Y-99368614D02*
X134143266Y-99559090D01*
X134143266Y-99559090D02*
X134143266Y-99701947D01*
X134143266Y-99701947D02*
X134095647Y-99892423D01*
X134095647Y-99892423D02*
X134048028Y-99987661D01*
X134048028Y-99987661D02*
X133952790Y-100082900D01*
X133952790Y-100082900D02*
X133809933Y-100130519D01*
X133809933Y-100130519D02*
X133571838Y-100130519D01*
D11*
X132607552Y-97904409D02*
X132607552Y-97404409D01*
X132607552Y-97404409D02*
X132726600Y-97404409D01*
X132726600Y-97404409D02*
X132798028Y-97428219D01*
X132798028Y-97428219D02*
X132845647Y-97475838D01*
X132845647Y-97475838D02*
X132869457Y-97523457D01*
X132869457Y-97523457D02*
X132893266Y-97618695D01*
X132893266Y-97618695D02*
X132893266Y-97690123D01*
X132893266Y-97690123D02*
X132869457Y-97785361D01*
X132869457Y-97785361D02*
X132845647Y-97832980D01*
X132845647Y-97832980D02*
X132798028Y-97880600D01*
X132798028Y-97880600D02*
X132726600Y-97904409D01*
X132726600Y-97904409D02*
X132607552Y-97904409D01*
X133083743Y-97452028D02*
X133107552Y-97428219D01*
X133107552Y-97428219D02*
X133155171Y-97404409D01*
X133155171Y-97404409D02*
X133274219Y-97404409D01*
X133274219Y-97404409D02*
X133321838Y-97428219D01*
X133321838Y-97428219D02*
X133345647Y-97452028D01*
X133345647Y-97452028D02*
X133369457Y-97499647D01*
X133369457Y-97499647D02*
X133369457Y-97547266D01*
X133369457Y-97547266D02*
X133345647Y-97618695D01*
X133345647Y-97618695D02*
X133059933Y-97904409D01*
X133059933Y-97904409D02*
X133369457Y-97904409D01*
D12*
%TO.C,D3*%
X129918600Y-96875700D02*
X131518600Y-96875700D01*
X129918600Y-98475700D02*
X129918600Y-96875700D01*
X130118600Y-97675700D02*
X130518600Y-97675700D01*
X130518600Y-97475700D02*
X130918600Y-97675700D01*
X130518600Y-97875700D02*
X130518600Y-97475700D01*
X130918600Y-97675700D02*
X130518600Y-97875700D01*
X130918600Y-97875700D02*
X130918600Y-97475700D01*
X131318600Y-97675700D02*
X130918600Y-97675700D01*
X131518600Y-96875700D02*
X131518600Y-98475700D01*
X131518600Y-98475700D02*
X129918600Y-98475700D01*
%TO.C,D1*%
X132186800Y-99136300D02*
X133786800Y-99136300D01*
X132186800Y-100736300D02*
X132186800Y-99136300D01*
X132386800Y-99936300D02*
X132786800Y-99936300D01*
X132786800Y-99736300D02*
X132786800Y-100136300D01*
X132786800Y-99936300D02*
X133186800Y-99736300D01*
X133186800Y-99736300D02*
X133186800Y-100136300D01*
X133186800Y-100136300D02*
X132786800Y-99936300D01*
X133586800Y-99936300D02*
X133186800Y-99936300D01*
X133786800Y-99136300D02*
X133786800Y-100736300D01*
X133786800Y-100736300D02*
X132186800Y-100736300D01*
%TO.C,D4*%
X129911000Y-99136300D02*
X131511000Y-99136300D01*
X129911000Y-100736300D02*
X129911000Y-99136300D01*
X130111000Y-99936300D02*
X130511000Y-99936300D01*
X130511000Y-99736300D02*
X130911000Y-99936300D01*
X130511000Y-100136300D02*
X130511000Y-99736300D01*
X130911000Y-99936300D02*
X130511000Y-100136300D01*
X130911000Y-100136300D02*
X130911000Y-99736300D01*
X131311000Y-99936300D02*
X130911000Y-99936300D01*
X131511000Y-99136300D02*
X131511000Y-100736300D01*
X131511000Y-100736300D02*
X129911000Y-100736300D01*
D13*
%TO.C,J1*%
X146246000Y-90540401D02*
X146246000Y-106847201D01*
X146246000Y-106847201D02*
X151986399Y-106847201D01*
X151986399Y-90540401D02*
X146246000Y-90540401D01*
X151986399Y-106847201D02*
X151986399Y-90540401D01*
D14*
X143547000Y-105443800D02*
G75*
G02*
X142785000Y-105443800I-381000J0D01*
G01*
X142785000Y-105443800D02*
G75*
G02*
X143547000Y-105443800I381000J0D01*
G01*
D12*
%TO.C,D2*%
X132176600Y-96875700D02*
X133776600Y-96875700D01*
X132176600Y-98475700D02*
X132176600Y-96875700D01*
X132376600Y-97675700D02*
X132776600Y-97675700D01*
X132776600Y-97475700D02*
X132776600Y-97875700D01*
X132776600Y-97675700D02*
X133176600Y-97475700D01*
X133176600Y-97475700D02*
X133176600Y-97875700D01*
X133176600Y-97875700D02*
X132776600Y-97675700D01*
X133576600Y-97675700D02*
X133176600Y-97675700D01*
X133776600Y-96875700D02*
X133776600Y-98475700D01*
X133776600Y-98475700D02*
X132176600Y-98475700D01*
%TD*%
M02*
