%TF.GenerationSoftware,KiCad,Pcbnew,9.0.0*%
%TF.CreationDate,2025-04-02T12:45:21-07:00*%
%TF.ProjectId,LEDBoard,4c454442-6f61-4726-942e-6b696361645f,rev?*%
%TF.SameCoordinates,Original*%
%TF.FileFunction,OtherDrawing,Comment*%
%FSLAX46Y46*%
G04 Gerber Fmt 4.6, Leading zero omitted, Abs format (unit mm)*
G04 Created by KiCad (PCBNEW 9.0.0) date 2025-04-02 12:45:21*
%MOMM*%
%LPD*%
G01*
G04 APERTURE LIST*
%ADD10C,0.635000*%
%ADD11C,0.000000*%
%ADD12C,0.381000*%
G04 APERTURE END LIST*
D10*
X131192200Y-99929800D02*
X131184600Y-99937400D01*
X131192200Y-97676800D02*
X131192200Y-96028400D01*
D11*
G36*
X146390400Y-96864000D02*
G01*
X143748800Y-96864000D01*
X143748800Y-96025800D01*
X146390400Y-96025800D01*
X146390400Y-96864000D01*
G37*
D10*
X131192200Y-97676800D02*
X131192200Y-99929800D01*
X131184600Y-99937400D02*
X131850000Y-99937400D01*
X132500200Y-99927200D02*
X132510400Y-99937400D01*
D11*
G36*
X146390400Y-95364000D02*
G01*
X143748800Y-95364000D01*
X143748800Y-94525800D01*
X146390400Y-94525800D01*
X146390400Y-95364000D01*
G37*
D10*
X132500200Y-97676800D02*
X132500200Y-96061400D01*
D11*
G36*
X146390400Y-92364000D02*
G01*
X143748800Y-92364000D01*
X143748800Y-91525800D01*
X146390400Y-91525800D01*
X146390400Y-92364000D01*
G37*
D12*
X131850000Y-97676800D02*
X131850000Y-95975000D01*
D11*
G36*
X146390400Y-93864000D02*
G01*
X143748800Y-93864000D01*
X143748800Y-93025800D01*
X146390400Y-93025800D01*
X146390400Y-93864000D01*
G37*
G36*
X150747600Y-96864000D02*
G01*
X147191600Y-96864000D01*
X147191600Y-96025800D01*
X150747600Y-96025800D01*
X150747600Y-96864000D01*
G37*
G36*
X131517200Y-98476800D02*
G01*
X130867200Y-98476800D01*
X130867200Y-96876800D01*
X131517200Y-96876800D01*
X131517200Y-98476800D01*
G37*
D12*
X131850000Y-99937400D02*
X131850000Y-97676800D01*
D10*
X131850000Y-99937400D02*
X132510400Y-99937400D01*
D11*
G36*
X132835400Y-100737400D02*
G01*
X132185400Y-100737400D01*
X132185400Y-99137400D01*
X132835400Y-99137400D01*
X132835400Y-100737400D01*
G37*
G36*
X131509600Y-100737400D02*
G01*
X130859600Y-100737400D01*
X130859600Y-99137400D01*
X131509600Y-99137400D01*
X131509600Y-100737400D01*
G37*
D10*
X132500200Y-97676800D02*
X132500200Y-99927200D01*
X131850000Y-97676800D02*
X132500200Y-97676800D01*
D11*
G36*
X146390400Y-98364000D02*
G01*
X143748800Y-98364000D01*
X143748800Y-97525800D01*
X146390400Y-97525800D01*
X146390400Y-98364000D01*
G37*
G36*
X150747600Y-92364000D02*
G01*
X147191600Y-92364000D01*
X147191600Y-91525800D01*
X150747600Y-91525800D01*
X150747600Y-92364000D01*
G37*
D10*
X131192200Y-96028400D02*
X131189600Y-96025800D01*
D11*
G36*
X150747600Y-93864000D02*
G01*
X147191600Y-93864000D01*
X147191600Y-93025800D01*
X150747600Y-93025800D01*
X150747600Y-93864000D01*
G37*
G36*
X132825200Y-98476800D02*
G01*
X132175200Y-98476800D01*
X132175200Y-96876800D01*
X132825200Y-96876800D01*
X132825200Y-98476800D01*
G37*
G36*
X150747600Y-98364000D02*
G01*
X147191600Y-98364000D01*
X147191600Y-97525800D01*
X150747600Y-97525800D01*
X150747600Y-98364000D01*
G37*
D10*
X131192200Y-97676800D02*
X131850000Y-97676800D01*
D11*
G36*
X143183840Y-91453290D02*
G01*
X143229590Y-91506090D01*
X143231960Y-91516960D01*
X143240800Y-91525800D01*
X148845600Y-91525800D01*
X148912640Y-91545490D01*
X148958390Y-91598290D01*
X148969600Y-91649800D01*
X148969600Y-91944900D01*
X149264700Y-91944900D01*
X149331740Y-91964590D01*
X149377490Y-92017390D01*
X149388700Y-92068900D01*
X149388700Y-97820900D01*
X149369020Y-97887940D01*
X149316210Y-97933700D01*
X149264700Y-97944900D01*
X148969600Y-97944900D01*
X148969600Y-98240000D01*
X148949920Y-98307040D01*
X148897110Y-98352800D01*
X148845600Y-98364000D01*
X143240800Y-98364000D01*
X143237310Y-98367490D01*
X143175990Y-98400970D01*
X143118690Y-98399880D01*
X139537870Y-97477220D01*
X143240800Y-97477220D01*
X143240800Y-97525800D01*
X144650500Y-97525800D01*
X145488700Y-97525800D01*
X148550500Y-97525800D01*
X148550500Y-96864000D01*
X145488700Y-96864000D01*
X145488700Y-97525800D01*
X144650500Y-97525800D01*
X144650500Y-96864000D01*
X143240800Y-96864000D01*
X143240800Y-96912580D01*
X143247310Y-96973100D01*
X143298360Y-97109970D01*
X143306310Y-97120590D01*
X143330730Y-97186060D01*
X143315880Y-97254330D01*
X143306310Y-97269210D01*
X143298360Y-97279840D01*
X143298350Y-97279840D01*
X143247310Y-97416710D01*
X143240800Y-97477220D01*
X139537870Y-97477220D01*
X137424680Y-96932720D01*
X137346540Y-96912580D01*
X135482200Y-96432200D01*
X134037750Y-96432200D01*
X133994410Y-96424380D01*
X133882690Y-96382710D01*
X133882680Y-96382710D01*
X133823070Y-96376300D01*
X133823060Y-96376300D01*
X133077330Y-96376300D01*
X133077320Y-96376300D01*
X133017720Y-96382710D01*
X132905990Y-96424380D01*
X132862650Y-96432200D01*
X130829750Y-96432200D01*
X130786410Y-96424380D01*
X130674690Y-96382710D01*
X130674680Y-96382710D01*
X130615070Y-96376300D01*
X130615060Y-96376300D01*
X129869330Y-96376300D01*
X129869320Y-96376300D01*
X129809720Y-96382710D01*
X129697990Y-96424380D01*
X129654650Y-96432200D01*
X124625900Y-96432200D01*
X124558860Y-96412520D01*
X124513110Y-96359710D01*
X124501900Y-96308200D01*
X124501900Y-95977220D01*
X143240800Y-95977220D01*
X143240800Y-96025800D01*
X144650500Y-96025800D01*
X145488700Y-96025800D01*
X148550500Y-96025800D01*
X148550500Y-95364000D01*
X145488700Y-95364000D01*
X145488700Y-96025800D01*
X144650500Y-96025800D01*
X144650500Y-95364000D01*
X143240800Y-95364000D01*
X143240800Y-95412580D01*
X143247310Y-95473100D01*
X143298350Y-95609960D01*
X143306310Y-95620590D01*
X143330730Y-95686050D01*
X143315880Y-95754330D01*
X143306310Y-95769210D01*
X143298350Y-95779840D01*
X143247310Y-95916700D01*
X143240800Y-95977220D01*
X124501900Y-95977220D01*
X124501900Y-95412580D01*
X124501900Y-94246520D01*
X124521590Y-94179480D01*
X124574390Y-94133730D01*
X124643550Y-94123780D01*
X124707100Y-94152810D01*
X124740460Y-94199070D01*
X124753150Y-94229700D01*
X124753150Y-94229710D01*
X124865040Y-94423490D01*
X124865040Y-94423500D01*
X125001250Y-94601020D01*
X125001260Y-94601020D01*
X125159480Y-94759240D01*
X125159480Y-94759250D01*
X125337010Y-94895460D01*
X125530790Y-95007350D01*
X125737530Y-95092980D01*
X125953670Y-95150890D01*
X126175520Y-95180100D01*
X126399280Y-95180100D01*
X126621130Y-95150890D01*
X126837280Y-95092980D01*
X127044010Y-95007350D01*
X127237790Y-94895460D01*
X127415320Y-94759250D01*
X127573550Y-94601020D01*
X127709760Y-94423490D01*
X127821650Y-94229710D01*
X127907280Y-94022980D01*
X127965190Y-93806830D01*
X127994400Y-93584980D01*
X127994400Y-93574460D01*
X137191500Y-93574460D01*
X137223210Y-93774680D01*
X137285860Y-93967480D01*
X137370560Y-94133730D01*
X137377890Y-94148110D01*
X137497040Y-94312100D01*
X137640400Y-94455460D01*
X137793860Y-94566950D01*
X137804390Y-94574610D01*
X137985020Y-94666640D01*
X138177820Y-94729290D01*
X138378040Y-94761000D01*
X138580760Y-94761000D01*
X138780980Y-94729290D01*
X138973780Y-94666640D01*
X139154410Y-94574610D01*
X139246490Y-94507710D01*
X139288452Y-94477220D01*
X143240800Y-94477220D01*
X143240800Y-94525800D01*
X144650500Y-94525800D01*
X145488700Y-94525800D01*
X148550500Y-94525800D01*
X148550500Y-93864000D01*
X145488700Y-93864000D01*
X145488700Y-94525800D01*
X144650500Y-94525800D01*
X144650500Y-93864000D01*
X143240800Y-93864000D01*
X143240800Y-93912580D01*
X143247310Y-93973100D01*
X143298350Y-94109960D01*
X143298360Y-94109970D01*
X143306310Y-94120590D01*
X143330730Y-94186060D01*
X143315870Y-94254330D01*
X143306310Y-94269210D01*
X143298360Y-94279840D01*
X143298350Y-94279840D01*
X143247310Y-94416700D01*
X143240800Y-94477220D01*
X139288452Y-94477220D01*
X139318400Y-94455460D01*
X139318410Y-94455460D01*
X139461760Y-94312110D01*
X139461760Y-94312100D01*
X139543890Y-94199070D01*
X139580910Y-94148110D01*
X139672940Y-93967480D01*
X139690780Y-93912580D01*
X139735590Y-93774680D01*
X139767300Y-93574460D01*
X139767300Y-93371740D01*
X139735590Y-93171520D01*
X139672940Y-92978720D01*
X139672176Y-92977220D01*
X143240800Y-92977220D01*
X143240800Y-93025800D01*
X144650500Y-93025800D01*
X145488700Y-93025800D01*
X148550500Y-93025800D01*
X148550500Y-92364000D01*
X145488700Y-92364000D01*
X145488700Y-93025800D01*
X144650500Y-93025800D01*
X144650500Y-92364000D01*
X143240800Y-92364000D01*
X143240800Y-92412580D01*
X143247310Y-92473100D01*
X143298350Y-92609960D01*
X143306310Y-92620590D01*
X143330730Y-92686050D01*
X143315880Y-92754330D01*
X143306310Y-92769210D01*
X143298350Y-92779840D01*
X143247310Y-92916700D01*
X143240800Y-92977220D01*
X139672176Y-92977220D01*
X139580910Y-92798090D01*
X139559920Y-92769210D01*
X139461760Y-92634100D01*
X139318410Y-92490740D01*
X139318400Y-92490740D01*
X139211370Y-92412970D01*
X139211350Y-92412960D01*
X139210830Y-92412580D01*
X139154410Y-92371590D01*
X138973780Y-92279560D01*
X138780980Y-92216910D01*
X138641180Y-92194770D01*
X138580760Y-92185200D01*
X138378040Y-92185200D01*
X138331620Y-92192550D01*
X138177820Y-92216910D01*
X137985020Y-92279560D01*
X137804390Y-92371590D01*
X137640400Y-92490740D01*
X137497040Y-92634100D01*
X137377890Y-92798090D01*
X137285860Y-92978720D01*
X137223210Y-93171520D01*
X137193170Y-93361210D01*
X137191500Y-93371740D01*
X137191500Y-93574460D01*
X127994400Y-93574460D01*
X127994400Y-93371740D01*
X127994400Y-93361220D01*
X127965190Y-93139370D01*
X127907280Y-92923230D01*
X127821650Y-92716490D01*
X127709760Y-92522710D01*
X127593810Y-92371590D01*
X127573550Y-92345180D01*
X127573540Y-92345180D01*
X127415320Y-92186960D01*
X127415320Y-92186950D01*
X127237800Y-92050740D01*
X127237790Y-92050740D01*
X127044010Y-91938850D01*
X127044000Y-91938850D01*
X126837280Y-91853220D01*
X126621130Y-91795310D01*
X126399290Y-91766100D01*
X126399280Y-91766100D01*
X126175520Y-91766100D01*
X126175510Y-91766100D01*
X125953670Y-91795310D01*
X125737520Y-91853220D01*
X125530800Y-91938850D01*
X125530790Y-91938850D01*
X125337010Y-92050740D01*
X125337000Y-92050740D01*
X125159480Y-92186950D01*
X125159480Y-92186960D01*
X125001260Y-92345180D01*
X125001250Y-92345180D01*
X124865040Y-92522700D01*
X124865040Y-92522710D01*
X124753150Y-92716490D01*
X124753150Y-92716500D01*
X124740460Y-92747130D01*
X124696620Y-92801540D01*
X124630330Y-92823600D01*
X124562630Y-92806320D01*
X124515020Y-92755180D01*
X124501900Y-92699680D01*
X124501900Y-91557600D01*
X124521590Y-91490560D01*
X124574390Y-91444810D01*
X124625900Y-91433600D01*
X143116800Y-91433600D01*
X143183840Y-91453290D01*
G37*
G36*
X150747600Y-95364000D02*
G01*
X147191600Y-95364000D01*
X147191600Y-94525800D01*
X150747600Y-94525800D01*
X150747600Y-95364000D01*
G37*
D10*
X132500200Y-96061400D02*
X132510400Y-96051200D01*
M02*
